<svg xmlns="http://www.w3.org/2000/svg" width="512" height="512" fill="#147cd1"><path d="m248.688 31.563 3.442-.105c9.006-.045 9.006-.045 12.077 2.944C267.07 38.55 267.424 40.907 267 46c-1.714 3.364-2.874 5.442-6.293 7.137-2.873.916-5.32 1.206-8.328 1.355l-3.3.19-3.517.193C207.54 57.37 169.927 69.191 139 92l-3.04 2.184C110.886 112.762 91.21 136.285 77 164l-1.073 2.055c-12.492 24.146-19.965 51.54-21.161 78.73l-.109 2.443a243 243 0 0 0-.14 4.659c-.167 4.75-.866 8.14-3.517 12.113-3.923 3.268-7.88 3.522-12.812 3.688l-2.1.103c-1.696.082-3.392.147-5.088.209 7.882 14.77 15.874 29.457 24.16 44.004l1.434 2.524q1.438 2.527 2.886 5.05l1.391 2.45 1.244 2.175C63 326 63 326 63 328h2l.648-2.371c1.818-4.881 4.37-9.192 6.977-13.692q1.749-3.053 3.492-6.109l1.886-3.303c3.644-6.411 7.19-12.878 10.747-19.337l2.131-3.866c3.135-5.621 3.135-5.621 6.119-11.322l-3.07-.078-4.055-.172-2.016-.043c-5.027-.246-8.052-1.431-11.859-4.707-3.075-4.617-2.1-10.377-1.812-15.687l.157-3.105c2.094-35.983 15.334-69.726 36.718-98.583l1.461-1.982c3.034-4.014 6.289-7.599 9.915-11.087 1.786-1.726 1.786-1.726 3.999-4.556 8.44-9.882 19.804-17.828 30.562-25l2.816-1.898c39.92-25.798 90.52-32.827 136.598-23 38.426 8.837 79.5 31.282 102.332 64.433 1.948 3.83 1.96 7.27 1.254 11.465-1.794 2.87-2.983 4.491-6 6-3.91.714-7.465.882-10.984-1.14-4.694-3.996-8.687-8.75-12.82-13.312-24.542-26.96-63.523-45.854-100.141-47.753-4.394-.123-8.785-.13-13.18-.108l-2.353.007c-11.413.05-22.427.394-33.522 3.306l-2.372.602C187.545 109.683 156.184 126.446 136 152l-2.543 3.074C112.007 181.291 101.311 211.63 97 245l2.124-.048c3.188-.062 6.375-.101 9.564-.14l3.341-.076 3.233-.029 2.967-.048c3.294.405 5.112 1.383 7.771 3.341 2.92 4.38 2.878 7.862 2 13-1.93 4.721-4.475 9.054-7.062 13.438q-1.1 1.917-2.194 3.839-2.25 3.947-4.53 7.878c-3.34 5.778-6.55 11.627-9.776 17.47l-3.696 6.645a11880 11880 0 0 0-8.732 15.729 5785 5785 0 0 1-6.69 12.028 907 907 0 0 0-5.828 10.602l-2.055 3.746-1.628 3.023c-2.562 3.685-5.525 6.888-9.934 8.266L64 363.625l-1.875.04c-8.15-2.548-11.356-10.822-15.062-17.79q-.983-1.812-1.97-3.623-2.043-3.757-4.073-7.523c-3.119-5.773-6.324-11.498-9.52-17.229l-3.727-6.707-1.872-3.37-6.851-12.34a3516 3516 0 0 1-4.814-8.694c-2.657-4.807-5.327-9.592-8.177-14.287-7.393-12.247-7.393-12.247-6.7-19.11C.415 249.71 2.281 248.007 5 246c2.662-1.33 4.687-1.113 7.664-1.098l3.399.01 3.562.025 3.586.014q4.395.018 8.789.049l-.04-1.832c-.667-55.024 28.136-108.064 65.56-146.673C105.733 88.197 114.623 80.932 124 74l2.305-1.758C153.59 52.142 185.914 40.102 219 34l2.148-.402c9.117-1.63 18.3-1.87 27.54-2.035m206.797 119.644c4.619 5.441 7.8 11.48 11.078 17.793q1.861 3.523 3.73 7.043l.946 1.788c2.945 5.552 6.022 11.023 9.136 16.482a2025 2025 0 0 1 16.93 30.379c2.828 5.165 5.66 10.316 8.71 15.355 7.317 12.12 7.317 12.12 6.626 18.96-1.056 3.283-2.922 4.986-5.641 6.993-2.662 1.33-4.687 1.113-7.664 1.098l-3.398-.01-3.563-.026-3.586-.013q-4.395-.018-8.789-.049l.042 1.823c.08 6.283-.36 12.333-1.23 18.552l-.4 2.878C472.085 333.06 452.672 372.78 424 405l-1.354 1.542C412.186 418.42 400.718 428.6 388 438l-2.305 1.758C358.41 459.858 326.086 471.898 293 478l-2.148.402c-9.117 1.63-18.3 1.87-27.54 2.036l-3.442.104c-9.006.045-9.006.045-12.077-2.944-2.863-4.148-3.217-6.505-2.793-11.598 1.714-3.364 2.874-5.442 6.293-7.137 2.873-.916 5.32-1.206 8.328-1.355l3.3-.19 3.517-.193C304.46 454.63 342.074 442.809 373 420l3.04-2.184C401.114 399.238 420.79 375.715 435 348l1.073-2.055c12.492-24.146 19.965-51.54 21.161-78.73l.109-2.443q.092-2.33.14-4.659c.167-4.75.866-8.14 3.517-12.113 3.923-3.268 7.88-3.522 12.813-3.687l2.1-.104A431 431 0 0 1 481 244c-7.882-14.77-15.874-29.457-24.16-44.004l-1.434-2.524q-1.438-2.527-2.886-5.05l-1.391-2.45-1.244-2.175C449 186 449 186 449 184h-2l-.648 2.371c-1.818 4.881-4.37 9.192-6.977 13.691q-1.749 3.054-3.492 6.11l-1.886 3.303c-3.644 6.411-7.19 12.878-10.747 19.338l-2.131 3.865c-3.135 5.621-3.135 5.621-6.119 11.322l3.07.078q2.027.084 4.055.172l2.016.043c5.027.246 8.052 1.431 11.859 4.707 3.075 4.617 2.1 10.377 1.813 15.688l-.158 3.104c-2.094 35.983-15.334 69.726-36.717 98.583l-1.462 1.982c-3.034 4.014-6.289 7.599-9.915 11.087-1.786 1.726-1.786 1.726-3.998 4.556-8.441 9.882-19.805 17.828-30.563 25l-2.816 1.898c-39.92 25.798-90.52 32.827-136.598 23-38.426-8.837-79.5-31.282-102.332-64.433-1.948-3.83-1.96-7.27-1.254-11.465 1.794-2.87 2.983-4.491 6-6 3.91-.714 7.465-.882 10.984 1.14 4.694 3.996 8.687 8.75 12.82 13.312 17.55 19.28 40.645 32.304 65.196 40.548l3.25 1.145c24.544 8.191 55.621 9.45 80.75 2.855l2.372-.602C324.455 402.317 355.816 385.554 376 360l2.543-3.074C399.993 330.709 410.689 300.37 415 267l-2.124.048c-3.188.062-6.375.101-9.563.14l-3.342.076-3.233.029-2.967.048c-3.294-.405-5.112-1.383-7.771-3.341-2.92-4.38-2.878-7.862-2-13 1.93-4.721 4.475-9.054 7.063-13.437q1.1-1.918 2.193-3.84 2.25-3.947 4.53-7.878c3.34-5.778 6.55-11.627 9.777-17.47q1.845-3.322 3.695-6.645 3.872-6.96 7.734-13.93a8934 8934 0 0 1 9.416-16.94q2.091-3.758 4.17-7.524l2.11-3.774c.84-1.514.84-1.514 1.699-3.058 1.967-3.053 4.015-5.762 7.363-7.316 8.39-.7 8.39-.7 11.735 2.019"/><path d="M287.434 137.023C299.884 146.613 307.8 159.341 310 175c.213 4.772.228 9.544.24 14.32.01 2.278.04 4.555.072 6.832.136 18.524-5.027 32.755-17.312 46.848l2.226.826c2.634 1.115 4.794 2.36 7.162 3.952l2.53 1.69 2.695 1.825 2.814 1.892q2.943 1.982 5.882 3.971a2705 2705 0 0 0 8.947 6.018l5.732 3.869 2.678 1.794C349.674 279.715 349.674 279.715 352 287c.443 3.605.515 7.175.54 10.805.011 1.038.024 2.076.037 3.145q.028 3.285.034 6.571c.014 3.337.081 6.67.15 10.006q.02 3.202.028 6.403l.081 3c-.064 6.549-1.504 9.85-6.134 14.507C335.87 351.22 322.108 357.507 308 361l-1.854.506c-8.848 2.125-17.824 1.822-26.865 1.83l-5.477.02q-5.73.017-11.458.015c-4.843 0-9.686.027-14.529.061-3.772.023-7.543.026-11.315.025q-2.675.004-5.348.027c-24.23.193-47.52-5.548-65.945-22.092-4.57-4.621-6.022-7.927-6.13-14.412l.062-2.98-.006-3.137q.006-3.268.062-6.535c.053-3.319.041-6.634.022-9.953q.017-3.187.047-6.375l-.012-2.98c.178-7.486 2.063-12.21 7.275-17.602 4.791-4.33 10.285-7.784 15.674-11.313l2.908-1.917q3.024-1.992 6.051-3.976c3.096-2.03 6.186-4.069 9.275-6.108l5.891-3.874 2.803-1.85 2.6-1.7 2.285-1.5C216 244 216 244 219 243l-2.012-2.457c-11.736-14.602-15.358-27.546-15.304-46.165a539 539 0 0 0-.045-6.726c-.076-16.952 3.846-31.776 15.877-44.332 19.362-18.084 47.56-21.592 69.918-6.297M230 163c-8.397 12.268-7.405 31.06-5.312 45.188 1.875 8.322 6.42 15.726 13.312 20.812 8.789 5.031 17.283 6.821 27.14 4.148 8.5-3.139 14.771-8.01 19.235-15.96 5.619-12.953 5.967-32.777 1.625-46.188-3.637-8.766-9.065-14.919-17.687-18.937-14.443-5.414-28.854-1.31-38.313 10.937m-29.241 117.52c-2.959 2.215-5.92 4.233-9.117 6.088-6.972 4.105-6.972 4.105-10.893 11.045-.571 3.485-.587 6.869-.41 10.389.1 2.162.062 4.293.01 6.456.021 5.395.11 9.914 4.026 13.95 2.813 1.816 5.557 3.22 8.625 4.552l2.624 1.402c12.728 6.533 26.52 7.06 40.501 6.996q2.403.003 4.805.01 4.997.005 9.994-.017c4.225-.017 8.45-.007 12.676.01 3.3.012 6.6.008 9.9 0q2.334-.004 4.668.008c13.263.047 26.543-.776 38.394-7.346.646-.335 1.29-.67 1.956-1.014A118 118 0 0 0 324 330l3.162-1.683c3.119-2.082 3.119-2.082 3.694-5.582.158-5.134.158-5.134.2-10.27.006-2.2.102-4.384.204-6.582.114-5.089.21-9.952-2.993-14.159-2.321-1.731-4.694-3.171-7.233-4.558-3.367-1.93-6.547-4.135-9.766-6.299a970 970 0 0 0-8.729-5.781l-3.003-1.97-3.036-1.991-6.133-4.031q-6.702-4.407-13.41-8.806A977 977 0 0 1 272 255c-28.648-7.632-49.395 9.056-71.241 25.52M128 413c6.124 3.843 12.169 7.724 18 12-1.573 4.728-4.206 8.343-7.125 12.313l-1.418 1.955q-1.723 2.37-3.457 4.732c-4.728-1.573-8.343-4.206-12.312-7.125l-1.956-1.418q-2.37-1.723-4.732-3.457c1.527-4.643 4.066-7.978 7.063-11.75l1.392-1.785c3.315-4.235 3.315-4.235 4.545-5.465M378 68c4.728 1.573 8.343 4.206 12.313 7.125l1.955 1.418Q394.638 78.266 397 80c-1.535 4.604-4.008 8.02-6.937 11.813l-1.342 1.81c-1.166 1.52-2.437 2.956-3.721 4.377-3.388 0-4.104-.513-6.793-2.406l-2.158-1.504-2.236-1.59-2.272-1.59Q368.765 88.965 366 87c1.573-4.728 4.206-8.343 7.125-12.312l1.418-1.956Q376.266 70.362 378 68m-42-21c5.203.575 9.24 2.294 13.875 4.563l2.086.998c1.683.806 3.361 1.622 5.039 2.439-.675 4.82-2.58 8.919-4.562 13.313-.33.74-.66 1.48-.999 2.244Q350.225 73.28 349 76c-4.843-1.494-9.314-3.45-13.875-5.625l-2.086-.984A1895 1895 0 0 1 328 67c1.451-4.579 3.206-8.976 5.125-13.375l.84-1.941Q334.979 49.34 336 47M163 436c4.843 1.494 9.314 3.45 13.875 5.625l2.086.984A1895 1895 0 0 1 184 445c-1.443 4.738-3.372 8.989-5.625 13.375l-.984 1.941A1362 1362 0 0 1 175 465c-4.714-.65-8.577-2.516-12.812-4.562l-2.1-.999Q157.54 458.225 155 457c.675-4.82 2.58-8.919 4.563-13.312l.998-2.245Q161.774 438.72 163 436m40 16c7.617.489 14.628 2.028 22 4l-4 21c-3.221 1.074-4.237.934-7.45.223l-2.568-.557c-.88-.2-1.762-.398-2.67-.603l-2.705-.592A1087 1087 0 0 1 199 474c.43-7.67 1.742-14.659 4-22m89-418c1.573.195 3.136.47 4.691.777l2.862.557c.993.2 1.986.398 3.01.603l3.021.592q3.71.728 7.416 1.471c-.483 7.67-1.739 14.648-4 22-7.59-.487-14.67-1.998-22-4q.962-5.22 1.938-10.437l.552-3.01.537-2.862.492-2.65C291 35 291 35 292 34"/></svg>