<svg xmlns="http://www.w3.org/2000/svg" width="512" height="512" fill="#147cd1"><path d="m351.018 244.839 2.368-.015q3.858-.021 7.716-.027l2.679-.009q7.023-.022 14.047-.028c4.808-.006 9.615-.03 14.423-.058 3.722-.019 7.443-.024 11.165-.026a920 920 0 0 0 5.313-.024c9.856-.068 18.802.226 28.271 3.348.891.29 1.783.58 2.7.88 8.988 3.075 16.978 9.095 23.3 16.12l1.602 1.59c13.16 13.71 15.873 30.677 15.691 48.89q-.009 2.499-.013 4.998c-.011 4.348-.04 8.696-.074 13.044-.03 4.452-.044 8.903-.06 13.355q-.05 13.062-.146 26.123l2.216-.048c3.323-.062 6.647-.101 9.971-.14l3.487-.076 3.369-.029 3.094-.048c3.35.399 5.166 1.343 7.863 3.341 2.817 4.226 2.8 8.036 2 13-2.19 2.824-3.83 4.415-7 6-2.44.096-4.85.132-7.29.123l-2.314.004q-3.879.002-7.758-.007l-5.586.003q-7.706.002-15.413-.007-8.299-.005-16.597-.002-14.389 0-28.777-.008-20.804-.011-41.606-.012-33.75-.004-67.498-.019-32.79-.014-65.583-.02h-2.041l-20.292-.004Q139.123 395.035 54 395l.013 2.852q.061 13.308.09 26.616.015 6.843.048 13.684.032 6.604.039 13.208.005 2.519.021 5.036c.015 2.354.017 4.707.016 7.06l.022 2.099c-.023 5.264-.785 8.804-4.312 12.757C45.91 480.626 42.546 480.84 38 480c-2.87-1.794-4.491-2.983-6-6a177 177 0 0 1-.114-7.479v-2.336c0-2.554.009-5.108.016-7.662l.005-5.305q.006-6.988.024-13.977.014-7.128.02-14.257.016-13.992.049-27.984l-2.216.048c-3.323.062-6.647.101-9.972.14l-3.486.076-3.369.029-3.094.048C6.513 394.942 4.697 393.998 2 392c-2.817-4.226-2.8-8.036-2-13 2.19-2.824 3.83-4.415 7-6a79 79 0 0 1 4.697-.139l3.02-.016 3.343-.003 3.532-.015q4.868-.018 9.735-.028 5.243-.013 10.487-.034 9.09-.033 18.178-.056 13.143-.035 26.284-.08 21.32-.071 42.64-.132a117061 117061 0 0 0 56.81-.174q53.138-.17 106.274-.323a24498 24498 0 0 0-17.97-18.021q-4.175-4.184-8.346-8.37-4.034-4.05-8.072-8.092l-3.062-3.073c-5.134-5.16-10.28-10.244-15.868-14.919-1.847-1.675-3.385-3.489-4.967-5.413-3.676-3.7-6.86-3.933-11.947-3.983l-3.211.076-3.432-.003c-3.729.005-7.455.06-11.184.114q-3.885.02-7.772.03c-6.113.024-12.225.08-18.338.15-6.962.078-13.924.117-20.887.152-14.315.073-28.63.196-42.944.352l1.277 1.257a4735 4735 0 0 1 13.14 12.995q2.448 2.426 4.906 4.844c2.355 2.32 4.7 4.648 7.044 6.978l2.223 2.176 2.062 2.061 1.817 1.797c2.72 3.36 3.545 6.09 3.468 10.392-1.114 4.162-2.657 5.78-5.937 8.5-3.11 1.555-5.563 1.286-9 1-4.404-2.579-7.908-5.651-11.515-9.24l-1.56-1.544q-2.523-2.507-5.034-5.025l-3.525-3.511a4007 4007 0 0 1-7.353-7.351c-3.134-3.14-6.28-6.269-9.429-9.395q-3.638-3.618-7.262-7.25-1.736-1.734-3.479-3.462a926 926 0 0 1-4.846-4.853l-2.785-2.783c-3.8-4.442-4.462-7.708-4.087-13.524 1.486-3.501 3.522-5.43 6.875-7.062 5.01-.772 10.004-.694 15.058-.663a1765 1765 0 0 0 4.634-.031c4.186-.027 8.371-.023 12.558-.01 3.499.007 6.997-.002 10.496-.01q12.387-.028 24.772.007c8.508.023 17.016.005 25.524-.033q10.971-.045 21.942-.028c4.364.007 8.728.005 13.093-.02q6.158-.028 12.316.018 2.254.01 4.509-.013c7.595-.069 13.729-.107 19.62 5.254L247 294l2.723 2.492 2.34 2.383 2.347 2.367a201 201 0 0 1 14.433 17.158c6.27 8.313 12.915 16.266 19.844 24.037l1.892 2.124c17.854 19.768 34.025 30.341 61.029 31.784 21.461.821 43.087-.822 64.392-3.345l-.08-3.21c-.09-3.947-.147-7.893-.195-11.841q-.038-2.558-.102-5.116c-.061-2.457-.09-4.914-.111-7.372l-.078-2.292c-.003-4.032.395-6.454 2.97-9.64 3.107-3.027 4.46-3.49 8.604-3.693 3.306.272 5.316 1.235 7.992 3.164 2.936 4.662 3.41 8.643 3.293 14.023l-.013 2.262a776 776 0 0 1-.093 7.09q-.022 2.415-.04 4.832c-.03 3.932-.09 7.861-.147 11.793h20q-.093-13.431-.236-26.862c-.044-4.16-.084-8.318-.11-12.476q-.041-6.03-.117-12.06a680 680 0 0 1-.035-4.581c-.047-10.368-.685-19.807-6.002-28.959l-1.219-2.152c-1.223-1.963-1.223-1.963-2.937-3.539C446 281 446 281 446 279l-1.695-.813c-2.48-1.277-4.812-2.712-7.18-4.187-8.134-4.894-15.74-6.115-25.187-6.145l-2.023-.01q-3.28-.013-6.56-.013l-4.606-.01q-4.817-.009-9.635-.007c-4.092 0-8.183-.014-12.275-.031q-4.755-.015-9.51-.013-2.261 0-4.522-.013c-10.692-.05-20.583.137-30.245 5.18l-2.996 1.527c-2.264 1.355-3.747 2.672-5.566 4.535h-2l-.848 1.762c-1.43 2.778-3.12 5.336-4.836 7.945-3.81 6.638-5.06 12.638-5.869 20.152-.564 3.964-1.22 6.41-4.267 9.13-4.294 2.716-7.259 3.017-12.18 2.011-2.87-1.794-4.491-2.983-6-6-1.372-18.437 3.77-34.295 15.672-48.582 12.633-13.12 29.225-20.551 47.346-20.58"/><path d="m65.348 31.733 2.828-.014c3.123-.013 6.245-.011 9.368-.01l6.722-.02c6.085-.018 12.17-.022 18.255-.024q5.704-.001 11.409-.01 18.879-.027 37.758-.026h4.112c10.995.001 21.991-.018 32.987-.046q16.953-.043 33.908-.04c6.34 0 12.68-.006 19.021-.027q8.948-.029 17.897-.005 3.278.003 6.557-.015a870 870 0 0 1 8.974.01l2.6-.032c8.943.101 16.875 3.186 23.432 9.33 6.037 7.265 8.936 15.554 8.964 24.893l.018 3.445.003 3.751.015 3.974q.019 5.386.024 10.773l.012 6.742q.02 10.562.027 21.124.007 12.164.05 24.327.034 9.42.034 18.841 0 5.618.025 11.235c.02 4.184.015 8.367.008 12.55l.028 3.722c-.053 11.035-2.127 20.268-9.384 28.819-6.507 6.17-13.2 9.081-22.125 9.5-3.725-.113-6.49-.308-9.563-2.5-2.861-3.712-3.695-6.35-3.312-11 1.241-3.87 2.202-5.487 5.625-7.687C275 202 275 202 277.285 201.403l2.402-.653 2.262-.516c3.204-1.928 4.105-4.765 5.051-8.234.431-4.146.41-8.268.388-12.434l.016-3.752q.015-5.07-.001-10.14c-.008-3.547 0-7.094.004-10.64q.007-8.933-.016-17.865c-.016-6.873-.01-13.745.006-20.618q.02-8.87.007-17.74-.008-5.29.005-10.58c.01-3.932-.004-7.865-.02-11.797l.018-3.518c-.048-6.024-.245-10.698-3.407-15.916-3.771-2.807-8.272-2.284-12.761-2.267l-2.71-.014c-3.003-.013-6.005-.011-9.007-.01q-3.225-.008-6.45-.02c-5.845-.018-11.69-.022-17.535-.024-4.876-.001-9.752-.009-14.628-.016q-17.252-.023-34.503-.02c-11.873.002-23.746-.02-35.62-.051q-15.28-.038-30.56-.036c-6.087 0-12.174-.005-18.262-.026q-8.584-.029-17.17-.005-3.153.003-6.307-.015a799 799 0 0 0-8.599.01l-2.53-.032c-3.986.048-5.903.237-9.351 2.432-3.083 3.217-3.135 5.032-3.154 9.388l-.022 3.403-.008 3.751-.02 3.938q-.025 5.355-.036 10.71-.008 3.346-.018 6.691-.029 10.465-.041 20.931-.015 12.083-.077 24.167-.044 9.337-.048 18.675c-.002 3.72-.011 7.438-.036 11.156-.028 4.15-.024 8.298-.017 12.447l-.039 3.733.021 3.429-.007 2.973c.637 3.476 2.088 5.165 4.495 7.702 2.562 1.281 4.38 1.13 7.25 1.138 1.112.005 2.226.01 3.373.017l3.718.003 5.93.023q3.195.011 6.388.018c4.438.01 8.875.031 13.313.053 12.62.062 25.241.116 37.861.15q10.452.027 20.902.087c3.687.021 7.374.037 11.06.04 4.116.002 8.231.027 12.347.054l3.693-.009c8.324.083 13.302 1.22 19.351 7.273l1.431 1.477 1.521 1.534a996 996 0 0 1 4.737 4.83q1.62 1.642 3.242 3.283A2059 2059 0 0 1 223 228l.043-3.945q.07-2.59.144-5.18c.01-1.284.01-1.284.018-2.594.148-4.278.408-7.39 3.1-10.832 3.183-2.892 4.583-3.41 8.703-3.613 3.306.272 5.316 1.235 7.992 3.164 3.645 5.424 3.452 10.575 3.434 16.875l.015 3.16q.01 3.297-.003 6.596c-.008 3.358.02 6.714.052 10.072q.003 3.21-.002 6.422l.034 3.03c-.059 5.931-.607 9.312-4.53 13.845-3.415 2.59-6.833 2.431-11 2-4.884-2.574-7.538-5.748-10.756-10.18-11.35-15.534-24.668-31.276-44.488-34.523-16.314-1.987-32.964-1.118-49.33-.253-8.303.432-16.611.624-24.924.808q-4.402.097-8.803.198l-2.154.05c-4.179.102-8.352.249-12.527.44-1.96.09-3.922.17-5.883.25q-3.563.146-7.124.349c-9.148.354-16.073-2.088-23.378-7.592-5.448-5.161-9.238-11.998-9.89-19.509l-.01-3.166-.026-3.657.002-3.972q-.008-2.108-.02-4.215c-.018-3.806-.022-7.612-.024-11.418q-.001-3.57-.01-7.143-.028-12.474-.026-24.949c.002-7.736-.02-15.473-.051-23.21a4835 4835 0 0 1-.036-19.964c0-3.97-.005-7.939-.026-11.908q-.029-5.602-.005-11.206c.003-2.013-.014-4.026-.03-6.038.05-7.308.805-12.844 4.519-19.192l1.146-1.98c6.226-10.214 16.939-13.328 28.202-13.287m24.641 383.752 2.747-.02c3.039-.019 6.077-.009 9.115.002q3.268-.011 6.535-.027c5.917-.022 11.834-.02 17.752-.01 4.938.005 9.876-.002 14.814-.01q17.472-.024 34.944.004c12.022.017 24.043 0 36.064-.032q15.477-.039 30.954-.025c6.163.005 12.327.003 18.491-.018q8.693-.025 17.387.012 3.19.008 6.383-.01a649 649 0 0 1 8.71.02l2.553-.035c4.162.066 6.779.422 10.078 3.077 3.572 3.72 3.605 6.213 3.63 11.184l.019 2.741.003 2.94.01 3.04q.007 3.182.007 6.362c.002 3.242.02 6.483.04 9.724q.005 3.093.005 6.186l.022 2.933c-.02 5.932-.215 10.193-4.314 14.79-4.028 2.313-7.392 2.527-11.938 1.687-2.87-1.794-4.491-2.983-6-6v-36H96v36c-4.649 5.81-4.649 5.81-7.953 6.273-4.215.187-7.151.164-10.547-2.523-3.39-3.729-3.622-6.436-3.645-11.347l-.02-2.741-.003-2.94-.01-3.04q-.007-3.182-.007-6.362c-.002-3.242-.02-6.483-.04-9.724q-.005-3.093-.005-6.186l-.022-2.933c.034-10.172.034-10.172 4.271-14.576 4.077-2.6 7.23-2.462 11.97-2.416M417.664 128.04C429.13 137.841 436.187 149.96 438 165c1.181 15.249-3.198 29.563-13.187 41.25-10.553 11.013-22.371 17.707-37.704 18.043-16.745.127-29.531-3.898-41.921-15.606-10.514-11.094-15.635-25.015-15.465-40.203 1.214-15.251 7.182-27.881 18.277-38.484 20.365-16.648 48.447-18.2 69.664-1.96M362 148c-7.47 8.352-9.608 15.155-9.344 26.34.81 8.624 5.08 14.84 11.344 20.66 8.042 6.129 15.928 8.158 26 7 9.18-2.437 16.336-7.018 21.34-15.187 4.402-8.523 5.461-18.011 2.601-27.223-4.205-9.014-10.24-15.186-19.53-18.867-11.813-3.542-23.48-1.42-32.411 7.277m112 268c2.87 1.794 4.491 2.983 6 6a87 87 0 0 1 .177 4.921l.039 3.106.022 3.368.025 3.453q.02 3.623.032 7.245c.017 3.694.061 7.387.105 11.08q.015 3.518.026 7.034l.053 3.35c-.022 7.68-.022 7.68-2.38 11.618-3.54 3.078-6.203 3.22-10.77 3.177-3.996-.604-5.637-2.39-8.329-5.352-.99-2.884-1.13-5.563-1.145-8.597l-.02-2.741-.003-2.94-.01-3.04q-.007-3.182-.007-6.362c-.002-3.242-.02-6.483-.04-9.724q-.005-3.093-.005-6.186l-.022-2.933c.02-5.932.215-10.193 4.315-14.79 4.027-2.313 7.391-2.527 11.937-1.687"/><path d="M181 458h22v22h-22zm192-170h22v22h-22zM202 117h22v22h-22zm-42 0h22v22h-22zm-43 0h22v22h-22z"/></svg>