<svg xmlns="http://www.w3.org/2000/svg" width="512" height="512" fill="#147cd1"><path d="M44 44h23v22h23l.063 11.438.027 3.61.008 2.823.016 2.904C90 89 90 89 89 90a83 83 0 0 1-4.91.098l-2.7-.008-3.453-.028L67 90v22H44V90H23v43h466V90h-21v22h-23V44h23v22l7.191-.105q3.476-.035 6.95-.06 2.402-.022 4.805-.061a667 667 0 0 1 6.933-.067c.707-.015 1.415-.03 2.144-.047 5.661-.002 10.406.942 14.653 4.903 1.962 3.612 1.727 7.15 1.685 11.156l.008 2.696c.004 2.986-.012 5.972-.028 8.959v6.416c.002 5.811-.016 11.623-.037 17.434-.019 6.071-.02 12.143-.024 18.214-.01 11.5-.034 22.999-.064 34.498-.033 13.09-.05 26.181-.065 39.272-.031 26.93-.085 53.861-.151 80.792h-23V156H23v289h311v23a140165 140165 0 0 1-138.953.165l-2.95.002q-23.65.021-47.303.064-24.263.042-48.525.051-14.975.005-29.95.042-10.265.023-20.53.017c-3.95-.002-7.9 0-11.85.017q-5.423.02-10.848.005c-1.928-.002-3.856.01-5.784.024C6.615 468.332 6.615 468.332 2 465c-2.393-3.59-2.252-5.164-2.257-9.43l-.01-1.997c-.01-2.222-.005-4.445 0-6.668l-.014-4.81c-.012-4.42-.012-8.838-.01-13.257 0-4.761-.01-9.522-.02-14.283-.017-9.331-.022-18.663-.023-27.995q-.002-11.375-.012-22.749-.026-32.224-.025-64.45v-7.028c.001-18.81-.018-37.621-.046-56.432q-.043-28.95-.04-57.899c0-10.841-.006-21.682-.027-32.524a8041 8041 0 0 1-.009-27.69c.007-4.71.007-9.422-.01-14.133Q-.528 97.19-.5 90.724q.005-2.343-.012-4.686c-.014-2.12-.003-4.237.013-6.356l-.001-3.57C.106 72.337 1.335 70.694 4 68c4.596-2.174 9.027-2.268 14.023-2.195l2.262.008c2.363.011 4.726.036 7.09.062q2.415.016 4.832.027c3.931.02 7.862.06 11.793.098z"/><path d="M480.048 308.774C497.437 323.107 509.163 343.537 512 366c1.451 26.168-2.93 47.816-19 69l-1.523 2.05c-13.164 16.55-35.51 28.011-56.378 30.735-25.642 2.63-48.75-4.143-69.099-19.785l-2.195-1.637c-16.697-13.418-27.243-34.9-29.888-55.84-2.723-25.24 3.259-48.979 19.263-68.969 31.747-38.005 87.896-43.391 126.868-12.78M371.875 335.5c-11.868 15.648-16.61 33.026-14.875 52.5 2.519 18.14 12.633 32.45 26.438 43.875 14.464 10.571 32.063 15.1 49.777 12.37 17.784-3.24 32.84-12.27 43.723-26.839 10.557-15.836 14.857-33.689 11.41-52.515-4.3-17.788-14.884-32.971-30.348-42.891-28.75-16.484-64.007-12.09-86.125 13.5"/><path d="M448 348c2.906 1.396 4.971 2.73 7.234 5.04l1.739 1.757 1.777 1.828 1.824 1.852q2.219 2.255 4.426 4.523c-1.475 3.41-3.387 5.64-6.003 8.262l-2.499 2.518-2.705 2.693-2.78 2.786a2603 2603 0 0 1-5.834 5.822 2238 2238 0 0 0-7.444 7.451c-2.371 2.381-4.75 4.754-7.13 7.128l-2.686 2.7-2.528 2.507-2.209 2.205c-4.299 3.799-8.001 5.833-13.752 5.569-4.649-1.226-7.57-4.623-10.836-8a412 412 0 0 0-5.785-5.801c-3.96-3.925-7.891-7.875-11.809-11.84 3.63-4.329 7.35-8.467 11.375-12.437l2.648-2.622L397 370a186 186 0 0 1 14 13c3.046-1.361 5.138-2.893 7.483-5.256l2.002-2.002 2.124-2.156 2.203-2.211q3.474-3.495 6.938-7l4.715-4.742Q442.24 353.824 448 348M244 44h24v22h22v24h-22v22h-24zm67 0h23v22h23v24h-23v22h-23zm67 0h23v22h22v24h-22v22h-23zm-200 0h23v22h22v24h-22v22h-23zm-67 0h23v22h22v24h-22v22h-23zm133 289h24v24h-24zm-89 0h24v24h-24zm267-89h24v24h-24zm-89 0h24v24h-24zm-89 0h24v24h-24zm-89 0h24v24h-24zm-89 0h24v24H66zm0 89 11.438-.062 3.61-.028 2.823-.008 2.904-.016C89 333 89 333 90 334a91 91 0 0 1 .098 5.129l-.008 2.822-.028 3.611L90 357H66zm178 45h24v23h-24zm-89 0h24v23h-24zm-89 0h24v23H66zm223-45h23v24h-23zm-89 0h23v24h-23zm-89 0h23v24h-23zm133-44h24v23h-24zm-89 0h24v23h-24zm-89 0h24v23H66zm312-45h23v24h-23zm-89 0h23v24h-23zm-89 0h23v24h-23zm-89 0h23v24h-23zm311-44h24v23h-24zm-89 0h24v23h-24zm-89 0h24v23h-24zm-44 178h23v23h-23zm-89 0h23v23h-23zm178-89h23v23h-23zm-89 0h23v23h-23zm-89 0h23v23h-23zm267-89h23v23h-23zm-89 0h23v23h-23zm-89 0h23v23h-23z"/></svg>