<svg xmlns="http://www.w3.org/2000/svg" width="512" height="512" fill="#147cd1"><path d="m255.5-.375 1.992.002C268.74-.331 279.233.684 290 4l2.08.633C306.805 9.283 320.435 16.758 332 27l2.922 2.488c21.937 19.02 35.547 46.478 38.626 75.28l.26 2.414L374 109l3.16 1.063C402.599 118.63 427.9 127.488 453 137l2.565.97q7.85 2.966 15.679 5.999a989 989 0 0 0 4.938 1.894c12.372 4.718 25.93 9.983 32.033 22.66 2.244 5.448 3.907 10.341 3.92 16.264l.013 2.928v3.208l.01 3.415q.015 5.685.019 11.37l.02 8.135c.02 8.148.03 16.296.039 24.444l.015 11.519a50063 50063 0 0 1 .046 50.733c.008 13.33.033 26.66.066 39.989q.049 20.539.054 41.078c.002 7.684.01 15.37.036 23.054q.034 9.819.02 19.639-.007 5.005.017 10.01c.018 3.627.01 7.253-.002 10.88l.033 3.16c-.102 11.714-4.317 22.02-12.333 30.589-11.013 10.302-23.106 12.363-37.669 12.353l-4.053.02c-3.649.017-7.297.022-10.946.024q-3.423.001-6.847.01-11.953.028-23.907.026c-7.419-.002-14.837.02-22.256.051q-9.572.038-19.144.036c-3.807 0-7.613.005-11.42.026q-5.364.029-10.73.005c-1.934-.003-3.867.014-5.8.03-10.66-.076-10.66-.076-15.416-4.519-1.913-3.077-2.003-4.858-1.937-8.5 1.114-4.162 2.657-5.78 5.937-8.5 2.577-1.289 4.44-1.14 7.328-1.158l3.425-.03 3.775-.017 3.961-.03q5.386-.04 10.772-.068c3.75-.022 7.5-.05 11.251-.076q10.657-.074 21.313-.138 12.13-.076 24.261-.16 24.957-.17 49.914-.323c-3.26-3.865-6.528-7.656-10.138-11.204l-2.284-2.255-2.406-2.361-5.11-5.059a3977 3977 0 0 0-8.005-7.893 2600 2600 0 0 1-7.76-7.673l-2.43-2.374-2.247-2.236-1.977-1.948c-4.413-5.364-3.934-11.026-3.918-17.659l-.015-3.254a2331 2331 0 0 1-.01-10.643l-.014-7.401q-.01-7.755-.002-15.512c.006-6.626-.01-13.25-.034-19.876-.015-5.095-.016-10.19-.013-15.285q0-3.664-.015-7.329c-.013-3.416-.006-6.83.006-10.247l-.023-3.056c.039-5.254.164-9.35 3.395-13.735 5.452-4.22 12.05-3.38 18.617-3.293l3.674.013c3.861.017 7.723.054 11.584.092q3.934.024 7.867.042 9.63.05 19.258.146a13141 13141 0 0 0-.184-44.177c-.04-6.838-.072-13.675-.087-20.513a3960 3960 0 0 0-.097-19.802q-.023-3.775-.024-7.55c-.002-3.529-.03-7.056-.062-10.585l.015-3.143c-.088-6.176-.876-11.13-4.561-16.23-2.643-2.138-2.643-2.138-5.883-3.477l-1.824-.842c-8.241-3.71-16.748-6.833-25.22-9.966a1790 1790 0 0 1-8.475-3.164c-22.75-8.5-45.695-16.474-68.598-24.551l-.01 2.75q-.121 33.113-.278 66.225-.076 16.012-.134 32.025-.05 13.956-.12 27.91-.04 7.392-.061 14.782-.02 6.954-.064 13.91-.014 2.553-.017 5.107-.008 3.485-.038 6.97l-.016 3.941c-.35 4.51-1.274 7.275-4.285 10.642-6.55 3.825-15.69 3.112-22.977 1.738-4.55-2.251-7.528-5.348-11-9-2.123-1.886-4.312-3.69-6.5-5.5q-1.658-1.404-3.312-2.812c-3.741-3.166-7.542-6.256-11.344-9.348-3.879-3.191-7.703-6.444-11.518-9.711-2.38-2.029-4.72-3.892-7.326-5.629-1.02 4.433-2.012 8.872-3 13.313l-.867 3.767-.82 3.72-.762 3.38c-1.563 10.835.051 21.659 1.3 32.45l.597 5.28q.638 5.658 1.286 11.313c.684 5.968 1.357 11.936 2.029 17.905q2.686 23.84 5.401 47.677 1.786 15.683 3.55 31.37.998 8.892 2.022 17.783c.423 3.69.837 7.381 1.25 11.073q.287 2.558.586 5.117c2.348 20.141 2.348 20.141-1.39 27.367-2.584 2.668-4.897 2.962-8.536 3.245q-3.276.048-6.552.002l-3.508.01q-3.666 0-7.333-.045c-3.74-.04-7.477-.02-11.218.005q-3.564-.01-7.129-.033l-3.387.021c-7.757-.14-7.757-.14-11.7-3.139-2.908-4.126-3.244-6.485-2.819-11.581 1.68-3.298 2.874-5.402 6.177-7.156 3.541-1.059 6.615-1.069 10.311-1.04l3.9.016 4.925.055q4.197.035 8.395.067l4.17.033L286 490l-.343-2.816c-3.974-32.713-7.625-65.461-11.252-98.214l-1.944-17.499a66077 66077 0 0 1-3.021-27.209q-.62-5.567-1.234-11.135l-.373-3.349-.335-3.037-.293-2.644C267 322 267 322 267 320h-22l-.652 6.048a50267 50267 0 0 1-6.283 57.961 24129 24129 0 0 0-3.523 32.526 18891 18891 0 0 1-3.33 30.727 7027 7027 0 0 0-1.797 16.627q-.841 7.875-1.71 15.748-.319 2.907-.625 5.816c-.28 2.662-.575 5.322-.872 7.982l-.237 2.334c-.649 5.608-1.878 10.736-5.596 15.168-3.76 1.683-7.333 1.72-11.375 1.063-3.57-2.126-5.56-4.124-7-8 .023-3.234.023-3.234.375-6.75l.336-3.547L203 491l-2.572.011q-31.038.134-62.077.196c-10.007.02-20.013.049-30.02.095q-13.09.06-26.18.074c-4.616.006-9.232.018-13.849.047q-6.53.039-13.063.03-2.383 0-4.768.024C35.685 491.614 23.284 489.182 12 479 4.988 471.635-.112 462.57-.134 452.234l-.014-2.913v-3.193l-.01-3.397q-.015-5.657-.019-11.315l-.02-8.096c-.02-8.11-.03-16.22-.039-24.329l-.015-11.467a49623 49623 0 0 1-.044-48.032l-.002-2.484c-.008-13.266-.033-26.533-.066-39.8q-.049-20.447-.054-40.894c-.002-7.65-.01-15.299-.036-22.948q-.034-9.775-.02-19.551.007-4.982-.017-9.964c-.156-31.694-.156-31.694 9.468-42.88 6.996-6.82 15.418-10.807 24.335-14.518l3.536-1.505q4.636-1.968 9.282-3.913c3.059-1.285 6.112-2.582 9.166-3.879q7.241-3.07 14.496-6.111a905 905 0 0 0 12.743-5.46c1.799-.79 3.6-1.572 5.401-2.355q3.346-1.455 6.678-2.942c5.354-2.317 9.53-4.077 15.385-3.288 3.395 1.73 5.42 3.068 7.438 6.313.759 3.626.522 6.103-.438 9.687-3.332 3.867-6.496 6.024-11.129 8.098l-1.916.864c-12.407 5.538-24.976 10.727-37.5 15.992-7.84 3.3-15.66 6.64-23.455 10.046l-2.67 1.154a318 318 0 0 0-6.771 3.069l-3.62 1.652c-3.886 2.81-5.397 5.62-6.939 10.125-.556 3.798-.564 7.54-.546 11.373l-.031 3.373c-.03 3.658-.031 7.315-.032 10.973a5697 5697 0 0 1-.05 7.633c-.04 6-.061 11.998-.074 17.998a5756 5756 0 0 1-.095 20.503C22.09 269.902 22.036 283.951 22 298l2.048-.02c7.04-.067 14.08-.112 21.12-.145q3.941-.022 7.88-.061c3.779-.037 7.557-.054 11.335-.067 1.172-.015 2.344-.03 3.552-.047 10.747-.002 10.747-.002 15.065 3.34 3.808 5.173 3.425 10.615 3.388 16.775l.016 3.255c.013 3.542.005 7.084-.006 10.626q.003 3.7.01 7.397.005 7.748-.017 15.494c-.017 6.618-.007 13.236.01 19.853.012 5.09.008 10.182 0 15.272q-.004 3.66.008 7.32c.008 3.411-.004 6.822-.02 10.233l.018 3.05c-.073 7.99-1.93 12.646-7.695 18.338l-2.608 2.597-2.803 2.747-2.88 2.86a2449 2449 0 0 1-7.56 7.47c-4.053 3.994-8.094 8-12.134 12.008q-2.12 2.098-4.248 4.19l-2.58 2.55-2.287 2.253c-1.726 1.441-1.726 1.441-1.612 2.712l166 1 1-17c.46-4.725.946-9.433 1.49-14.148l.675-5.993q.357-3.162.719-6.322.756-6.634 1.5-13.27a33135 33135 0 0 1 3.72-32.922q1.459-12.84 2.901-25.682.739-6.58 1.493-13.16c.385-3.377.762-6.754 1.14-10.131l.421-3.625c1.066-9.622 1.623-18.87-.371-28.384l-.404-1.97c-.418-2.03-.85-4.055-1.284-6.08q-.436-2.092-.867-4.186Q217.082 281.061 216 276c-5.53 3.976-10.58 8.233-15.5 12.938l-3.95 3.726-1.872 1.767c-2.543 2.378-5.159 4.666-7.8 6.936-2.285 1.987-4.515 4.03-6.753 6.07l-2.594 2.274c-2.541 2.226-2.541 2.226-4.687 4.64-5.594 5.575-10.467 6.39-18.094 6.462l-2.619.035c-4.233-.132-7.275-.51-10.678-3.149-4.08-4.49-3.599-8.802-3.587-14.658l-.007-2.45q-.007-4.067-.004-8.135l-.01-5.83q-.013-7.929-.012-15.858l-.006-9.922q-.014-17.332-.012-34.663-.001-16.112-.026-32.224-.019-13.858-.018-27.716.002-8.264-.013-16.529-.014-7.792-.003-15.584.003-2.841-.007-5.682c-.114-38.01 10.14-69.774 36.936-97.194C196.656 10.326 225.328-.417 255.5-.375m-70.625 53.563C165.491 75.278 159.281 101.044 161 130c2.246 18.656 10.96 35.825 23 50l2.344 2.957c2.709 3.244 5.76 5.836 9.094 8.418l1.847 1.432c19.876 15.077 44.855 22.973 69.836 19.69C286.685 209.568 302.454 202.27 318 190l1.926-1.418c17.033-13.212 26.151-34.93 30.683-55.324 3.441-28.695-3.076-54.224-20.921-76.946C313.702 37.513 291.547 25.178 267 22c-31.652-1.984-60.032 8.007-82.125 31.188M160 186v108c5.022-3.766 8.99-6.849 13.23-11.223 2.423-2.432 5.004-4.653 7.602-6.894A489 489 0 0 0 188 269.5a829 829 0 0 1 10.938-9.687A718 718 0 0 0 206 253.5a825 825 0 0 1 10.906-9.66c4.067-3.574 8.077-7.21 12.094-10.84-2.363-2.363-4.567-2.898-7.712-3.85-16.033-4.857-29.449-12.454-42.288-23.15l-1.569-1.272c-5.615-4.582-10.148-9.808-14.306-15.728L161 186zm191 0a127 127 0 0 0-3.25 4.125c-.96 1.241-.96 1.241-1.937 2.508A676 676 0 0 0 341.75 198c-17.64 20.879-46.317 32.377-72.75 36a524 524 0 0 1-4.687-.062c-6.552.564-11.443 7.182-15.816 11.578-1.97 1.953-4.029 3.79-6.122 5.609l-1.79 1.57C239 254 239 254 236 256c.548 7.945 1.992 15.671 3.584 23.462q.629 3.092 1.244 6.186c1.053 6.35 1.053 6.35 3.172 12.352h24c1.775-6.78 3.352-13.555 4.684-20.434l.434-2.218c.593-3.033 1.185-6.066 1.754-9.104.424-2.25.866-4.495 1.312-6.74l.373-2.061c.897-4.425 2.318-7.19 5.443-10.443 3.286-1.643 6.461-1.63 10-1 3.031 1.564 5.443 3.761 8 6l4.636 3.9a1091 1091 0 0 1 5.071 4.307c2.9 2.47 5.837 4.89 8.793 7.293a742 742 0 0 1 12 10c4.173 3.538 8.352 7.07 12.563 10.563l2.597 2.16c2.496 2.009 2.496 2.009 6.34 3.777V186zM22 320v132l7-6a265 265 0 0 1 4.008-3.132c22.24-16.935 22.24-16.935 33.046-41.515.931-12.82-.223-25.659-2.054-38.353l-2.231-.06c-3.34-.095-6.68-.205-10.019-.315-1.159-.03-2.318-.062-3.512-.094l-3.379-.117-3.11-.095c-2.779-.322-4.427-.785-6.749-2.319-2.814-4.222-2.683-8.04-2-13 1.885-2.576 3.193-3.597 6-5 1.885-.153 3.774-.25 5.664-.316l3.398-.127 3.563-.12 3.586-.13q4.395-.159 8.789-.307v-21zm426 0c-1.12 14.337-2.085 28.579-2.562 42.938l-.106 3.168c-1.25 34.114-1.25 34.114 14.477 63.118C468.428 437.94 478.293 445.971 489 452h1v-89l-24-1c-5-3-5-3-6.375-5.25-.823-3.62-.54-6.157.375-9.75 1.891-2.318 3.338-3.67 6-5 1.812-.153 3.628-.25 5.445-.316l3.262-.127 3.418-.12 3.441-.13q4.217-.159 8.434-.307v-21z"/><path d="m303 58 1.953 1.39c13.715 10.64 22.29 28.323 25.735 44.923 1.378 16.271 1.378 16.271-2.688 21.687-4.226 2.817-8.036 2.8-13 2-2.824-2.19-4.415-3.83-6-7a917 917 0 0 1-.748-6.12c-1.778-14.146-6.738-27.442-17.725-37.04C276.312 67.398 263.262 64.723 246 66c-13.705 2.579-25.206 10.759-33.074 22.035-5.518 8.495-7.65 16.367-8.851 26.328-.575 4.534-1.183 7.927-4.075 11.637-4.226 2.817-8.036 2.8-13 2-2.824-2.19-4.415-3.83-6-7-1.55-19.43 4.949-36.967 17-52l2.375-3.187C227.574 36.67 271.659 34.819 303 58"/></svg>