<svg xmlns="http://www.w3.org/2000/svg" xml:space="preserve" width="1.09363in" height="1.09647in" version="1.1" style="shape-rendering:geometricPrecision; text-rendering:geometricPrecision; image-rendering:optimizeQuality; fill-rule:evenodd; clip-rule:evenodd"
viewBox="0 0 183.03 183.5"
 xmlns:xlink="http://www.w3.org/1999/xlink"
 xmlns:xodm="http://www.corel.com/coreldraw/odm/2003">
 <defs>
  <style type="text/css">
   <![CDATA[
    .fil0 {fill:#147CD1;fill-rule:nonzero}
   ]]>
  </style>
 </defs>
 <g id="Layer_x0020_1">
  <metadata id="CorelCorpID_0Corel-Layer"/>
  <g id="_2064616461744">
   <path class="fil0" d="M127.39 19.22c1.11,0.67 1.96,1.58 2.86,2.5 0.38,0.38 0.77,0.76 1.15,1.14 0.99,0.98 1.98,1.97 2.96,2.97 0.5,0.51 1.01,1.01 1.52,1.51 1.07,1.09 1.63,1.87 1.71,3.39 -0.05,1.77 -0.69,2.62 -1.9,3.86 -1.18,1.06 -2.41,2.06 -3.65,3.05 -1.18,0.97 -2.29,1.99 -3.41,3.03 -1.69,1.59 -3.44,3.07 -5.25,4.52 -1.15,0.96 -2.24,1.96 -3.33,2.98 -1.69,1.59 -3.44,3.07 -5.25,4.52 -1.15,0.96 -2.24,1.96 -3.33,2.98 -1.45,1.35 -2.91,2.69 -4.42,3.98 -0.29,0.25 -0.59,0.5 -0.89,0.76 -1.74,1.15 -3.76,1.43 -5.8,1.71 -0.45,0.06 -0.9,0.13 -1.37,0.2 -0.48,0.07 -0.97,0.13 -1.45,0.2 -0.5,0.07 -1,0.14 -1.5,0.21 -1.31,0.19 -2.62,0.37 -3.94,0.55 -1.34,0.19 -2.68,0.38 -4.03,0.57 -2.63,0.37 -5.26,0.74 -7.88,1.11 -0.41,2.72 -0.82,5.45 -1.22,8.17 -0.14,0.93 -0.28,1.85 -0.42,2.78 -0.2,1.33 -0.4,2.66 -0.6,3.99 -0.09,0.62 -0.09,0.62 -0.19,1.26 -0.06,0.39 -0.11,0.77 -0.17,1.17 -0.05,0.34 -0.1,0.68 -0.15,1.03 -0.14,0.99 -0.14,0.99 -0.11,2.34 0.25,0.12 0.49,0.24 0.75,0.37 2.33,1.15 4.66,2.3 6.99,3.46 1.2,0.59 2.39,1.19 3.59,1.78 1.16,0.57 2.31,1.14 3.47,1.72 0.44,0.22 0.88,0.43 1.32,0.65 0.62,0.3 1.24,0.61 1.86,0.92 0.53,0.26 0.53,0.26 1.07,0.53 1.54,0.94 2.75,2.07 3.49,3.73 0.17,0.38 0.17,0.38 0.35,0.77 0.12,0.27 0.24,0.55 0.36,0.83 0.2,0.44 0.2,0.44 0.4,0.88 0.43,0.96 0.85,1.92 1.27,2.88 0.3,0.67 0.6,1.34 0.9,2.01 0.94,2.1 1.86,4.2 2.79,6.3 0.15,0.34 0.3,0.69 0.46,1.04 1.29,2.92 2.57,5.84 3.85,8.76 0.13,0.29 0.25,0.58 0.38,0.88 0.24,0.56 0.49,1.12 0.73,1.68 0.88,2.02 1.81,4 2.78,5.98 0.59,1.48 0.81,2.99 0.39,4.55 -1.48,2.12 -3.38,2.93 -5.65,4.04 -0.38,0.2 -0.76,0.39 -1.16,0.6 -3.63,1.81 -3.63,1.81 -5.7,1.44 -1.61,-0.7 -2.69,-1.93 -3.84,-3.22 -0.19,-0.21 -0.37,-0.41 -0.57,-0.62 -1.43,-1.58 -2.78,-3.22 -4.12,-4.88 -0.77,-0.93 -1.56,-1.83 -2.38,-2.72 -1.4,-1.54 -2.71,-3.13 -4.02,-4.75 -0.78,-0.94 -1.59,-1.85 -2.41,-2.76 -1.95,-2.15 -3.83,-4.37 -5.56,-6.7 -1.01,-1.17 -2.11,-1.28 -3.56,-1.52 -0.3,-0.09 -0.59,-0.18 -0.9,-0.27 -1.14,-0.26 -1.88,-0.32 -3.04,-0.09 -1.54,1.09 -2.81,2.36 -4.1,3.73 -0.75,0.77 -1.55,1.48 -2.35,2.19 -1.31,1.18 -2.61,2.36 -3.91,3.55 -1.59,1.46 -3.19,2.91 -4.8,4.36 -1.03,0.93 -2.04,1.86 -3.06,2.79 -1.59,1.46 -3.19,2.91 -4.8,4.36 -1.03,0.93 -2.04,1.86 -3.06,2.79 -1.59,1.46 -3.19,2.91 -4.8,4.36 -1.03,0.93 -2.04,1.86 -3.06,2.79 -0.71,0.66 -1.43,1.31 -2.15,1.97 -0.31,0.29 -0.62,0.57 -0.94,0.86 -0.87,0.79 -1.75,1.57 -2.63,2.35 -0.45,0.41 -0.45,0.41 -0.92,0.83 -2.54,2.2 -2.54,2.2 -4.18,2.29 -3.05,-0.61 -5.01,-3.1 -7.13,-5.23 -0.32,-0.32 -0.64,-0.63 -0.98,-0.96 -0.31,-0.31 -0.62,-0.62 -0.94,-0.94 -0.42,-0.42 -0.42,-0.42 -0.85,-0.85 -1.15,-1.36 -1.83,-2.47 -1.79,-4.27 0.68,-2.53 2.39,-4.12 4.12,-6 0.86,-0.96 1.67,-1.94 2.48,-2.93 1.29,-1.6 2.64,-3.12 4.02,-4.64 0.83,-0.94 1.62,-1.9 2.41,-2.87 1.29,-1.6 2.64,-3.12 4.02,-4.64 0.83,-0.93 1.61,-1.88 2.39,-2.85 1.15,-1.42 2.33,-2.81 3.55,-4.18 0.29,-0.32 0.58,-0.65 0.88,-0.99 1.01,-0.99 1.65,-1.1 3.05,-1.2 1.38,0.1 2,0.32 3.08,1.16 0.88,1.31 0.98,2.1 0.94,3.65 -0.41,1.84 -1.67,3.03 -2.92,4.37 -0.75,0.81 -1.47,1.65 -2.19,2.49 -0.59,0.69 -1.19,1.38 -1.79,2.06 -1.12,1.29 -2.24,2.59 -3.36,3.89 -0.18,0.2 -0.35,0.41 -0.53,0.62 -0.35,0.41 -0.71,0.83 -1.06,1.24 -0.89,1.04 -1.78,2.08 -2.68,3.12 -0.35,0.41 -0.7,0.82 -1.06,1.23 -1.79,2.09 -3.59,4.18 -5.38,6.28 0.5,1.24 0.94,1.6 2.15,2.14 0.22,-0.21 0.22,-0.21 0.45,-0.42 4.9,-4.6 4.9,-4.6 7.03,-6.43 1.23,-1.08 2.43,-2.2 3.63,-3.32 1.46,-1.36 2.94,-2.7 4.43,-4.03 1.02,-0.92 2.04,-1.85 3.05,-2.78 1.31,-1.2 2.61,-2.39 3.93,-3.58 1.3,-1.17 2.6,-2.35 3.89,-3.53 0.18,-0.16 0.36,-0.32 0.54,-0.49 0.95,-0.87 1.9,-1.74 2.84,-2.62 0.19,-0.18 0.39,-0.36 0.59,-0.54 0.37,-0.34 0.74,-0.69 1.11,-1.03 0.8,-0.74 1.57,-1.37 2.47,-1.98 -1.41,-0.36 -2.82,-0.71 -4.24,-1.02 -5.66,-1.3 -10.59,-3.54 -13.82,-8.65 -2.86,-5.25 -2.78,-10.47 -1.2,-16.12 0.57,-1.93 1.19,-3.84 1.83,-5.74 0.16,-0.46 0.31,-0.93 0.46,-1.39 1.58,-4.77 1.58,-4.77 3.37,-6.39 1.39,-0.62 2.63,-0.43 4.04,0.02 1.19,0.86 1.58,1.44 2.03,2.84 -0.15,1.95 -0.55,3.65 -1.16,5.51 -0.08,0.24 -0.16,0.48 -0.24,0.72 -0.25,0.75 -0.5,1.5 -0.75,2.25 -0.25,0.76 -0.5,1.51 -0.75,2.27 -0.22,0.68 -0.45,1.37 -0.68,2.05 -0.96,3.01 -1.35,6.19 -0.01,9.16 1.78,3.07 4.58,4.22 7.87,5.21 1.55,0.34 3.1,0.6 4.66,0.85 0.76,0.12 1.52,0.24 2.27,0.37 1.6,0.26 3.21,0.52 4.82,0.78 1.87,0.3 3.74,0.6 5.61,0.91 0.74,0.12 1.49,0.24 2.23,0.35 0.45,0.07 0.9,0.15 1.37,0.22 0.4,0.06 0.79,0.13 1.2,0.19 3.88,0.97 6.46,5.28 8.86,8.25 0.78,0.94 1.58,1.85 2.4,2.75 1.4,1.54 2.71,3.13 4.02,4.75 1.03,1.25 2.12,2.44 3.21,3.63 1.16,1.3 2.25,2.65 3.34,4.01 0.66,0.83 0.66,0.83 1.32,1.44 0.44,0.47 0.44,0.47 0.44,1.18 0.47,-0.12 0.94,-0.24 1.43,-0.36 -1.34,-3.71 -2.94,-7.28 -4.58,-10.87 -0.61,-1.33 -1.21,-2.65 -1.81,-3.98 -0.3,-0.66 -0.6,-1.33 -0.9,-1.99 -1.29,-2.85 -2.58,-5.69 -3.85,-8.55 -0.27,-0.59 -0.27,-0.59 -0.54,-1.2 -0.16,-0.36 -0.32,-0.71 -0.48,-1.08 -0.14,-0.31 -0.27,-0.61 -0.41,-0.92 -0.29,-0.73 -0.29,-0.73 -0.29,-1.44 -0.31,-0.1 -0.62,-0.2 -0.94,-0.3 -1.14,-0.4 -2.18,-0.86 -3.26,-1.39 -0.4,-0.19 -0.79,-0.39 -1.2,-0.59 -0.42,-0.21 -0.84,-0.42 -1.28,-0.64 -0.22,-0.11 -0.43,-0.21 -0.66,-0.33 -1.15,-0.57 -2.29,-1.14 -3.44,-1.71 -1.18,-0.59 -2.36,-1.17 -3.55,-1.75 -0.91,-0.45 -1.83,-0.9 -2.74,-1.36 -0.65,-0.32 -1.29,-0.64 -1.94,-0.96 -0.39,-0.2 -0.79,-0.4 -1.19,-0.6 -0.52,-0.26 -0.52,-0.26 -1.05,-0.52 -1.07,-0.69 -1.67,-1.3 -2.35,-2.38 -0.57,-3.39 0.25,-7.06 0.74,-10.44 0.08,-0.54 0.16,-1.08 0.23,-1.63 0.16,-1.13 0.33,-2.25 0.49,-3.38 0.21,-1.44 0.42,-2.88 0.62,-4.32 0.16,-1.12 0.32,-2.23 0.48,-3.35 0.08,-0.53 0.15,-1.06 0.23,-1.59 0.1,-0.74 0.21,-1.48 0.33,-2.22 0.06,-0.42 0.12,-0.84 0.19,-1.27 0.34,-1.45 0.9,-2.48 1.96,-3.52 1.09,-0.62 2.06,-0.77 3.3,-0.98 0.26,-0.04 0.52,-0.09 0.79,-0.13 2.54,-0.41 5.09,-0.72 7.64,-1.05 1.32,-0.17 2.65,-0.34 3.97,-0.52 0.9,-0.12 1.81,-0.23 2.72,-0.34 1.33,-0.16 2.65,-0.33 3.97,-0.51 0.4,-0.04 0.8,-0.09 1.21,-0.13 2.98,-0.42 4.71,-1.54 6.88,-3.59 0.29,-0.25 0.29,-0.25 0.58,-0.51 0.46,-0.41 0.91,-0.83 1.37,-1.25 1.27,-1.17 2.56,-2.29 3.91,-3.37 1.71,-1.38 3.32,-2.85 4.93,-4.36 1.2,-1.11 2.42,-2.17 3.7,-3.2 2.96,-2.38 5.73,-4.99 8.4,-7.69 -0.71,-0.71 -0.71,-0.71 -1.43,-1.43 -1.83,0.58 -3.22,1.69 -4.74,2.82 -0.58,0.42 -1.16,0.85 -1.74,1.27 -0.29,0.21 -0.59,0.43 -0.89,0.65 -1.29,0.94 -2.6,1.86 -3.9,2.77 -2.39,1.68 -4.76,3.38 -7.12,5.11 -0.49,0.36 -0.99,0.71 -1.49,1.05 -0.88,0.62 -0.88,0.62 -1.69,1.37 -3.24,2.64 -6.22,2.44 -10.23,2.28 -1.57,-0.06 -3.15,-0.09 -4.72,-0.11 -1.27,-0.02 -2.54,-0.05 -3.82,-0.08 -14.56,-0.29 -28.28,0.5 -42.46,3.88 -0.35,0.08 -0.7,0.16 -1.05,0.25 -2.29,0.54 -4.58,1.1 -6.86,1.69 -0.29,0.07 -0.58,0.15 -0.88,0.22 -0.81,0.21 -1.61,0.43 -2.42,0.65 -0.45,0.12 -0.9,0.24 -1.36,0.37 -1.33,0.55 -2.02,1.2 -2.96,2.27 -0.25,0.27 -0.51,0.54 -0.77,0.82 -1.68,1.86 -3.29,3.77 -4.87,5.72 -1.03,1.25 -2.12,2.44 -3.22,3.64 -1.11,1.25 -2.16,2.56 -3.21,3.86 -0.81,0.98 -1.65,1.92 -2.51,2.85 -1.22,1.34 -2.29,2.7 -3.31,4.2 0.47,0.47 0.94,0.94 1.43,1.43 1.39,-0.57 2.26,-1.46 3.31,-2.52 0.18,-0.18 0.37,-0.37 0.56,-0.56 0.6,-0.61 1.21,-1.21 1.81,-1.82 0.42,-0.42 0.84,-0.84 1.26,-1.27 1.1,-1.11 2.21,-2.22 3.31,-3.34 1.77,-1.78 3.53,-3.56 5.3,-5.34 0.62,-0.62 1.23,-1.24 1.85,-1.87 0.38,-0.38 0.76,-0.76 1.14,-1.14 0.33,-0.33 0.66,-0.67 1,-1.01 1.52,-1.45 2.37,-1.61 4.43,-1.63 0.26,-0 0.51,-0.01 0.77,-0.01 0.84,-0.01 1.69,-0.01 2.53,-0.01 0.59,-0 1.17,-0.01 1.76,-0.01 1.23,-0.01 2.46,-0.01 3.7,-0.01 1.58,-0 3.15,-0.02 4.73,-0.03 1.21,-0.01 2.43,-0.01 3.64,-0.01 0.58,-0 1.16,-0.01 1.74,-0.01 0.81,-0.01 1.63,-0.01 2.44,-0 0.46,-0 0.93,-0 1.4,-0.01 1.52,0.28 2.04,0.83 3,2.01 0.56,1.11 0.46,1.99 0.36,3.22 -0.62,1.21 -1.04,1.94 -2.26,2.58 -1.1,0.32 -1.73,0.26 -2.85,0.05 -6.84,-1.14 -15.71,-2.47 -21.86,1.56 -6.58,4.73 -12.09,11.26 -17.27,17.44 -0.19,0.22 -0.38,0.45 -0.57,0.68 -0.35,0.41 -0.69,0.83 -1.03,1.25 -0.95,1.14 -1.71,1.8 -3.15,2.18 -2.84,0.05 -4.27,-1.81 -6.19,-3.66 -0.85,-0.84 -1.7,-1.68 -2.55,-2.53 -0.29,-0.29 -0.58,-0.58 -0.88,-0.88 -0.41,-0.42 -0.41,-0.42 -0.84,-0.84 -0.25,-0.25 -0.5,-0.5 -0.76,-0.76 -1.1,-1.18 -1.07,-2.19 -1.04,-3.75 0.26,-2.27 2.4,-3.96 3.87,-5.57 0.86,-0.96 1.67,-1.94 2.48,-2.93 1.29,-1.6 2.64,-3.12 4.02,-4.64 0.83,-0.94 1.63,-1.9 2.41,-2.87 1.29,-1.6 2.64,-3.12 4.02,-4.64 0.83,-0.93 1.61,-1.88 2.39,-2.85 0.54,-0.66 1.09,-1.33 1.63,-1.99 0.29,-0.36 0.58,-0.72 0.87,-1.09 0.3,-0.35 0.59,-0.7 0.89,-1.06 0.26,-0.32 0.52,-0.63 0.79,-0.96 0.95,-0.77 1.36,-0.99 2.49,-1.31 0.32,-0.09 0.64,-0.18 0.97,-0.28 0.37,-0.1 0.75,-0.21 1.13,-0.31 0.43,-0.12 0.86,-0.24 1.3,-0.37 4.19,-1.17 8.41,-2.23 12.64,-3.25 0.35,-0.08 0.69,-0.17 1.05,-0.25 13.84,-3.33 27.24,-3.96 41.43,-3.5 1.57,0.05 3.14,0.08 4.72,0.11 1.07,0.03 2.14,0.09 3.21,0.15 5,0.18 7.94,-1.3 11.78,-4.44 0.96,-0.78 1.95,-1.52 2.95,-2.26 0.69,-0.51 1.37,-1.03 2.05,-1.55 1.86,-1.4 3.79,-2.69 5.72,-3.99 2.2,-1.49 4.34,-3.06 6.44,-4.68 1.95,-1.5 3.55,-2.65 6.1,-2.07z"/>
   <path class="fil0" d="M126.73 133.57c0.47,-0 0.94,-0 1.43,-0.01 0.53,-0 1.05,-0 1.57,-0 0.55,-0 1.1,-0 1.65,-0.01 1.5,-0 2.99,-0.01 4.49,-0.01 0.94,-0 1.87,-0 2.81,-0 2.92,-0 5.85,-0.01 8.77,-0.01 3.38,-0 6.76,-0.01 10.13,-0.02 2.61,-0.01 5.22,-0.01 7.83,-0.01 1.56,-0 3.12,-0 4.68,-0.01 1.47,-0.01 2.93,-0.01 4.4,-0 0.54,0 1.08,-0 1.61,-0 0.74,-0 1.47,-0 2.21,0 0.62,-0 0.62,-0 1.25,-0 1.22,0.15 1.9,0.47 2.88,1.21 0.45,0.91 0.41,1.54 0.41,2.56 0,0.39 0.01,0.78 0.01,1.18 0,0.64 0,0.64 0,1.3 0,0.68 0,0.68 0.01,1.37 0.01,1.5 0.02,3 0.02,4.49 0,0.52 0,1.03 0.01,1.55 0.01,2.14 0.01,4.29 0.02,6.43 0.01,3.07 0.02,6.15 0.04,9.22 0.01,2.16 0.02,4.32 0.02,6.48 0,1.29 0.01,2.58 0.02,3.87 0.01,1.44 0.01,2.88 0.01,4.32 0.01,0.43 0.01,0.86 0.02,1.3 -0.02,2.89 -0.02,2.89 -1.08,4.1 -1.44,0.7 -2.59,0.77 -4.15,0.45 -1.09,-0.57 -1.96,-1.26 -2.38,-2.46 -0.14,-0.81 -0.17,-1.57 -0.17,-2.39 -0,-0.49 -0,-0.49 -0,-0.99 0,-0.36 0,-0.71 0,-1.08 0,-0.38 0,-0.75 -0,-1.14 0,-1.25 0,-2.49 0.01,-3.74 0,-0.86 0,-1.73 0,-2.59 0,-2.27 0,-4.55 0.01,-6.82 0,-2.32 0.01,-4.64 0.01,-6.96 0,-4.55 0.01,-9.1 0.02,-13.66 -0.26,0 -0.52,0 -0.79,0.01 -6.32,0.04 -12.64,0.07 -18.96,0.09 -3.06,0.01 -6.11,0.02 -9.17,0.04 -2.66,0.02 -5.33,0.03 -7.99,0.03 -1.41,0 -2.82,0.01 -4.23,0.02 -1.33,0.01 -2.66,0.02 -3.98,0.01 -0.72,0 -1.44,0.01 -2.16,0.02 -3.52,-0.02 -3.52,-0.02 -4.85,-1.08 -1.09,-1.27 -1.29,-2.06 -1.27,-3.75 0.23,-1.33 0.96,-1.97 1.92,-2.9 0.99,-0.5 1.81,-0.41 2.92,-0.41z"/>
   <path class="fil0" d="M73.13 148.94c0.23,-0 0.46,-0 0.7,-0 0.78,-0 1.56,-0.01 2.34,-0.01 0.56,-0 1.11,-0.01 1.67,-0.01 1.83,-0.01 3.67,-0.02 5.5,-0.02 0.63,-0 1.26,-0 1.89,-0.01 2.62,-0.01 5.24,-0.01 7.87,-0.02 3.76,-0.01 7.52,-0.02 11.28,-0.04 2.64,-0.01 5.29,-0.02 7.93,-0.02 1.58,-0 3.16,-0.01 4.74,-0.02 1.49,-0.01 2.97,-0.01 4.46,-0.01 0.54,0 1.09,-0 1.64,-0.01 0.75,-0.01 1.49,-0.01 2.23,0 0.42,-0 0.83,-0 1.26,-0 1.44,0.29 1.97,0.9 2.89,2.01 0.55,1.1 0.41,2.25 0.42,3.46 0,0.28 0,0.57 0.01,0.86 0.01,0.94 0.01,1.88 0.01,2.82 0,0.65 0,1.3 0.01,1.96 0,1.37 0.01,2.74 0.01,4.1 0,1.75 0.01,3.51 0.02,5.26 0.01,1.35 0.01,2.69 0.01,4.04 0,0.65 0,1.29 0.01,1.94 0.01,0.9 0.01,1.81 0,2.71 0,0.27 0.01,0.53 0.01,0.81 -0.01,1.59 -0.22,2.6 -1.21,3.86 -1.51,1.01 -2.87,1 -4.65,0.72 -1.01,-0.78 -1.58,-1.37 -2.14,-2.5 -0.03,-0.76 -0.04,-1.52 -0.04,-2.28 0,-0.23 0,-0.47 0,-0.71 0,-0.77 0,-1.55 0.01,-2.32 0,-0.54 0,-1.07 0,-1.61 0,-1.41 0,-2.82 0.01,-4.24 0,-1.44 0.01,-2.88 0.01,-4.32 0,-2.83 0.01,-5.65 0.02,-8.48 -0.38,0 -0.38,0 -0.78,0 -6.24,0.02 -12.47,0.03 -18.71,0.03 -3.02,0 -6.03,0.01 -9.05,0.02 -2.63,0.01 -5.26,0.01 -7.89,0.01 -1.39,0 -2.78,0 -4.18,0.01 -1.31,0.01 -2.62,0.01 -3.93,0.01 -0.71,0 -1.42,0 -2.13,0.01 -0.42,-0 -0.85,-0 -1.28,-0 -0.37,0 -0.73,0 -1.11,0 -1.51,-0.13 -2.49,-0.53 -3.62,-1.54 -0.83,-1.44 -0.9,-2.64 -0.6,-4.27 1.25,-2 2.11,-2.19 4.38,-2.2z"/>
   <path class="fil0" d="M20.67 163.88c0.46,-0 0.93,-0.01 1.4,-0.01 0.51,0 1.02,0 1.53,0.01 0.54,-0 1.08,-0 1.62,-0.01 1.46,-0.01 2.92,-0 4.38,0 1.53,0 3.06,0 4.59,-0 2.57,-0 5.14,0 7.71,0.01 2.97,0.01 5.94,0 8.91,-0 2.55,-0.01 5.1,-0.01 7.66,-0 1.52,0 3.05,0 4.57,-0 1.43,-0 2.86,-0 4.3,0.01 0.53,0 1.05,0 1.57,-0 0.72,-0 1.44,0 2.15,0.01 0.4,0 0.8,0 1.22,0 1.29,0.16 2.15,0.53 3.26,1.21 1.14,1.64 1.23,3.17 1.2,5.11 0,0.42 0,0.42 0,0.84 -0,0.59 -0,1.17 -0.01,1.76 -0.01,0.89 -0.01,1.79 -0,2.68 -0,0.57 -0,1.14 -0.01,1.71 0,0.27 0,0.53 0,0.81 -0.03,1.94 -0.26,3.26 -1.56,4.72 -1.44,0.83 -2.64,0.9 -4.27,0.6 -1.03,-0.64 -1.61,-1.07 -2.15,-2.15 0,-3.07 0,-6.13 0,-9.3 -15.1,0 -30.2,0 -45.76,0 0,3.07 0,6.13 0,9.3 -1.66,2.08 -1.66,2.08 -2.84,2.24 -1.51,0.07 -2.56,0.06 -3.77,-0.9 -1.47,-1.62 -1.31,-3.18 -1.32,-5.29 -0,-0.28 -0,-0.56 -0.01,-0.84 -0,-0.59 -0.01,-1.18 -0.01,-1.77 -0,-0.9 -0.01,-1.79 -0.03,-2.69 -0,-0.57 -0,-1.15 -0.01,-1.72 -0.01,-0.4 -0.01,-0.4 -0.01,-0.81 0.01,-1.71 0.22,-2.9 1.2,-4.31 1.54,-0.93 2.69,-1.21 4.48,-1.21z"/>
   <path class="fil0" d="M80.55 2.05c3.69,2.3 5.91,5.5 7.15,9.65 0.88,5.18 -0.1,9.37 -3.07,13.7 -1.53,1.9 -3.35,3.08 -5.51,4.17 -0.23,0.12 -0.45,0.24 -0.69,0.36 -3.23,1.44 -7.43,1.5 -10.75,0.36 -4.65,-1.97 -7.74,-4.57 -9.81,-9.27 -1.17,-3.55 -1.27,-8.39 0.42,-11.78 0.15,-0.25 0.3,-0.5 0.45,-0.76 0.15,-0.27 0.3,-0.55 0.46,-0.83 1.84,-3.03 4.45,-5.39 7.76,-6.68 0.31,-0.13 0.63,-0.25 0.96,-0.38 4.16,-1.16 8.88,-0.61 12.63,1.46zm-13.72 8.74c-1.56,2.01 -1.93,3.76 -1.65,6.28 0.77,2.43 2.19,3.96 4.29,5.36 2.12,0.71 4.52,0.72 6.57,-0.22 1.93,-1.12 3.09,-2.66 3.8,-4.78 0.25,-2.22 0.23,-4.19 -1.07,-6.08 -1.63,-1.8 -2.95,-3.02 -5.39,-3.3 -2.76,-0.09 -4.68,0.68 -6.54,2.74z"/>
   <path class="fil0" d="M148.84 118.25c2.6,0 5.19,0 7.87,0 0,2.6 0,5.19 0,7.87 -2.6,0 -5.19,0 -7.87,0 0,-2.6 0,-5.19 0,-7.87z"/>
   <path class="fil0" d="M148.84 103.23c2.6,0 5.19,0 7.87,0 0,2.6 0,5.19 0,7.87 -2.6,0 -5.19,0 -7.87,0 0,-2.6 0,-5.19 0,-7.87z"/>
   <path class="fil0" d="M148.84 87.86c2.6,0 5.19,0 7.87,0 0,2.6 0,5.19 0,7.87 -2.6,0 -5.19,0 -7.87,0 0,-2.6 0,-5.19 0,-7.87z"/>
  </g>
 </g>
</svg>
