<svg xmlns="http://www.w3.org/2000/svg" width="512" height="512" fill="#147cd1"><path d="M249.121-.631q3.525-.008 7.05-.022c6.36-.018 12.719-.005 19.078.014 5.99.015 11.979.01 17.968.004 11.867-.008 23.735.008 35.603.038q17.246.044 34.49.02c12.543-.016 25.086-.02 37.629-.003 6.63.01 13.262.014 19.893.004q9.351-.01 18.702.032 3.426.01 6.852 0c3.125-.009 6.25.007 9.374.03l2.719-.026c9.066.118 17.037 3.103 23.697 9.345 6.037 7.264 8.936 15.553 8.964 24.892l.018 3.445.003 3.751.015 3.974q.019 5.386.024 10.773l.012 6.742q.02 10.562.027 21.124.007 12.164.05 24.327.034 9.42.034 18.841 0 5.618.025 11.235c.02 4.184.015 8.367.008 12.55l.028 3.722c-.053 11.035-2.127 20.268-9.384 28.819-6.934 6.575-13.553 9.078-23 9l.063 3.118c.073 3.835.119 7.67.157 11.506q.03 2.485.082 4.97c.049 2.388.071 4.775.089 7.164l.062 2.226c.002 5.165-1.216 8.032-4.453 12.016-3.415 2.59-6.833 2.431-11 2-4.896-2.58-7.589-5.796-10.84-10.22-10.303-13.937-23.007-30.787-41.134-33.58-11.541-1.45-23.171-.98-34.752-.335l-2.092.116c-3.286.193-6.554.442-9.829.768-8.438.738-8.438.738-11.239-.754-2.878-2.788-4.05-5.326-4.426-9.245.37-4.454 1.415-6.383 4.312-9.75 3.949-2.043 7.306-2.257 11.715-2.275l1.982-.015c2.152-.014 4.304-.013 6.455-.01l4.51-.014q4.719-.01 9.438-.002c4.023.006 8.045-.01 12.068-.034 3.103-.015 6.206-.016 9.31-.013q2.223 0 4.447-.015c2.077-.013 4.154-.006 6.231.006l3.575-.002c6.468.74 10.501 4.17 14.886 8.698l1.521 1.534a996 996 0 0 1 4.737 4.83q1.62 1.642 3.242 3.283A2059 2059 0 0 1 436 196l.043-3.945q.07-2.59.145-5.18l.017-2.594c.148-4.276.41-7.393 3.096-10.836 5.227-4.735 11.341-3.75 18.168-4.066 4.14-.344 4.14-.344 7.531-2.379 3.578-6.353 3.426-12.263 3.388-19.434l.016-3.752q.015-5.07-.001-10.14c-.008-3.547 0-7.094.004-10.64q.007-8.932-.016-17.865c-.016-6.873-.01-13.745.006-20.618q.02-8.87.007-17.74-.008-5.29.005-10.58c.01-3.932-.004-7.865-.02-11.797l.018-3.518c-.048-6.024-.245-10.698-3.407-15.916-2.748-1.722-4.852-2.251-8.07-2.26l-2.443-.021-2.666.007-2.846-.016a2078 2078 0 0 0-9.463-.016l-6.775-.026c-6.14-.022-12.281-.03-18.422-.035q-5.751-.006-11.502-.017c-10.616-.02-21.231-.036-31.847-.04h-2.058l-4.13-.001h-2.072l-2.073-.001c-11.093-.004-22.186-.03-33.279-.068q-17.084-.057-34.169-.058-9.591.002-19.184-.038-9.018-.037-18.036-.012-3.314.003-6.626-.02a706 706 0 0 0-9.033.007l-2.66-.04c-4.366.06-6.11.238-9.665 3.006-2.788 3.728-3.107 6.379-3.121 10.905l-.018 3.3-.003 3.623-.015 3.814q-.019 5.183-.024 10.364-.005 3.24-.012 6.478-.02 10.136-.027 20.272-.007 11.695-.05 23.39-.034 9.042-.034 18.086 0 5.4-.025 10.799c-.02 4.017-.015 8.034-.008 12.05l-.028 3.605c.002 7.919.002 7.919 3.384 14.963 3.468 2.312 4.894 2.262 8.988 2.309l3.58.076q3.728.052 7.453.094l3.592.08 3.275.04c3.602.464 6.011 1.532 9.112 3.401 2.918 4.048 3.292 7.182 2.91 11.973-1.45 3.229-3.953 5.212-6.91 7.027-3.612.663-3.612.663-7.602.7l-2.174.02q-2.273.013-4.544-.013c-2.28-.02-4.553.02-6.832.064-11.21.064-20.109-2.305-28.785-9.896-7.604-8.748-8.8-18.915-8.71-30.082a1075 1075 0 0 1-.025-15.288c.013-3.91.001-7.82-.007-11.73a3921 3921 0 0 1 .027-19.69c.027-7.56.019-15.119-.009-22.678a3561 3561 0 0 1-.013-19.563c.008-3.882.01-7.763-.007-11.644q-.021-5.477.024-10.953a455 455 0 0 0-.02-5.876c.119-10.129 2.332-19.161 9.302-26.808 11.5-10.145 23.99-9.275 38.496-9.194"/><path d="m54.237 41.866 3.135-.013 3.407.002 3.614-.01q4.893-.012 9.787-.012 3.06-.002 6.118-.006 10.678-.014 21.356-.012 9.945-.001 19.892-.026 8.548-.019 17.096-.018 5.102.002 10.203-.013c3.792-.01 7.584-.007 11.376 0 1.124-.007 2.248-.012 3.407-.018l3.135.013 2.715-.002c4.074.402 6.79 1.596 9.834 4.312C181.626 50.09 181.84 53.454 181 58c-1.794 2.87-2.983 4.491-6 6a83 83 0 0 1-4.825.138l-3.088.017-3.402.003-3.573.015q-4.86.02-9.72.032c-3.392.01-6.784.029-10.176.047-11.558.062-23.116.116-34.674.15q-9.57.027-19.143.087c-3.375.021-6.75.037-10.126.04-3.77.004-7.54.027-11.31.054l-3.372-.009c-5.92.064-10.453.347-15.591 3.426-2.09 3.168-2.256 5.79-2.274 9.535l-.03 3.411-.002 3.73-.026 3.938c-.022 3.561-.03 7.123-.035 10.685q-.006 3.339-.017 6.678-.037 11.65-.042 23.301a4112 4112 0 0 1-.075 21.714 3411 3411 0 0 0-.05 18.65c-.002 3.712-.01 7.423-.039 11.135-.03 4.14-.022 8.278-.01 12.418l-.044 3.724c-.161 6.713-.161 6.713 2.994 12.319 5.31 3.531 10.689 3.009 16.888 3.188 4.308.657 6.468 1.747 9.762 4.574 2.288 4.311 2.42 8.54 2.625 13.313l.117 2.244c.094 1.814.177 3.628.258 5.443l2.048-2.08a3141 3141 0 0 1 7.559-7.637q1.635-1.65 3.265-3.305 2.347-2.381 4.706-4.751l1.462-1.494c4.98-4.98 7.99-5.982 15.044-5.991l2.163-.011c2.392-.01 4.784-.006 7.176-.002l5.145-.016q5.54-.017 11.08-.018c5.842-.002 11.682-.02 17.523-.04 14.51-.05 29.018-.08 43.527-.102 11.273-.017 22.546-.04 33.82-.083q8.707-.032 17.416-.028c3.613-.001 7.227-.015 10.84-.033q2.513-.008 5.024 0c2.288.005 4.576-.007 6.864-.024l3.878-.006c3.816-.418 6.214-1.354 9.46-3.379 2.246-3.37 2.25-4.48 2.254-8.421l.017-3.412-.012-3.745.01-3.942c.01-3.57.006-7.14 0-10.711-.005-3.735 0-7.47.002-11.205a8972 8972 0 0 0-.01-18.822q-.015-10.88.003-21.76.014-9.338.006-18.677-.007-5.579.003-11.158c.006-4.146-.003-8.293-.014-12.44l.012-3.739-.017-3.42-.002-2.971c-.266-2.715-.758-4.307-2.252-6.577-7.2-4.422-15.475-3.435-23.66-3.44l-3.41-.056-3.087-.006c-3.572-.626-5.247-2.018-7.843-4.498-1.745-3.49-1.575-7.193-1-11 1.556-3.012 3.504-5.465 6.8-6.644 5.051-.818 10.221-.584 15.325-.606l3.594-.062c11.274-.05 20.537 1.891 29.281 9.312 8.494 8.957 9.448 18.03 9.436 29.937l.03 4.2c.027 3.786.034 7.571.036 11.357q.004 3.555.016 7.112.041 12.43.038 24.862c-.002 7.698.03 15.396.077 23.094.04 6.631.055 13.262.054 19.894-.001 3.95.007 7.9.04 11.852q.04 5.58.007 11.16c-.005 1.996.02 3.993.046 5.99-.106 10.266-3.053 18.696-9.905 26.48-9.508 8.465-20.533 8.657-32.5 8.103q-2.463-.084-4.928-.159-5.281-.164-10.563-.36c-5.61-.199-11.22-.319-16.833-.42l-2.89-.054-5.849-.105c-13.044-.232-26.08-.5-39.115-1.038-11.655-.47-23.302-.756-34.967-.757h-2.84c-22.852.088-41.026 1.349-58.06 17.843-6.164 6.564-11.58 13.575-16.468 21.13-2.441 3.623-4.653 5.396-8.862 6.879-2.16.285-2.16.285-4.063.063l-1.91-.153c-3.25-1.459-5.256-3.9-7.027-6.91-.647-2.843-.587-5.557-.488-8.46l.021-2.397c.028-2.507.09-5.012.154-7.518q.038-2.56.069-5.121c.055-4.169.141-8.336.244-12.504l-3.31.05c-7.572-.103-14.594-3.582-20.128-8.675-7.85-9.016-9.299-18.019-9.193-29.684a1125 1125 0 0 1-.008-15.555c.017-3.975.008-7.95.003-11.925q-.005-10.007.04-20.015c.031-7.692.031-15.383.014-23.075-.016-7.43-.01-14.858.008-22.286q.01-4.723-.002-9.446-.01-5.568.032-11.137c.01-1.997 0-3.995-.01-5.992.11-10.314 2.163-18.757 9.359-26.436 7.073-5.877 15.304-8.94 24.432-8.958M427.563 288.04c10.884 9.426 19.257 21.283 20.632 36.056.083 2.194.108 4.38.106 6.576l.013 2.435q.008 2.537.002 5.073c-.003 2.55.02 5.098.045 7.648.072 18.033-3.676 31.823-16.361 45.172 6.618 4.999 13.423 9.646 20.36 14.188l2.542 1.669c3.5 2.297 7 4.593 10.512 6.87 2.593 1.685 5.176 3.384 7.758 5.086l2.37 1.522c6.38 4.232 11.874 8.873 14.877 16.061.719 4.458.887 8.755.882 13.264l.013 2.752q.008 2.865.002 5.73c-.003 2.915.02 5.829.045 8.743q.004 2.793.002 5.588l.028 2.623c-.045 5.889-1.005 10.141-4.977 14.74-19.99 17.197-42.093 22.65-67.844 22.598l-5.89.015q-6.144.014-12.289-.003c-5.21-.011-10.42.009-15.629.038-4.05.018-8.099.018-12.149.012q-2.879 0-5.757.019c-25.205.14-47.193-7.194-66.028-24.632-2.742-2.825-2.957-4.502-2.99-8.33l-.028-2.792-.013-3.027-.017-3.11q-.014-3.262-.02-6.526c-.01-3.32-.04-6.64-.072-9.961q-.01-3.17-.016-6.34l-.038-3.003c.026-7.84 1.91-12.989 7.366-18.794 2.734-2.12 5.602-4.007 8.5-5.895.832-.55 1.663-1.102 2.52-1.67a2172 2172 0 0 1 7.98-5.248q2.64-1.74 5.277-3.486 5.067-3.348 10.141-6.684A2483 2483 0 0 0 356 392c-1.627-3.387-3.574-6.147-5.875-9.125-7.025-9.537-9.263-18.49-9.363-30.129l-.025-2.717a1823 1823 0 0 1-.032-5.691 609 609 0 0 0-.062-5.763c-.274-17.821 2.335-32.333 14.748-45.993 19.476-19.146 50.582-21.722 72.171-4.543M372 308c-8.172 9.591-9.395 18.04-9.426 30.32a402 402 0 0 1-.111 6.832c-.126 11.252 1.465 20.715 9.35 29.348 7.715 7.029 15.877 9.159 26.183 8.902 7.924-.532 14.618-4.52 20.004-10.214 7.635-9.72 8.181-19.498 8.188-31.438l.037-3.605c.02-12.677-1.795-21.43-10.475-30.895-6.285-5.92-13.243-7.911-21.766-8.344-8.344.262-15.761 3.574-21.984 9.094m-2.977 101.895-2.813 1.883a915 915 0 0 0-8.835 6.034q-4.37 2.954-8.747 5.898a619 619 0 0 0-5.669 3.888c-4.13 2.864-8.222 5.617-12.643 8.014-7.375 4.005-7.375 4.005-11.644 11.041-.6 3.488-.606 6.863-.408 10.389.112 2.162.083 4.292.037 6.456.037 5.395.161 9.914 4.071 13.95 2.816 1.82 5.554 3.224 8.628 4.552l2.73 1.402c12.635 6.29 24.82 7.063 38.633 7.032l5.29.015q5.517.013 11.035-.003c4.673-.011 9.346.009 14.019.038 3.637.018 7.273.018 10.91.012q2.582 0 5.163.019c13.992.087 27.06-1.353 39.408-8.577l1.86-1.026c1.672-.934 3.314-1.92 4.952-2.912l2.075-1.227c4.77-4.394 4.608-12.146 5.094-18.29.264-6.583-.57-12.511-5.022-17.601-10.714-9.892-24.104-16.869-36.804-23.854-5.48-3.042-10.658-6.439-15.721-10.13-3.39-2.397-5.638-3.439-9.81-3.023q-2.406.56-4.812 1.125c-2.019.096-4.041.135-6.062.125l-2.786.008C388 405 388 405 386.074 404.56c-7.267-1.481-11.196 1.237-17.05 5.334M150.664 288.04c11.577 9.897 18.33 21.875 20.336 36.96.264 4.717.33 9.416.316 14.14-.003 2.159.02 4.316.045 6.475.084 18.253-4.492 31.543-16.361 45.385 4.632 3.888 9.623 7.175 14.648 10.523l5.735 3.844q4.494 3.008 8.992 6.01 4.359 2.912 8.71 5.834c.89.59 1.778 1.182 2.694 1.79C210.727 429.045 210.727 429.045 213 437c.406 3.676.444 7.312.434 11.008l.015 3.162a969 969 0 0 1-.003 6.591c-.008 3.36.02 6.719.052 10.079q.003 3.209-.002 6.418l.034 3.037c-.044 4.387-.07 6.962-2.42 10.754-15.41 14.244-36.599 24.057-57.701 24.128l-2.59.02c-2.822.02-5.645.031-8.467.041l-2.939.013q-7.71.03-15.418.044c-5.273.011-10.546.046-15.818.085-4.084.027-8.168.035-12.252.038q-2.913.008-5.824.035C64.972 512.68 41.905 505.323 23 488c-2.114-3.171-2.257-3.985-2.29-7.62l-.04-2.833-.006-3.059-.02-3.158q-.015-3.312-.015-6.625c-.004-3.362-.04-6.724-.078-10.086q-.009-3.222-.012-6.443l-.043-3.028c.045-7.051 1.075-12.438 5.968-17.732 4.788-4.327 10.337-7.74 15.74-11.24l2.907-1.903q4.565-2.987 9.139-5.96 4.593-2.992 9.182-5.993 2.846-1.861 5.7-3.713l2.6-1.7 2.284-1.486c1.87-1.34 3.415-2.744 4.984-4.421l-1.574-1.836c-11.45-13.757-14.98-27.645-14.872-45.365.008-2.1-.02-4.197-.052-6.297-.09-17.466 4.215-32.373 16.299-45.4 19.804-18.925 50.068-20.745 71.863-4.063M95 308c-8.973 10.034-10.178 20.433-10.187 33.375l-.038 2.672C84.748 356.325 87.213 367.013 96 376c8.776 6.56 17.15 7.957 28 7 8.576-2.043 15-6.668 19.813-14 7.347-12.695 7.206-32.541 4.003-46.648-3.28-9.45-9.184-16.216-18.066-20.664-12.223-4.931-25.23-2.958-34.75 6.312m-3.855 101.895-2.742 1.883a790 790 0 0 0-8.59 6.034q-4.254 2.955-8.513 5.898a587 587 0 0 0-5.52 3.888c-4.053 2.884-8.06 5.634-12.433 8.012-7.403 3.997-7.403 3.997-11.645 11.06-.563 3.501-.546 6.894-.328 10.427.127 2.17.123 4.315.103 6.489.05 7.345.05 7.345 3.43 13.62 2.304 1.563 4.536 2.705 7.093 3.794l3.047 1.793 2.703 1.394 2.672 1.418c11.517 4.49 22.731 4.844 34.89 4.793q2.616.003 5.232.01 5.451.005 10.902-.017c4.623-.017 9.245-.007 13.868.01 3.595.012 7.19.008 10.784 0a962 962 0 0 1 5.11.008c13.218.043 25.41-.981 37.292-7.346l2.008-1.014c7.182-3.623 7.182-3.623 11.742-9.98 2.069-9.49 3.688-20.21-1.25-29.069-9.765-11.398-24.847-18.721-37.751-25.972-5.42-3.068-10.565-6.47-15.602-10.13-3.398-2.391-5.66-3.44-9.834-3.023q-2.408.56-4.813 1.125-2.998.142-6 .125l-2.75.008C111 405 111 405 108.842 404.56c-7.66-1.38-11.564.903-17.697 5.334M287 277h22v22h-22zm-42 0h22v22h-22zm-43 0h22v22h-22z"/></svg>