<svg xmlns="http://www.w3.org/2000/svg" width="512" height="512" fill="#147cd1"><path d="M499.867 95.129C505.97 99.667 509.98 106.809 512 114c.184 2.589.275 5.067.26 7.653.005.75.008 1.502.012 2.275.01 2.506.007 5.011.003 7.517l.015 5.402c.014 4.884.014 9.769.012 14.653q0 6.12.008 12.241.016 14.443.006 28.885c-.006 9.926.006 19.852.027 29.778q.027 12.792.02 25.585c-.001 5.091.001 10.182.015 15.273q.018 7.182-.002 14.365a869 869 0 0 0 .009 5.263c.01 2.401.002 4.802-.01 7.203l.022 2.086c-.194 17.51-15.53 30.15-27.024 41.431q-2.328 2.288-4.645 4.586a4210 4210 0 0 1-13.186 13.016 1871 1871 0 0 0-8.124 8.029 572 572 0 0 1-3.064 3.012c-12.492 12.194-20.614 24.216-21.061 41.935l-.043 3.937a1586 1586 0 0 1-.09 4.055A971 971 0 0 0 435 422l2.241-.022 2.966-.017 2.929-.022c8.089.172 14.114 2.25 19.864 8.061 5.479 7.693 5.673 15.144 5.488 24.32q-.014 2.03-.021 4.06c-.02 3.529-.068 7.056-.124 10.584-.051 3.613-.074 7.227-.099 10.84A3012 3012 0 0 1 468 501h-23v-55H290v55h-23c-.09-7.946-.164-15.89-.207-23.837-.021-3.69-.05-7.38-.095-11.07q-.063-5.349-.078-10.699c-.01-2.012-.042-4.023-.073-6.035-.002-8.251.652-13.954 6.2-20.382 8.784-7.02 17.205-7.126 28.133-7.09l3.609-.001q4.878.001 9.755.013 5.104.007 10.21.008 9.657.004 19.315.021 10.998.016 21.997.022 22.617.016 45.234.05l-.01-2.09q-.021-4.73-.033-9.46l-.017-3.287c-.06-28.71 13.475-47.606 33.117-67.354a3778 3778 0 0 1 18.068-17.934q5.906-5.833 11.796-11.684 2.34-2.317 4.69-4.626l2.854-2.835 2.515-2.483c3.912-4.352 4.272-7.498 4.287-13.338l.014-2.165c.013-2.395.011-4.789.01-7.183l.02-5.15c.018-4.663.022-9.326.024-13.99.001-3.891.009-7.783.016-11.675q.023-13.77.02-27.541c-.002-9.474.02-18.948.051-28.421q.038-12.198.036-24.395c0-4.858.005-9.716.026-14.573q.029-6.852.005-13.703-.003-2.516.015-5.03a509 509 0 0 0-.01-6.865l.004-3.88c-.584-3.915-1.74-5.557-4.498-8.338-2.82-1.41-4.87-1.245-8-1-3.79 1.723-5.506 3.142-7 7-.306 2.826-.306 2.826-.271 5.958l-.031 3.642-.007 3.923q-.015 2.022-.037 4.043c-.055 5.713-.086 11.426-.11 17.14q-.025 5.248-.085 10.497a685 685 0 0 0-.018 5.92l-.04 3.66-.016 3.207c-.456 3.568-1.507 5.952-3.385 9.01-3.767 2.246-6.239 3-10.625 3-4.028-1.194-5.718-2.796-8.375-6-1.39-2.779-1.158-5.078-1.193-8.187l-.049-3.947q-.017-2.148-.031-4.296l-.017-2.189a3573 3573 0 0 1-.06-11.498 1075 1075 0 0 0-.082-9.462 1027 1027 0 0 1-.081-11.464 359 359 0 0 0-.046-4.341C444.255 116.8 446.103 107.168 454 98c13.83-11.476 30.557-12.128 45.867-2.871M288.148 19.965c12.233 8.73 19.777 20.654 23.371 35.125.634 3.836.663 7.63.684 11.508l.017 2.515q.014 2.634.02 5.268c.01 2.648.04 5.297.072 7.945.109 17.058-2.61 32.447-14.992 45.15-1.538 1.44-1.538 1.44-1.32 3.524 1.64 1.37 1.64 1.37 3.817 2.73l2.532 1.662 2.784 1.796 2.859 1.87q4.561 2.978 9.133 5.942A3184 3184 0 0 1 340 160l2.316 1.534a473 473 0 0 1 5.926 4.029l3.207 2.19c3.553 3.13 5.273 5.806 5.817 10.581.131 2.84.15 5.662.132 8.506l.01 3.152q.002 3.293-.017 6.584c-.016 3.347 0 6.692.02 10.04q-.004 3.206-.013 6.411l.019 3.015c-.071 7.085-.764 12.289-5.956 17.513C339.51 242.54 326.588 250.215 312 254l-1.922.5c-5.567 1.355-10.773 1.797-16.49 1.79l-2.71.02c-2.93.02-5.861.024-8.792.026l-6.176.02q-6.463.017-12.926.015c-5.484 0-10.967.027-16.45.061-4.252.023-8.504.026-12.756.025q-3.03.004-6.059.027c-25.664.18-47.282-7.626-67.73-23.332-5.482-5.934-5.434-12.456-5.387-20.125l-.01-3.155q-.002-3.29.017-6.578c.016-3.35 0-6.697-.02-10.046q.004-3.204.013-6.408l-.019-3.021c.054-5.33.302-9.283 3.417-13.819 1.908-1.813 1.908-1.813 4.281-3.445l2.965-2.052q1.875-1.254 3.754-2.503l2.37-1.585c6.686-4.466 13.406-8.88 20.13-13.29l6.133-4.031q6.702-4.407 13.41-8.806A977 977 0 0 0 216 131c-1.327-2.855-2.84-5.178-4.812-7.625-10.015-13.24-11.698-27.23-11.58-43.339a562 562 0 0 0-.018-7.792c-.023-17.403 3.644-32.058 16.062-44.994 20.173-19.334 48.748-22.042 72.496-7.285m-56.945 24.957c-7.519 9.603-8.409 18.802-8.443 30.723-.01 2.02-.04 4.037-.072 6.056-.047 11.697 1.58 21.208 9.312 30.299 7.287 6.783 15.735 10.4 25.766 10.21 8.846-.834 16.954-4.612 23.023-11.132 7.54-9.583 8.417-18.813 8.451-30.723.01-2.02.04-4.037.072-6.056C289.36 62.602 287.733 53.09 280 44c-7.79-7.252-16.369-10.338-26.937-10.21-8.317.572-16.2 5.078-21.86 11.132m-.66 103.902-2.733 1.869a1073 1073 0 0 0-8.623 5.994q-4.233 2.922-8.474 5.832a645 645 0 0 0-5.57 3.89c-4.394 3.093-8.774 6.01-13.475 8.62-9.005 4.738-9.005 4.738-14.276 12.96-.697 3.699-.706 7.257-.464 11.003.136 2.282.103 4.52.05 6.805.038 4.45.478 7.994 2.022 12.203 3.933 3.837 7.918 5.867 13 8l3.614 1.563c8.828 3.692 17.352 5.744 26.912 5.712l2.424.015c2.616.014 5.231.013 7.847.01l5.518.014q5.769.01 11.539.002c4.896-.006 9.792.01 14.688.034 3.797.015 7.594.016 11.392.013q2.705 0 5.41.015c13.51.067 25.951-.764 38.094-7.315l1.982-1.014c1.888-.981 3.745-1.972 5.58-3.049l3.096-1.702c4.526-3.582 4.89-7.808 5.62-13.268.792-8.802 1.476-17.987-4.51-25.188-10.256-9.9-23.34-16.804-35.717-23.677-6.163-3.464-11.955-7.435-17.625-11.655-3.573-2.531-5.083-3.546-9.592-3.338L265 144c-1.457.08-2.916.13-4.375.133l-2.297.004-2.328-.012-2.328.012-2.297-.004-2.04-.004C247 144 247 144 243.819 143.128c-5.674-.19-8.76 2.491-13.275 5.696M53.023 94.063C60.243 98.603 64.996 106.845 67 115c.44 5.087.423 10.16.398 15.262q.003 2.217.01 4.436.005 4.628-.017 9.256c-.017 3.948-.007 7.895.01 11.843.012 3.048.008 6.096 0 9.144q-.004 2.183.008 4.367c.008 2.033-.006 4.067-.02 6.1l-.008 3.501c-.428 3.47-1.273 5.322-3.381 8.091-3.765 2.172-6.271 3-10.625 3-4.049-1.2-5.739-2.744-8.375-6-1.064-3.193-1.137-5.504-1.158-8.86l-.03-3.652-.023-3.949-.041-4.054c-.062-5.737-.116-11.474-.15-17.21a1576 1576 0 0 0-.1-10.534 737 737 0 0 1-.031-5.951l-.05-3.67-.025-3.223c-.448-3.312-1.448-5.203-3.392-7.897-3.21-2.324-6.115-2.476-10-2-2.7 1.8-4.542 3.084-6 6-.103 2.28-.14 4.562-.147 6.844l-.011 2.158q-.015 3.597-.019 7.194l-.02 5.144a7116 7116 0 0 0-.036 14.003l-.018 8.745q-.029 13.676-.041 27.352-.015 15.795-.077 31.59-.044 12.203-.048 24.406c-.002 4.86-.011 9.721-.036 14.581q-.035 6.86-.018 13.72 0 2.517-.02 5.034c-.017 2.293-.01 4.584.003 6.877l-.007 3.886c.902 6.313 5.001 10.222 9.396 14.562l1.436 1.427a995 995 0 0 0 3.07 3.035 1310 1310 0 0 1 4.886 4.837c4.04 4.014 8.092 8.018 12.144 12.021a4994 4994 0 0 1 10.256 10.165q2.378 2.357 4.767 4.703c18.116 17.932 31.326 36.65 31.653 62.872.03 5.95-.018 11.896-.113 17.844l2.266-.044 2.984-.034 2.953-.044c4.745.207 8.095 1.59 11.672 4.81 2.301 4.73 2.613 8.696 1.125 13.625-2.504 3.365-5.05 4.598-9 5.687-3.59.385-7.14.35-10.746.293l-2.719-.01c-3.324-.015-6.648-.057-9.972-.096L67 446v55H44c-.113-7.78-.205-15.56-.26-23.342-.025-3.614-.06-7.228-.117-10.842q-.08-5.241-.097-10.484a447 447 0 0 0-.092-5.899c-.003-8.673 1.171-15.991 7.48-22.367 6.25-5.33 12.896-6.165 20.879-6.105l2.966.017L77 422a757 757 0 0 0-.153-11.731 463 463 0 0 1-.052-5.906c-.445-19.464-10.934-32.03-24.273-45.066a1011 1011 0 0 1-5.173-5.102 4306 4306 0 0 0-10.974-10.82 4243 4243 0 0 1-12.752-12.584 1237 1237 0 0 0-5.068-4.973C10.12 317.504.39 307.344-.135 294.782a564 564 0 0 1-.012-4.068l-.011-2.265q-.015-3.769-.019-7.537l-.02-5.396c-.021-5.914-.031-11.828-.041-17.743l-.013-6.109q-.029-14.352-.041-28.706-.015-16.56-.077-33.123-.044-12.804-.048-25.608c-.002-5.097-.011-10.194-.036-15.291q-.035-7.198-.018-14.395 0-2.636-.02-5.271C-.614 112.347-.614 112.347 4 105l1.352-2.418c11.37-15.8 31.382-17.073 47.671-8.52"/><path d="M102 209c5.219 4.773 10.12 9.882 15.063 14.938q2.991 3.045 5.99 6.082a947 947 0 0 1 3.698 3.767c2.957 3.008 5.97 5.879 9.165 8.633 4.36 3.766 8.41 7.797 12.459 11.893l2.33 2.34c3.254 3.27 6.502 6.547 9.75 9.823q3.583 3.608 7.17 7.212l2.185 2.21c4.02 4.04 8.136 7.894 12.469 11.599C199.41 302.456 209.274 323.653 212 346c.084 2.6.127 5.172.114 7.771v2.25q-.002 3.643-.016 7.288l-.005 5.081q-.006 6.66-.024 13.321-.014 6.808-.02 13.615-.016 13.337-.049 26.674l2.237-.026 2.962-.02c.965-.01 1.93-.018 2.925-.027 7.59.193 13.801 1.964 19.282 7.491 4.46 5.043 5.848 9.19 5.821 15.841v3.76l-.032 4.032-.008 4.149c-.008 3.628-.028 7.256-.05 10.884-.02 3.707-.03 7.414-.04 11.121-.02 7.265-.056 14.53-.097 21.795h-23v-55l-14.664.105q-4.607.024-9.215.041c-4.872.018-9.744.04-14.616.08-3.929.033-7.858.05-11.787.059q-2.246.008-4.49.032c-2.102.022-4.203.025-6.305.024l-3.62.02c-4.489-.49-7.859-1.966-11.115-5.111-1.671-3.165-2.065-5.675-2.188-9.25 1.522-4.166 3.132-6.773 7-9 3.855-1.336 7.802-1.126 11.828-1.098l2.27.005c2.384.005 4.768.018 7.152.03q2.43.009 4.86.014 5.944.017 11.89.049a6937 6937 0 0 0-.236-26.943q-.068-6.258-.11-12.515-.041-6.06-.117-12.119a691 691 0 0 1-.035-4.582c-.107-23.673-5.378-43.02-22.493-60.198l-2.599-2.561-2.737-2.732q-2.848-2.838-5.706-5.664a2061 2061 0 0 1-7.244-7.2q-3.496-3.488-7-6.966l-2.593-2.58c-3.654-3.611-7.32-7.157-11.214-10.509-4.329-3.729-8.302-7.762-12.291-11.849l-4.734-4.799q-3.682-3.734-7.346-7.485c-2.38-2.435-4.774-4.858-7.17-7.278l-2.185-2.258C88.77 229.32 84.82 226.386 79 224c-2.705-.083-2.705-.083-5 .75l-2.312.672L70 226c-1.318 4.267-2.374 7.69-1.125 12.063 2.335 3.227 4.897 5.894 7.797 8.617 1.944 1.937 3.715 3.904 5.5 5.984 4.206 4.854 8.753 9.333 13.328 13.836 5.184 5.102 10.226 10.228 14.963 15.749 2.056 2.342 4.28 4.48 6.537 6.626 11.382 11.295 17.152 22.66 17.25 38.625l.063 2.55c.03 4.834-.187 8.016-3.313 11.95-2.821 2.633-5.14 3.724-9 4-4.495-1.01-7.033-2.483-10-6-1.297-2.595-1.157-4.958-1.238-7.814-.599-18.533-12.068-27.722-24.726-40.114-2.92-2.874-5.7-5.8-8.368-8.912-3.358-3.89-6.958-7.473-10.635-11.06C44.27 249.876 44.27 249.876 43.625 234c.371-9.884 3.988-18.985 11.297-25.79C69.5 196.74 87.716 197.559 102 209m353.996-1.734c7.133 6.173 11.473 14.503 12.164 23.914.372 10.369-2.394 18.034-9.16 25.82l-1.793 2.121c-5.685 6.521-11.837 12.576-18.003 18.639-3.358 3.316-6.616 6.655-9.692 10.236-4.446 5.169-9.367 9.844-14.283 14.56-9.265 9.082-13.348 16.119-13.659 29.108-.19 4.557-.642 7.631-3.57 11.336-3.325 2.217-5.037 2.771-9 3-3.949-1.339-7.443-2.591-10-6-3.178-9.535-2.128-23.952 2-33 5.773-10.138 14.345-18.538 22.664-26.602 1.935-1.987 3.74-4.007 5.547-6.109 4.754-5.478 9.948-10.496 15.117-15.578 4.232-4.189 8.3-8.445 12.176-12.966q1.473-1.718 2.996-3.39c2.71-3.04 4.4-5.224 4.5-9.355-.864-3.736-.864-3.736-2-7-1.39-.394-2.788-.764-4.187-1.125l-2.356-.633c-3.84-.378-6.49 1.03-9.53 3.32-8.617 7.918-16.816 16.253-25.052 24.563q-4.5 4.54-9.008 9.07c-.67.68-1.342 1.359-2.033 2.059-3.794 3.813-7.7 7.41-11.77 10.923-6.557 5.792-12.678 12.089-18.89 18.245a1045 1045 0 0 1-5.347 5.244c-17.407 16.956-29.59 32.72-29.953 58.094q-.012 2.609-.015 5.217-.027 2.859-.058 5.718c-.03 2.974-.051 5.947-.051 8.92a688 688 0 0 1-.078 8.674l.021 2.68c-.084 4.266-.346 7.165-3.047 10.575-3.123 2.9-4.757 3.372-8.959 3.769-4.413-.374-6.35-1.441-9.687-4.313-2.681-4.714-2.306-9.721-2.3-14.988l-.014-2.958q-.008-3.102-.002-6.206c.003-3.112-.02-6.223-.045-9.334-.054-16.58 1.57-31.168 8.361-46.514l1.152-2.676c5.883-12.735 16.6-23.864 27.067-33.062 8.327-7.418 16.057-15.471 23.906-23.387q4.781-4.82 9.57-9.633l2.166-2.191c3.961-3.98 8.03-7.748 12.283-11.413 2.72-2.4 5.238-4.97 7.754-7.58l3.204-3.267a1045 1045 0 0 0 4.902-5.042c15.647-16.186 35.126-26.564 55.992-11.483"/></svg>