<svg xmlns="http://www.w3.org/2000/svg" width="512" height="512" fill="#147cd1"><path d="m221.742 138.725 2.492-.015c2.69-.014 5.38-.013 8.07-.01l5.667-.014q5.924-.01 11.847-.002c5.035.006 10.07-.01 15.106-.034 3.898-.015 7.797-.016 11.695-.013q2.783 0 5.566-.015c19.703-.095 37.205 4.127 51.854 18.099 13.304 13.47 18.265 29.977 18.252 48.43l.02 3.911c.017 3.514.022 7.028.024 10.542q.001 3.298.01 6.595.028 11.515.026 23.029c-.002 7.147.02 14.293.051 21.44q.038 9.223.036 18.446c0 3.667.005 7.334.026 11.001.023 4.084.014 8.167.002 12.251l.034 3.672c-.062 8.186-.062 8.186-2.425 12.19C339.869 336.881 323.397 331 310 331v171h-22V288h22v21h20q-.056-21.568-.184-43.135c-.04-6.678-.072-13.355-.087-20.033a3902 3902 0 0 0-.097-19.354q-.023-3.681-.024-7.362c-.012-17.524-.064-32.528-12.608-46.116-11.572-10.623-25.54-11.618-40.438-11.531l-4.962-.012q-5.168-.008-10.337.022c-4.381.022-8.76.01-13.141-.015-3.41-.014-6.82-.01-10.229 0q-2.42.005-4.841-.01c-14.878-.067-27.701 2.067-39.052 12.546-12.758 13.898-11.603 31.116-11.61 48.77a4496 4496 0 0 0-.129 27.042c-.017 6.67-.06 13.34-.1 20.01-.076 13.06-.126 26.119-.161 39.178h20v-21h22v214h-22V331h-36c-5-4-5-4-6-6a96 96 0 0 1-.14-5.216l-.018-3.351-.003-3.694-.015-3.879q-.019-5.279-.024-10.557l-.012-6.605q-.02-10.343-.027-20.687-.007-11.916-.05-23.832a5570 5570 0 0 1-.034-18.444q0-5.501-.025-11.002c-.02-4.102-.015-8.205-.008-12.307l-.028-3.64c.082-16.762 6.507-32.665 18.105-44.825 11.81-11.664 27.506-18.29 44.02-18.236M411.24 10.369l3.082-.022c3.353-.017 6.704.003 10.057.024q3.5 0 7-.007 7.33-.003 14.66.04c6.264.033 12.527.027 18.79.008 4.817-.01 9.634-.001 14.451.014q3.465.007 6.93-.002a951 951 0 0 1 9.679.043l2.892-.02c4.266.061 6.597.166 10.288 2.461 2.676 2.9 3.057 4.44 3.085 8.278l.026 2.66.013 2.925.025 3.075q.036 5.054.055 10.107l.017 3.482q.039 9.124.06 18.247c.017 6.286.062 12.572.112 18.858.034 4.83.046 9.66.051 14.49q.01 3.475.046 6.951c.032 3.244.032 6.487.024 9.73l.05 2.901c-.041 4.43-.203 7.446-3.043 10.974-3.468 3.233-3.468 3.233-6.528 3.477l-1.902.222c-5.823-.769-9.849-4.552-13.777-8.61l-1.521-1.533a996 996 0 0 1-4.737-4.83q-1.62-1.642-3.242-3.283A2059 2059 0 0 1 470 103c-5.324 4.44-10.252 9.136-15.12 14.07l-2.362 2.381a5960 5960 0 0 0-5.045 5.093 5125 5125 0 0 1-7.997 8.056 12900 12900 0 0 0-22.726 22.896q-6.953 7.026-13.932 14.026a1801 1801 0 0 0-5.291 5.343 1706 1706 0 0 1-7.408 7.454l-2.185 2.234c-5.01 4.98-9.186 8.447-16.559 8.447-4.154-1.23-5.804-2.522-8.375-6-1.352-4.563-1.19-7.658.782-11.987 2.671-4.415 6.55-7.878 10.2-11.48l2.785-2.797c2.51-2.52 5.031-5.026 7.556-7.53 2.645-2.628 5.28-5.267 7.916-7.904q6.642-6.636 13.301-13.254a6733 6733 0 0 0 15.356-15.315q8.177-8.177 16.368-16.338l4.705-4.698a3821 3821 0 0 1 8.79-8.747l2.623-2.626 2.43-2.404 2.097-2.087c4.383-3.843 7.965-5.578 13.759-5.376 4.502 1.048 7.23 4.298 10.332 7.543l7 7 1-56-56 1 13 13c1.772 3.543 1.628 7.14 1 11-4.095 8.368-12.794 15.254-19.739 21.235-3.886 3.393-7.565 6.94-11.196 10.602l-1.945 1.95q-2.066 2.07-4.128 4.145a5027 5027 0 0 1-6.531 6.556q-6.922 6.94-13.836 13.887a21116 21116 0 0 1-16.103 16.159 6312 6312 0 0 0-6.438 6.47l-3.925 3.935-1.81 1.826c-5.111 5.111-5.111 5.111-10.099 5.61-3.35-.024-5.099-.619-7.688-2.75-3.091-3.167-3.457-3.866-4.062-8.25.21-9.189 12.75-17.743 18.953-23.903q2.892-2.874 5.779-5.755 7.169-7.146 14.345-14.284 6.08-6.05 12.153-12.107 2.828-2.817 5.661-5.63C403.143 71.97 408.784 66.23 414 60l3.437-4L420 53c-.717-.7-1.433-1.402-2.171-2.124a2267 2267 0 0 1-7.973-7.855 1006 1006 0 0 0-3.451-3.39 981 981 0 0 1-4.96-4.893l-1.56-1.512C397.012 30.352 395.088 27.94 394 24c0-6.928 0-6.928 3.415-10.59 4.253-3.42 8.565-3.106 13.825-3.041m-401.054.477 2.66-.026 2.925-.013 3.075-.025q5.054-.036 10.107-.055l3.482-.017a9002 9002 0 0 1 18.247-.06 3592 3592 0 0 0 18.858-.112c4.83-.034 9.66-.046 14.49-.051a937 937 0 0 0 6.951-.046c3.244-.032 6.487-.032 9.73-.024l2.901-.05c4.43.041 7.446.203 10.974 3.043 3.233 3.468 3.233 3.468 3.477 6.528l.222 1.902c-.769 5.823-4.552 9.849-8.61 13.777l-1.533 1.521a996 996 0 0 1-4.83 4.737q-1.642 1.62-3.283 3.242A2059 2059 0 0 1 92 53c15.805 18.712 33.588 35.68 50.938 52.938q6.739 6.702 13.468 13.412a4267 4267 0 0 0 5.353 5.321l3.24 3.231 1.5 1.484c3.28 3.28 4.405 4.65 4.876 9.364-.024 3.35-.619 5.099-2.75 7.688-3.167 3.091-3.866 3.457-8.25 4.062-9.577-.244-18.8-13.811-25.2-20.25a4898 4898 0 0 0-6.46-6.484c-5.35-5.362-10.693-10.73-16.037-16.098q-6.79-6.82-13.586-13.632-3.167-3.178-6.328-6.36c-8.344-8.412-8.344-8.412-17.167-16.314-11.51-9.817-11.51-9.817-12.222-17.674C63.579 47.82 66.949 44.872 71 41l7-7-56-1 1 56 13-13c3.564-1.782 7.118-1.584 11-1 6.637 3.629 12.015 9.719 17.306 15.015l2.708 2.688q3.644 3.62 7.276 7.252 2.274 2.273 4.553 4.542a11887 11887 0 0 1 15.902 15.878c4.925 4.926 9.861 9.84 14.803 14.75q6.382 6.344 12.744 12.71 3.791 3.793 7.597 7.57c2.829 2.806 5.641 5.627 8.452 8.45l2.536 2.502c5.229 5.286 9.123 9.495 9.123 17.268-1.23 4.154-2.522 5.804-6 8.375-4.602 1.364-7.667 1.163-12.028-.822-4.155-2.482-7.383-6.074-10.753-9.505l-2.574-2.573q-3.47-3.476-6.923-6.972c-2.412-2.438-4.836-4.864-7.259-7.291q-6.869-6.89-13.715-13.801A9362 9362 0 0 0 75.12 135.32 20612 20612 0 0 1 43 103l-3.352 2.856-1.886 1.607c-2.177 1.9-4.2 3.912-6.207 5.99l-2.325 2.375a1470 1470 0 0 0-4.734 4.89c-.764.78-1.529 1.558-2.316 2.36l-2.071 2.138c-4.163 3.522-7.657 4.007-13.046 3.659C3.723 127.458 1.735 125.098 0 122c-.717-3.418-.674-6.758-.631-10.24l-.022-3.082c-.017-3.353.003-6.704.024-10.057q0-3.5-.007-7-.003-7.33.04-14.66c.033-6.264.027-12.527.008-18.79-.01-4.817-.001-9.634.014-14.451q.007-3.465-.002-6.93a951 951 0 0 1 .043-9.679l-.02-2.892c.061-4.266.166-6.597 2.461-10.288 2.9-2.676 4.44-3.057 8.278-3.085"/><path d="M377 320c5.71 3.17 10.008 7.74 14.576 12.349l2.544 2.543q3.432 3.436 6.854 6.88 3.588 3.603 7.183 7.198 6.794 6.806 13.578 13.621 7.73 7.76 15.468 15.511A40270 40270 0 0 1 469 410q1.673-1.423 3.344-2.85l1.881-1.602c2.278-1.986 4.399-4.093 6.51-6.255l2.488-2.525q2.553-2.607 5.101-5.22l2.473-2.505 2.23-2.28c2.699-2.411 4.705-2.738 8.286-3.075 4.342.368 6.333 1.597 9.687 4.312 1.157 2.313 1.135 3.656 1.154 6.231l.026 2.69.013 2.957.025 3.11q.036 5.11.055 10.219l.017 3.52q.039 9.218.06 18.437c.017 6.356.062 12.711.112 19.067.034 4.88.046 9.76.051 14.641q.01 3.515.046 7.03c.032 3.277.032 6.554.024 9.832l.05 2.94c-.043 4.639-.104 6.65-3.044 10.405-3.25 2.411-4.786 3.046-8.744 3.068l-2.638.022-2.902.008-3.05.02q-5.012.028-10.025.041l-3.452.013q-9.045.03-18.088.044c-6.234.011-12.469.046-18.703.085-4.788.026-9.576.035-14.364.038q-3.447.008-6.895.035c-3.215.025-6.43.024-9.645.017l-2.883.039c-4.248-.034-6.566-.116-10.244-2.398-3.366-3.633-3.992-5.923-3.843-10.892.678-4.85 2.967-7.215 6.453-10.469l1.678-1.647a508 508 0 0 1 5.318-5.103q1.803-1.749 3.6-3.504A1050 1050 0 0 1 420 460c-1.33-2.954-2.778-5.024-5.074-7.301l-1.912-1.912-2.094-2.062-2.208-2.2a2432 2432 0 0 0-4.752-4.715 3350 3350 0 0 1-7.513-7.465q-7.967-7.93-15.947-15.845a13763 13763 0 0 1-18.474-18.363 4134 4134 0 0 0-7.416-7.351l-4.53-4.51-2.094-2.063-1.912-1.912-1.662-1.649c-2.543-2.975-3.369-5.178-3.724-9.09.333-3.801 1.004-5.57 3.312-8.562 3.645-2.43 5.852-2.766 10.17-2.568 3.363.675 4.558 1.636 7.033 3.983l2.639 2.492Q365.424 370.45 367 372l1.883 1.844c5.47 5.368 10.889 10.788 16.305 16.21q2.627 2.628 5.256 5.254 5.479 5.476 10.953 10.959 7.023 7.03 14.056 14.052 5.414 5.41 10.824 10.824 2.592 2.594 5.187 5.184 3.61 3.61 7.216 7.223l2.169 2.163 1.979 1.988 1.72 1.721c3.55 3.858 4.175 6.737 4.1 11.812-1.29 5.503-5.665 8.998-9.648 12.766l-5 5 56 1-1-56-12 12c-4.329 2.164-6.255 2.49-11 2-6.053-3.329-10.62-8.331-15.462-13.187l-2.83-2.815a3457 3457 0 0 1-7.636-7.624q-3.189-3.19-6.382-6.374-7.53-7.515-15.048-15.043a8303 8303 0 0 0-15.525-15.497 8034 8034 0 0 1-13.346-13.325 3800 3800 0 0 0-7.964-7.95 2794 2794 0 0 1-8.863-8.868l-2.67-2.647-2.43-2.451-2.115-2.116c-2.847-3.463-3.746-6.133-3.666-10.603 1.114-4.162 2.657-5.78 5.937-8.5 3.11-1.555 5.563-1.286 9-1m-235 0c3.395 1.73 5.42 3.068 7.438 6.313.783 3.744.631 5.977-.438 9.687-4.655 6.322-10.638 11.786-16.177 17.322l-2.702 2.713q-3.636 3.647-7.277 7.288l-4.553 4.559q-7.95 7.964-15.906 15.918-7.406 7.407-14.8 14.826-6.367 6.385-12.742 12.76a5024 5024 0 0 0-7.596 7.609 3853 3853 0 0 1-8.459 8.46l-2.53 2.547-2.331 2.319-2.018 2.018c-3.058 2.66-5.244 3.587-9.284 4.036-8.902-.92-13.434-8.184-19.625-14.375l-1 56 56-1-12-12c-2.43-3.645-2.766-5.852-2.568-10.17.675-3.363 1.636-4.558 3.983-7.033l2.492-2.639Q71.45 445.576 73 444l1.844-1.883c5.368-5.47 10.788-10.889 16.21-16.305q2.628-2.627 5.254-5.256 5.477-5.479 10.959-10.953 7.03-7.023 14.052-14.056 5.41-5.414 10.824-10.824 2.594-2.592 5.184-5.187 3.61-3.61 7.223-7.216l2.163-2.169 1.988-1.979 1.721-1.72c4.015-3.695 6.899-3.93 12.129-3.847 3.709.598 5.276 2.45 7.449 5.395 1.555 3.11 1.286 5.563 1 9-2.992 5.293-7.04 9.312-11.339 13.566l-2.218 2.22a3437 3437 0 0 1-7.24 7.206l-5.027 5.019q-6.604 6.59-13.218 13.168-6.75 6.723-13.493 13.454A31789 31789 0 0 1 92 458c1.795 3.88 4.065 6.196 7.191 9.14l3.112 2.997a552 552 0 0 0 4.905 4.653 391 391 0 0 1 4.733 4.538l2.866 2.716c2.892 3.899 3.056 6.136 3.193 10.956-1.514 4.224-3.046 6.86-7 9-3.305.452-6.59.41-9.922.388l-3.05.016c-3.332.013-6.662.005-9.993-.006q-3.471.003-6.942.01-7.276.005-14.554-.017c-6.219-.017-12.437-.007-18.656.01-4.78.012-9.558.008-14.337 0q-3.44-.004-6.88.008c-3.205.008-6.41-.004-9.615-.02l-2.873.018C9.323 502.36 5.892 502.242 2 499c-2.077-3.116-2.253-3.813-2.274-7.351l-.03-2.694-.002-2.947-.026-3.11c-.024-3.4-.032-6.802-.04-10.203l-.026-7.08q-.025-7.428-.028-14.855a3022 3022 0 0 0-.088-19.043c-.03-4.876-.037-9.752-.038-14.628q-.006-3.51-.038-7.021a816 816 0 0 1-.01-9.818l-.044-2.934c.05-4.635.117-6.644 3.056-10.394 4.102-3.047 6.45-3.27 11.588-2.922 4.186 2.076 7.284 5.02 10.52 8.324l1.525 1.534c1.594 1.605 3.18 3.217 4.767 4.83l3.256 3.283Q38.042 405.977 42 410c5.367-4.477 10.341-9.214 15.259-14.177l2.407-2.416q2.57-2.582 5.138-5.166a6769 6769 0 0 1 8.133-8.17q11.564-11.6 23.112-23.216 7.077-7.115 14.165-14.22 2.698-2.708 5.391-5.42 3.757-3.784 7.525-7.556l2.246-2.273 2.077-2.073 1.794-1.803c4.057-3.494 7.427-4.061 12.753-3.51M287.434 20.023c11.891 9.159 18.623 20.452 22.316 34.915 1.43 17.514-2.128 32.085-13.5 45.75-9.569 10.315-21.908 16.69-35.953 17.535-15.587.485-28.51-3.18-40.547-13.473-11.675-11.063-17.583-24.602-18.062-40.625.313-14.42 5.87-27.413 15.828-37.805 19.362-18.084 47.56-21.592 69.918-6.297M231.62 43.875c-6.082 7.972-7.55 16.285-6.886 26.164 1.072 7.928 5.942 14.75 12.14 19.563 7.754 5.102 15.691 7.31 24.988 5.992C272.026 93.232 278.483 87.696 284 79c4.157-6.79 3.73-14.233 3-22-2.043-8.38-7.94-15.217-15.062-19.875-13.82-7.818-29.609-5.005-40.317 6.75M245 331h22v171h-22zm213-86h22v22h-22zm-42 0h22v22h-22zm-43 0h22v22h-22zm-256 0h22v22h-22zm-43 0h22v22H74zm-42 0h22v22H32zm213-64h22v22h-22z"/></svg>