<svg xmlns="http://www.w3.org/2000/svg" width="512" height="512" fill="#147cd1"><path d="m269.281 4.223 3.092 1.356q3.321 1.46 6.638 2.933c5.381 2.391 10.776 4.752 16.169 7.116l5.631 2.474c12.624 5.547 25.308 10.95 38.002 16.336q6.764 2.873 13.527 5.75l3.4 1.445a13555 13555 0 0 1 38.135 16.304l3.47 1.488 13.922 5.972q12.103 5.191 24.209 10.375l11.477 4.915 9.113 3.902C468.732 90.01 481.387 95.455 494 101v29c-32.85 14.307-65.744 28.497-98.731 42.484a1495 1495 0 0 0-12.832 5.496l-2.009.872q-2.52 1.098-5.034 2.202C373 182 373 182 371 182l.02 2.97q.092 13.902.135 27.804c.016 4.764.037 9.528.071 14.292.033 4.604.05 9.207.059 13.81q.008 2.625.032 5.251c.16 17.797-3.283 30.183-15.723 43.432-28.256 26.596-71.632 32.519-108.746 31.546-31.757-1.17-67.322-9.384-90.848-32.105-9.576-10.415-15.37-20.955-15.227-35.252v-2.368c0-2.554.016-5.107.032-7.661l.008-5.347q.014-7.003.05-14.006c.02-4.773.03-9.546.04-14.32q.032-14.022.097-28.046l-9-3-23-10v94H92V161l-9-3a188 188 0 0 1-5.697-2.373l-3.096-1.345-3.258-1.43-3.44-1.499q-5.413-2.36-10.821-4.728-5.395-2.355-10.79-4.707a5741 5741 0 0 1-6.689-2.922l-3.124-1.365-2.69-1.177C28.28 134.264 23.136 132.14 18 130v-29c26.566-11.57 53.145-23.102 79.813-34.437l3.357-1.428 3.38-1.436 6.79-2.886 3.4-1.446a13477 13477 0 0 0 38.135-16.304l3.47-1.488 13.922-5.972q12.103-5.191 24.209-10.375l11.477-4.915a47798 47798 0 0 1 22.364-9.572c4.557-1.95 9.1-3.916 13.609-5.975l2.23-1.01c1.889-.86 3.772-1.734 5.655-2.61 7.49-2.693 12.576-.022 19.47 3.077M249.478 20.73l-2.735 1.164-2.977 1.294-3.151 1.348c-3.458 1.48-6.911 2.972-10.365 4.464l-7.317 3.139q-7.648 3.28-15.291 6.572-10.852 4.67-21.712 9.316-13.923 5.96-27.84 11.93-14.135 6.063-28.274 12.117a29941 29941 0 0 0-70.691 30.364l-3.385 1.459q-4.68 2.017-9.357 4.037l-2.81 1.211-2.553 1.103-2.22.958A87 87 0 0 0 35 113v5c26.564 11.575 53.146 23.102 79.813 34.438l3.357 1.427 3.38 1.436 6.79 2.887 3.4 1.445c11.557 4.914 23.1 9.858 34.642 14.807q5.202 2.23 10.406 4.454a4531 4531 0 0 1 33.004 14.252c4.556 1.993 9.117 3.975 13.679 5.955a1655 1655 0 0 1 9.35 4.091c3.431 1.514 6.87 3.008 10.312 4.5l3.079 1.375c7.398 3.173 11.095 3.043 18.538.089q2.844-1.21 5.68-2.441l3.142-1.344c3.437-1.472 6.87-2.953 10.303-4.434l7.29-3.125a11436 11436 0 0 0 15.226-6.54q10.831-4.657 21.671-9.295 13.927-5.963 27.848-11.934 14.135-6.063 28.274-12.117A31171 31171 0 0 0 477 118v-5c-20.785-9.441-41.802-18.337-62.811-27.265l-3.615-1.536-3.647-1.55a13215 13215 0 0 1-38.802-16.586l-6.95-2.98L340 54l-24.434-10.48-12.218-5.24a8364 8364 0 0 0-12.87-5.509 2634 2634 0 0 1-11.907-5.119q-4.474-1.931-8.954-3.851l-3.35-1.46-3.107-1.328c-.902-.39-1.804-.78-2.734-1.18-4.17-1.431-7.059-.776-10.948.897M158 190c-.118 4.27-.188 8.54-.25 12.813l-.102 3.623c-.128 11.795 2.316 20.584 10.61 29.15C182.366 248.006 200.039 254.418 218 259l2.143.552c35.086 8.485 79.402 3.685 110.619-14.52 10.035-6.295 18.999-13.687 22.665-25.305 1.164-5.538.877-11.158.76-16.79l-.04-3.779q-.054-4.579-.147-9.158c-7.031 2.229-13.758 4.918-20.531 7.832l-3.327 1.421q-3.51 1.501-7.02 3.007a5375 5375 0 0 1-10.943 4.674c-9.814 4.184-19.627 8.368-29.393 12.662a2617 2617 0 0 1-9.163 4.001c-2.01.881-4.012 1.78-6.014 2.68l-3.605 1.567-3.037 1.35c-7.509 2.04-14.167-1.754-20.908-4.76l-3.227-1.414a2356 2356 0 0 1-6.847-3.014c-5.964-2.637-11.94-5.245-17.915-7.858l-3.616-1.584a2365 2365 0 0 0-30.182-12.965q-2.453-1.034-4.905-2.073-3.36-1.422-6.722-2.835l-1.978-.839c-3.223-1.403-3.223-1.403-6.667-1.852m0 60c-.701 9.293 1.886 16.942 7.875 24.125C179.692 288.395 199.191 295.202 218 300l2.143.552c35.086 8.485 79.402 3.685 110.619-14.52 10.105-6.34 19.393-13.957 22.816-25.813.66-3.475.614-6.691.422-10.219-3.044 1.412-5.572 3.112-8.25 5.125-35.243 24.784-84.356 28.226-125.664 21.063-19.99-3.773-39.674-10.417-56.07-22.743-1.939-1.39-3.856-2.443-6.016-3.445m131 96 1.27 1.457c3.729 4.032 6.771 4.994 12.228 5.302 2.663.036 5.313.039 7.974.014q2.204.012 4.407.032c3.973.029 7.945.02 11.918.005 4.158-.01 8.315.015 12.472.036 7.866.035 15.731.039 23.597.031 10.634-.007 21.268.032 31.901.069 16.745.056 33.488.05 50.233.054v83H321v-18h107v-48H309l4 11c3.118 14.17.485 29.96-6.45 42.691-3.04 4.529-6.75 8.414-10.55 12.309l-1.621 1.738c-1.078 1.136-2.22 2.209-3.379 3.262h-2v71c-4.867-.695-8.254-1.27-12.687-2.883l-3.118-1.097q-3.199-1.146-6.39-2.313c-10.734-3.753-17.545-1.295-27.993 2.356q-3.206 1.12-6.417 2.222l-2.849.996C227 512 227 512 223 512v-71l-4-2c-11.98-10.102-19.025-23.51-21-39-.767-10.389.3-20.6 5-30H84v48h107v18H67v-83l32.313.027q10.13-.013 20.261-.04c10.721-.031 21.442-.055 32.163-.032q11.712.027 23.424-.027c4.134-.019 8.266-.026 12.399-.003q5.84.03 11.681-.027 2.139-.012 4.276.014c9.347.159 9.347.159 17.197-4.35A1071 1071 0 0 0 224 345c20.103-11.997 45.515-12.552 65 1m-66.238 24.625c-7.092 9.56-7.984 20.848-6.762 32.375 2.854 11.036 9.247 20.112 19 26 10.333 6.006 22.026 7.077 33.54 4.078 11.967-4.666 19.732-12.043 25.335-23.515 3.976-10.165 3.718-22.188-.617-32.208-5.858-10.97-14.577-17.954-26.02-22.437-17.743-5.03-33.01 2.37-44.476 15.707M240 450v38c8.214-1.625 8.214-1.625 12.813-3.375 4.888-1.3 8.99.666 13.55 2.43 2.64 1.114 2.64 1.114 5.637.945v-38l-10 1c-1.999.082-4 .13-6 .125l-2.75.008c-4.43-.181-8.84-.692-13.25-1.133"/><path d="M329 385h18v18h-18zm-164 0h18v18h-18zm82-295h18v18h-18z"/></svg>