<svg xmlns="http://www.w3.org/2000/svg" width="512" height="512" fill="#147cd1"><path d="M410 0c2.87 1.794 4.491 2.983 6 6 .072 2.552.093 5.075.063 7.625l-.014 2.14q-.02 2.617-.049 5.235l3.345-.02q15.605-.091 31.208-.135c5.349-.016 10.697-.037 16.045-.071 5.161-.033 10.322-.05 15.483-.059q2.955-.008 5.908-.032c2.758-.022 5.515-.025 8.273-.024l2.468-.032c4.606.025 7.637.46 11.27 3.373 2.431 3.646 2.696 5.734 2.61 10.044-1.28 6.203-5.572 11.223-9.235 16.269a375 375 0 0 0-3.7 5.207 318 318 0 0 1-3.342 4.684c-1.631 2.683-1.631 2.683-.77 5.337a104 104 0 0 0 4.914 7.627l2.03 2.959a519 519 0 0 0 4.259 6.062c3.858 5.68 6.07 9.788 5.725 16.74-.81 3.415-2.745 5.044-5.491 7.071-2.668 1.334-4.744 1.157-7.731 1.193l-3.642.049a4132 4132 0 0 1-16.51.108q-4.357.02-8.712.082c-3.51.05-7.02.074-10.53.081-1.983.01-3.964.044-5.946.08-10.042-.024-10.042-.024-13.733-3-3.024-3.57-3.59-5.759-3.555-10.488.635-3.72 2.699-5.508 5.359-8.105 3.11-1.555 6.433-1.24 9.852-1.316l2.345-.063q3.714-.097 7.428-.183l5.031-.131Q472.83 84.146 479 84l-2.187-3.219Q475.405 78.642 474 76.5l-1.445-2.11-1.368-2.109-1.269-1.904C469 68 469 68 469 60l10-16-63-1 .063 30.673a98027 98027 0 0 1 .157 112.18l.003 3.032c.017 16.211.049 32.423.086 48.634q.056 24.942.067 49.885.008 15.397.056 30.793.03 10.551.022 21.102c-.003 4.062.001 8.123.023 12.184q.028 5.575.007 11.15c-.003 1.984.014 3.969.032 5.954l-.024 3.566.005 3.078c-.632 3.522-2.053 5.205-4.497 7.769-2.396 1.198-3.868 1.12-6.542 1.114h-2.85l-3.085-.016-3.152-.005c-3.332-.005-6.664-.018-9.996-.03q-3.382-.009-6.766-.014-8.305-.017-16.609-.049l.048 2.216c.062 3.323.101 6.647.14 9.971l.076 3.487.029 3.369.048 3.094c-.399 3.35-1.343 5.166-3.341 7.863-3.66 2.44-6.364 2.269-10.593 2.227h-2.336c-2.548 0-5.097-.016-7.645-.032l-5.301-.008c-4.65-.008-9.302-.028-13.952-.05-4.746-.02-9.492-.03-14.237-.04-9.312-.02-18.624-.055-27.936-.097.01.67.02 1.341.032 2.032.041 3.052.067 6.104.093 9.156.017 1.055.034 2.11.05 3.197l.02 3.095.032 2.841c-.365 4.31-1.397 6.791-4.363 9.963-3.616 2.167-6.593 2.252-10.684 2.17l-2.337.002a675 675 0 0 1-7.613-.065q-2.646-.012-5.292-.018c-4.634-.015-9.268-.054-13.903-.098-4.732-.041-9.465-.06-14.197-.08Q205.918 448.13 192 448l.063 2.307c.084 3.46.136 6.92.187 10.38l.102 3.631.039 3.506.063 3.222c-.565 3.675-1.9 5.307-4.454 7.954-3.028 1.514-6.159 1.13-9.479 1.114h-2.336c-2.554 0-5.108-.009-7.662-.016l-5.305-.005q-6.988-.006-13.977-.024-7.128-.014-14.257-.02-13.992-.016-27.984-.049l.048 2.216c.062 3.323.101 6.647.14 9.971l.076 3.487.029 3.369.048 3.094c-.399 3.35-1.343 5.166-3.341 7.863-3.96 2.64-7.385 2.295-11.982 2.29l-2.785.02c-3.044.02-6.087.024-9.131.026l-6.341.02q-6.65.017-13.301.015c-5.682 0-11.364.027-17.045.061-4.367.022-8.733.026-13.1.025q-3.143.005-6.284.027c-2.93.02-5.86.014-8.79.002l-2.623.034c-4.073-.043-6.11-.2-9.633-2.425-3.288-3.47-3.381-6.134-3.337-10.767.604-3.995 2.39-5.636 5.352-8.328 3.672-1.396 7.557-1.134 11.43-1.114h2.249c2.445 0 4.891.009 7.337.016l5.094.005q6.698.006 13.395.024 6.838.014 13.675.02 13.41.016 26.82.049l-.063-2.108a936 936 0 0 1-.187-9.517l-.102-3.316c-.11-9.124-.11-9.124 2.055-12.707 3.35-3.43 6.008-4.263 10.784-4.593q2.028-.007 4.057.014h2.249c2.44 0 4.88.016 7.32.032l5.09.008c4.458.008 8.914.028 13.371.05 4.552.02 9.103.03 13.655.04 8.923.02 17.847.055 26.771.097l-.048-2.016c-.062-3.036-.101-6.072-.14-9.109l-.076-3.172c-.097-10.292-.097-10.292 3.264-14.703 4.593-2.847 8.461-3.422 13.75-3.34l2.278-.002c2.467.002 4.934.025 7.402.049q2.576.009 5.153.013c4.508.011 9.016.04 13.523.074 4.605.03 9.21.044 13.816.06q13.539.05 27.078.146l-.08-2.2a821 821 0 0 1-.232-9.925l-.127-3.46c-.139-9.509-.139-9.509 2.709-13.157 4.461-3.69 8.546-3.4 14.16-3.372h2.249c2.445 0 4.891.009 7.337.016l5.094.005q6.697.006 13.395.024 6.838.014 13.675.02 13.41.016 26.82.049l-.063-2.108a936 936 0 0 1-.187-9.517l-.102-3.316c-.11-9.124-.11-9.124 2.055-12.707 3.628-3.714 6.821-4.46 11.904-4.58q2.752.001 5.506.033l2.938.008c3.088.011 6.174.037 9.262.062q3.146.016 6.29.027 7.7.035 15.397.098l-.002-2.258a243847 243847 0 0 1-.108-148.285l-.001-3.195q-.015-25.628-.043-51.254-.028-26.284-.034-52.569-.004-16.226-.028-32.452-.015-11.12-.011-22.237.004-6.42-.011-12.84-.014-5.875-.004-11.75.001-2.127-.008-4.256c-.008-1.925-.002-3.85.004-5.776l-.002-3.244c.368-4.273 1.46-7.002 4.31-10.196C402.09-.626 405.455-.84 410 0"/><path d="M367 64c3.242 1.515 5.427 3.424 6.691 6.902.9 4.935.118 7.832-2.691 12.098-3.136 2.138-6.534 3.684-9.96 5.3-7.863 3.87-15.273 8.035-22.576 12.879-37.614 24.692-69.52 29.033-114.14 27.58-33.811-1.092-62.128.333-93.574 13.554l-2.284.957a426 426 0 0 0-24.627 11.344c-3.287 1.605-6.625 3.042-10.012 4.417-3.442 1.825-5.516 4.807-7.764 7.906l-1.538 2.019a445 445 0 0 0-3.08 4.1 323 323 0 0 1-3.941 5.186 1213 1213 0 0 0-4.824 6.266 1939 1939 0 0 1-9.43 12.18l-1.796 2.307-3.64 4.674a21091 21091 0 0 0-10.55 13.562 12071 12071 0 0 0-8.975 11.55c-20.887 26.909-20.887 26.909-24.691 27.75-4.325-.053-6.897-.102-10.66-2.406-2.628-2.882-3.127-4.558-3.25-8.375l-.114-2.266C.166 240.032 1.93 237.73 4 235l1.416-1.874a677 677 0 0 1 4.959-6.376l3.773-4.828 1.94-2.479c2.98-3.808 5.945-7.626 8.912-11.443l3.5-4.5 1.75-2.25L49.5 176.5l5.228-6.721q4.564-5.867 9.124-11.736l1.914-2.463 5.273-6.787 1.444-1.859L74 145l1.68-2.518c3.03-3.241 6.341-4.487 10.414-5.986l2.594-.996c3.098-1.183 6.205-2.341 9.312-3.5q2.898-1.094 5.794-2.19a5332 5332 0 0 1 26.405-9.89q4.651-1.735 9.302-3.474 4.5-1.68 9.002-3.358l4.277-1.597q2.966-1.107 5.933-2.21l3.397-1.265c5.523-1.941 10.037-1.969 15.865-1.57 64.78 3.9 113.793-.777 169.236-36.221C359.25 62.598 359.25 62.598 367 64"/><path d="M368 107c3.587 2.519 5.233 4.691 6.063 8.938.179 3.078-.143 4.243-1.438 7.187-6.496 7.115-15.83 11.313-24.187 15.875a3056 3056 0 0 0-9.053 4.994c-6.947 3.854-13.801 7.866-20.64 11.91a444 444 0 0 1-5.551 3.218 152 152 0 0 0-6.954 4.362c-13.095 8.357-26.274 10.162-41.49 12.016q-3.602.48-7.203.969-6.806.918-13.62 1.777c-6.654.84-13.29 1.78-19.927 2.754q-1.714 11.425-3.418 22.852-.58 3.888-1.164 7.775-.838 5.584-1.668 11.17l-.53 3.517-.486 3.275-.43 2.88c-.383 2.768-.383 2.768-.304 6.531l2.092 1.03q9.784 4.815 19.553 9.663 5.022 2.492 10.052 4.967 4.86 2.39 9.706 4.805 1.846.915 3.697 1.82a696 696 0 0 1 5.192 2.577l2.98 1.474c4.306 2.627 7.688 5.795 9.754 10.436l.978 2.151 1.008 2.311 1.109 2.468c1.2 2.678 2.383 5.363 3.567 8.048l2.508 5.618c2.619 5.87 5.214 11.75 7.804 17.632l1.281 2.908c3.597 8.161 7.19 16.324 10.755 24.5l1.07 2.45 2.044 4.69a436 436 0 0 0 7.764 16.728C320.61 369.531 321 373.526 320 378c-1.796 2.934-2.944 4.472-6 6-1.953.273-1.953.273-4.25.375l-2.266.148c-3.664-.772-5.997-2.839-8.484-5.523-1.728-2.791-2.987-5.728-4.258-8.75l-1.156-2.638a1213 1213 0 0 1-3.711-8.612q-1.303-2.999-2.61-5.994a5166 5166 0 0 1-5.456-12.556 1897 1897 0 0 0-8.532-19.298l-1.397-3.126q-2.697-6.03-5.398-12.058a4879 4879 0 0 1-3.712-8.316l-1.118-2.487-1.02-2.294-.887-1.984C259 289 259 289 258.773 286.883L258 285c-2.765-1.162-2.765-1.162-6-2a182 182 0 0 1-5.758-2.718l-3.357-1.65-3.58-1.777-1.84-.911q-4.815-2.385-9.624-4.783c-3.3-1.645-6.609-3.275-9.919-4.902a1701 1701 0 0 1-7.654-3.801 948 948 0 0 0-5.43-2.674l-3.338-1.678-2.933-1.455c-2.986-1.92-4.675-3.646-6.567-6.651-1.592-9.483.693-19.747 2.082-29.187q.327-2.275.651-4.55.679-4.725 1.375-9.449c.592-4.027 1.166-8.057 1.734-12.087q.666-4.68 1.352-9.358.323-2.229.637-4.46c.293-2.072.6-4.143.91-6.214l.519-3.562c.96-4.064 2.517-6.93 5.49-9.854 3.044-1.73 5.788-2.167 9.246-2.736l2.207-.367c7.027-1.13 14.087-2.024 21.145-2.938l10.981-1.443q3.734-.483 7.472-.938C272.675 151.03 285.182 148.949 298 141q2.966-1.678 5.934-3.352 2.756-1.629 5.503-3.273c9.595-5.67 19.268-11.176 29.014-16.58 5.566-3.094 11.058-6.269 16.477-9.613 4.395-2.507 8.28-2.518 13.072-1.182m-224 96c3.456 2.5 4.76 4.013 5.771 8.167.272 4.55-.601 7.768-2.044 12.032l-.737 2.296a859 859 0 0 1-2.365 7.192q-1.175 3.612-2.343 7.226-.728 2.24-1.466 4.477c-3.054 9.268-5.017 18.757-.816 28.048 4.985 8.59 12.811 11.819 22 14.562 4.317.935 8.652 1.666 13.017 2.338 2.118.326 4.232.667 6.347 1.012 6.002.976 12.01 1.924 18.017 2.868q5.545.876 11.086 1.784c2.074.335 4.149.653 6.225.97l3.835.628 3.358.528c5.373 1.504 9.144 4.29 12.22 8.908l1.613 2.386 1.684 2.566 1.805 2.69c1.922 2.87 3.827 5.752 5.73 8.635l3.931 5.903a4399 4399 0 0 1 7.676 11.574 1036 1036 0 0 0 7.503 11.185c1.745 2.564 3.472 5.139 5.203 7.712l1.8 2.613c3.316 5.003 4.838 8.653 4.95 14.7-1.548 3.666-3.422 6.211-7 8-4.213.648-7.566.92-11.242-1.44-3.824-3.55-6.39-7.643-9.203-12.013l-1.85-2.827a2620 2620 0 0 1-5.83-8.97q-1.92-2.95-3.844-5.898l-1.9-2.917a1630 1630 0 0 0-3.78-5.754c-2.844-4.313-5.643-8.631-8.291-13.068-5.286-8.968-5.286-8.968-14.314-13.515a92 92 0 0 0-6.309-.536l-6.378-.652-2.803-.183C193 316 193 316 191 315l-.522 1.988c-1.883 7.052-4.022 13.989-6.303 20.922l-1.125 3.438a6354 6354 0 0 1-4.297 13.068q-2.966 9-5.943 17.993a6042 6042 0 0 0-7.54 22.912 3534 3534 0 0 1-5.335 16.18c-1.066 3.21-2.126 6.421-3.17 9.639a1331 1331 0 0 1-3.551 10.727l-1.026 3.208c-2.05 6.02-3.769 9.462-9.188 12.925-3.105.82-5.86.642-9 0-2.87-1.794-4.491-2.983-6-6-.923-7.96 1.104-14.693 3.672-22.15l1.182-3.552q1.597-4.777 3.223-9.543c1.132-3.333 2.247-6.672 3.363-10.01a6266 6266 0 0 1 6.375-18.911 8790 8790 0 0 0 7.255-21.548Q160.51 334.133 168 312l-3.709-.796-4.885-1.063-2.436-.521c-14.041-3.075-26.71-9.393-34.97-21.62-8.155-13.82-9.876-26.897-6.124-42.45 1.837-7.015 4.091-13.904 6.401-20.774q.655-1.948 1.3-3.9c4.38-13.198 4.38-13.198 9.423-17.876 3.864-1.288 7.13-1.086 11 0M225 5c10.31 6.426 16.545 15.391 20 27 2.47 14.495-.281 26.209-8.598 38.328-4.28 5.302-9.37 8.603-15.402 11.672l-1.926 1c-9.036 4.025-20.777 4.186-30.074 1-13.011-5.496-21.65-12.789-27.437-25.937-3.272-9.942-3.54-23.458 1.183-32.938L164 23l1.285-2.312C170.423 12.216 177.738 5.618 187 2l2.672-1.074C201.299-2.308 214.512-.793 225 5m-38.375 24.438C182.256 35.053 181.226 39.963 182 47c2.154 6.801 6.125 11.083 12 15 5.934 1.978 12.639 2.008 18.375-.625 5.398-3.13 8.641-7.45 10.625-13.375.697-6.216.647-11.718-3-17-4.556-5.023-8.262-8.457-15.078-9.238-7.716-.264-13.098 1.91-18.297 7.676"/><path d="M167 161.25c3.338 2.92 3.91 4.757 4.313 9.188-.339 3.855-.903 5.57-3.313 8.562-4.739 3.732-10.22 4.094-16.004 4.988q-3.312.57-6.623 1.147a533 533 0 0 1-10.38 1.701c-16.56 2.255-16.56 2.255-29.298 12.172a93 93 0 0 0-3.612 5.323c-1.675 2.58-3.661 4.885-5.645 7.232-1.07 1.316-1.07 1.316-2.16 2.66A685 685 0 0 1 86.5 223.5a737 737 0 0 0-10 12 1277 1277 0 0 1-10.375 12.563l-1.408 1.699c-4.984 5.924-4.984 5.924-8.768 6.61-4.027.117-7.101.035-10.449-2.372-2.662-3.194-3.318-4.848-3.785-8.84.803-6.083 4.991-10.45 8.91-14.847q1.628-1.863 3.254-3.727l1.614-1.845c2.073-2.395 4.075-4.843 6.07-7.304A692 692 0 0 1 71.5 205.5a737 737 0 0 0 10-12 983 983 0 0 1 10.313-12.437l1.382-1.649A394 394 0 0 1 97 175l1.803-2.083c2.627-2.292 4.431-2.764 7.834-3.444l3.403-.705 3.647-.706 3.758-.76q3.864-.78 7.731-1.54a794 794 0 0 0 10.883-2.258l6.566-1.379 3.026-.652c14.683-3 14.683-3 21.349-.223M132 309c3.528 1.957 5.703 4.109 7 8 .29 5.188-.466 9.698-1.86 14.659a1429 1429 0 0 1-2.6 9.478q-.706 2.58-1.409 5.16a4974 4974 0 0 1-3.746 13.634c-1.236 4.483-2.46 8.968-3.686 13.454a9097 9097 0 0 1-6.545 23.796q-2.17 7.86-4.303 15.728-1.366 5.025-2.742 10.046-.64 2.351-1.274 4.705-.873 3.234-1.763 6.464l-.998 3.675c-1.564 4.66-2.953 7.453-7.074 10.201-4.26.614-7.972.437-11.937-1.25-2.293-1.945-3.207-2.871-4.063-5.75-.45-6.955 1.014-12.872 2.858-19.553l.922-3.433a2616 2616 0 0 1 3.044-11.178l1.582-5.822q2.483-9.141 4.991-18.276a4337 4337 0 0 0 5.116-18.82 4170 4170 0 0 1 4.408-16.202q1.323-4.826 2.624-9.658a1616 1616 0 0 1 2.95-10.764l.852-3.211c1.646-5.848 3.285-9.804 7.653-14.083 3.23-1.615 6.508-1.59 10-1m319.72 52.741 3.409-.019 3.652.012 3.777-.005q4.958-.001 9.917.017 3.034.005 6.07-.007c3.891-.012 7.782-.01 11.674-.005l3.652-.012 3.408.02c.987 0 1.973.002 2.99.004 4.185.39 6.913 1.524 10.044 4.316 2.313 4.028 2.527 7.392 1.687 11.938-1.794 2.87-2.983 4.491-6 6-1.975.117-3.953.17-5.93.193l-3.774.049q-2.048.017-4.097.031l-2.082.017q-5.454.039-10.91.06-4.511.02-9.023.082c-3.634.05-7.266.074-10.9.081q-2.074.01-4.15.046a305 305 0 0 1-5.815.024l-3.34.025c-3.945-.805-5.434-2.569-7.979-5.608-1.555-3.11-1.286-5.563-1-9 1.713-3.362 2.883-5.437 6.287-7.152 2.958-.925 5.338-1.102 8.434-1.107M394 490h22v22h-22zm0-42h22v22h-22zm0-43h22v22h-22z"/></svg>