<svg xmlns="http://www.w3.org/2000/svg" width="512" height="512" fill="#147cd1"><path d="M319.75 20.043A324 324 0 0 1 327 26l3.063 2.313C339.979 37.385 348.39 49.775 354 62v2l3.875-.625c20.416-1.964 41.22 5.005 57.313 17.438A234 234 0 0 1 420 85l2.523 2.238c14.311 13.453 24.745 32.986 25.609 52.785.49 20.734.49 20.734-1.132 23.977l2.375.563c13.109 5.198 21.9 15.6 27.434 28.261 4.7 12.527 5.552 28.01.457 40.606C469.772 248.649 459.904 258.6 444 265c-5.994 1.684-11.707 2.301-17.913 2.306l-2.546.026c-2.747.023-5.493.032-8.24.04l-5.77.026q-6.026.024-12.05.028c-5.142.005-10.283.043-15.424.088-3.966.03-7.932.037-11.898.038q-2.844.006-5.688.038c-2.65.027-5.297.022-7.946.01l-2.357.044c-5.696-.076-8.183-1.568-12.168-5.644-1.614-3.229-1.596-6.51-1-10 1.736-3.025 3.836-5.418 7-7 2.54-.107 5.055-.154 7.596-.158l2.376-.015q2.56-.016 5.12-.026 4.062-.019 8.124-.053c7.702-.062 15.403-.116 23.105-.15q7.065-.032 14.13-.1a881 881 0 0 1 5.367-.026c13.043-.026 24.893-.383 35.182-9.472 6.36-7.598 8.499-14.84 8.309-24.684-.801-8.603-4.754-15.714-11.309-21.316-4.86-3.063-10.067-5.027-15.437-7-3.013-1.192-4.431-1.86-6.688-4.25-1.631-5.126-1.242-9.605.125-14.687 2.682-11.151 1.608-23.287-2-34.063l-.809-2.57C416.077 111.929 404.473 100.036 391 93c-8.932-3.745-17.023-6.235-26.754-5.922l-3.838.078a681 681 0 0 0-7.953.235l-3.834.062-3.486.099c-4.124-.726-5.52-2.359-8.135-5.552-1.27-2.4-2.383-4.7-3.437-7.187-4.23-9.45-8.826-17.452-16.024-25C316 48 316 48 316 46l-1.734-.773c-2.509-1.359-4.373-2.971-6.516-4.852C290.04 26.051 268.285 21.772 246 23c-17.251 2.159-33.726 9.4-46.258 21.496C198 46 198 46 196 46l-.809 1.8c-1.212 2.239-2.458 3.6-4.254 5.388-7.548 8.399-12.16 19.863-16.867 30.027C173 85 173 85 170 87c-2.765.164-2.765.164-6.11.055l-3.705-.084-3.935-.096C136.386 86.649 118.705 90.642 104 105c-6.167 7.23-10.353 15.137-14.238 23.742-3.135 6.697-3.135 6.697-6.137 9.383-4.1 1.367-7.732 1.453-11.875.188-2.982-2.237-4.413-4.526-5.11-8.22-.462-7.088 2.33-12.83 5.36-19.093l1.281-2.754c9.048-18.07 25.898-33.127 44.992-39.82 8.155-2.667 16.019-4.506 24.602-5.051l2.066-.156c4.523-.293 8.594 0 13.059.781l.746-2.547c1.392-3.832 3.22-7.227 5.316-10.703l1.195-1.986C168.883 42.902 173.145 37.893 178 33l2.5-2.625L183 28l1.844-1.793c36.341-34.037 95.51-35.432 134.906-6.164"/><path d="M314 160c2.87 1.794 4.491 2.983 6 6 .098 1.845.131 3.694.134 5.542l.014 3.592v3.98q.003 2.102.01 4.202.014 5.794.017 11.587.007 6.24.022 12.481c.02 10.054.03 20.107.039 30.16l.015 14.193a75856 75856 0 0 1 .046 62.477c.008 16.44.033 32.881.066 49.322q.049 25.302.054 50.604c.002 9.475.011 18.95.036 28.426q.034 12.102.02 24.203c-.004 4.118-.002 8.236.017 12.354q.026 5.653.001 11.305a595 595 0 0 0 .03 6.037l-.026 3.615.003 3.121c-.63 3.542-2.038 5.224-4.498 7.799-3.49 1.745-7.193 1.575-11 1-3.027-1.564-5.474-3.518-6.65-6.833-.414-2.563-.462-4.992-.448-7.589l.01-3.105.026-3.223.013-3.27q.018-3.99.049-7.98l-2.124.034q-9.93.15-19.86.225c-3.404.026-6.807.061-10.21.118-3.917.065-7.834.09-11.751.111l-3.685.078c-9.437.004-9.437.004-13.129-2.97-2.7-3.127-3.21-4.624-3.405-8.604.272-3.306 1.235-5.316 3.164-7.992 5.731-4.053 11.895-3.382 18.617-3.293l3.674.013c3.861.017 7.723.054 11.584.092q3.933.024 7.867.042c6.42.03 12.838.089 19.258.146v-31l-12.04.14c-3.851.032-7.704.056-11.556.08q-4.013.028-8.026.082c-3.847.048-7.694.071-11.542.089l-3.618.062c-6.346.002-10.461-.044-15.218-4.453-1.913-3.077-2.003-4.858-1.937-8.5 1.114-4.162 2.657-5.78 5.937-8.5 2.593-1.297 4.464-1.12 7.368-1.114h3.397l3.68.016 3.758.005q4.947.007 9.894.024 5.048.014 10.094.02c6.603.01 13.206.03 19.809.049v-31l-11.82.105q-5.674.035-11.349.06-3.94.022-7.88.061c-3.778.037-7.556.054-11.334.067-1.172.015-2.344.03-3.552.047-10.34.002-10.34.002-15.065-3.34-2.918-4.048-3.292-7.182-2.91-11.973 1.519-3.383 3.666-5.374 6.91-7.027 4.356-.696 8.654-.582 13.055-.488l3.808.021c3.325.023 6.648.068 9.972.124 3.399.051 6.797.074 10.196.099 6.657.05 13.312.149 19.969.244v-32l-12.258.176q-4.853.048-9.707.083c-3.41.026-6.82.061-10.23.118-3.916.065-7.833.09-11.75.111l-3.685.078c-9.437.004-9.437.004-13.129-2.97-2.7-3.127-3.21-4.624-3.405-8.604.272-3.306 1.235-5.316 3.164-7.992 5.731-4.053 11.895-3.382 18.617-3.293l3.674.013c3.861.017 7.723.054 11.584.092q3.933.024 7.867.042c6.42.03 12.838.089 19.258.146v-31l-12.04.14q-5.777.046-11.556.08-4.013.028-8.026.082c-3.847.048-7.694.071-11.542.089l-3.618.062c-6.346.002-10.461-.044-15.218-4.453-1.913-3.077-2.003-4.858-1.937-8.5 1.114-4.162 2.657-5.78 5.937-8.5 2.593-1.297 4.464-1.12 7.368-1.114h3.397l3.68.016 3.758.005q4.947.007 9.894.024 5.048.014 10.094.02c6.603.01 13.206.03 19.809.049v-31l-11.82.105q-5.674.034-11.349.06-3.94.022-7.88.061c-3.778.037-7.556.054-11.334.067-1.172.015-2.344.03-3.552.047-10.34.002-10.34.002-15.065-3.34-2.918-4.048-3.292-7.182-2.91-11.973 1.519-3.383 3.666-5.374 6.91-7.027 4.356-.696 8.654-.582 13.055-.488l3.808.021c3.325.023 6.648.068 9.972.124 3.399.051 6.797.074 10.196.099q9.985.084 19.969.244l-.032-2.032c-.041-3.052-.067-6.104-.093-9.155-.017-1.056-.034-2.11-.05-3.198l-.02-3.095-.032-2.841c.353-4.166 1.515-6.881 4.29-9.992 4.027-2.313 7.391-2.527 11.937-1.687m-107 0c3.02 1.56 5.469 3.511 6.648 6.816.428 2.656.479 5.187.48 7.878l.01 3.54-.004 3.893.007 4.133q.008 5.685.004 11.368c0 4.086.006 8.17.01 12.256q.012 12.007.012 24.015 0 9.757.006 19.515.014 27.65.012 55.3v6.029q.002 24.206.023 48.41.023 24.842.02 49.682-.001 13.951.014 27.903.014 11.877.005 23.753-.007 6.061.005 12.123.011 5.547-.002 11.094c-.003 1.974.005 3.949.013 5.923l-.014 3.549v3.062c-.38 4.203-1.509 6.928-4.311 10.07-4.028 2.314-7.392 2.528-11.938 1.688-2.87-1.794-4.491-2.983-6-6a108 108 0 0 1-.134-5.542l-.014-3.592v-3.98q-.004-2.102-.01-4.202-.014-5.794-.017-11.587-.007-6.24-.022-12.481c-.02-10.054-.03-20.107-.039-30.16l-.015-14.193a75856 75856 0 0 1-.046-62.477c-.008-16.44-.033-32.881-.066-49.322a28604 28604 0 0 1-.054-50.604c-.002-9.475-.011-18.95-.036-28.426q-.034-12.101-.02-24.203c.004-4.118.002-8.236-.017-12.354q-.026-5.653-.001-11.305a595 595 0 0 0-.03-6.037l.026-3.615-.003-3.121c.63-3.542 2.038-5.224 4.498-7.799 3.49-1.745 7.193-1.575 11-1m217.996 137.844c13.55-.597 27.173 3.879 37.262 12.988 2.725 2.603 5.337 5.262 7.742 8.168v2l2-1c8.997-.634 17.134-.961 25 4l1.883 1.063c6.89 4.295 10.996 11.223 13.117 18.937 1.227 10.76 1.227 10.76-1.05 14.918-2.825 2.84-5.272 4.017-9.2 4.394-4.7-.391-6.36-.997-9.75-4.312-1.176-3.03-2.089-6.088-3.012-9.203-.867-2.994-.867-2.994-3.363-5.547-3.286-1.565-5.018-1.827-8.625-1.25a215 215 0 0 0-5.207 3.098c-3.019 1.519-5.506 1.328-8.793.902-4.617-1.759-6.23-4.74-8.621-8.809-5.012-7.964-11.234-13.584-20.379-16.191-10.297-1.214-18.385.103-27 6-2.307 1.967-2.307 1.967-4 4v2a78 78 0 0 0 4.5 3.063c10.405 7.152 17.05 16.362 19.5 28.937.383 4.943.66 9.459-1.312 14.063-2.095 2.404-3.801 3.794-6.993 4.308l-2.57.067-2.555.12c-3.799-.825-5.195-2.53-7.57-5.558-1.152-3.523-1.152-3.523-1.937-7.375-1.797-7.758-4.343-11.88-10.688-16.562-5.801-1.827-12.03-2.378-17.79-.114C369.4 358.622 365.88 363.017 364 370l-.387 2.207c-.703 3.893-1.421 6.5-3.613 9.856-4.285 2.767-8.035 2.98-13 1.937-2.824-2.19-4.415-3.83-6-7-1.192-10.905 1.843-21.048 8.246-29.906 6.445-7.694 14.464-13.94 24.504-15.781 4.45-1.798 5.36-4.415 7.605-8.52 7.006-11.898 17.835-19.153 30.864-23.082 4.302-1.1 8.35-1.52 12.777-1.867M81.938 161.75c3.384 3.693 4.081 5.035 4 10.188-.726 4.392-2.327 6.354-5.938 9.062-2.234 1.107-4.497 2.087-6.797 3.05-8.23 3.547-12.9 9.674-16.578 17.637-2.746 7.501-3.04 15.757.063 23.188A93 93 0 0 0 59 229l1.027 1.895c4.39 7.17 11.813 10.765 19.776 12.688 3.52.668 6.964.684 10.537.657l2.398.006q2.556.004 5.11-.002c2.7-.006 5.399.003 8.098.017 7.669.037 15.338.056 23.007.044q7.055-.005 14.11.046 2.68.012 5.361-.004c2.499-.014 4.996.002 7.494.025l2.22-.035c5.693.102 8.01 1.768 11.862 5.663 1.614 3.229 1.596 6.51 1 10-1.736 3.025-3.836 5.418-7 7-2.688.109-5.35.157-8.039.161l-2.519.015q-4.14.021-8.282.027l-5.764.017q-6.056.015-12.113.02c-5.151.006-10.302.03-15.453.058-3.975.019-7.95.024-11.924.026q-2.847.004-5.692.024c-17.145.11-33.256-1.91-46.343-14.317-13.208-14.338-16.713-28.601-16.05-47.463C32.798 191.56 40.978 179.362 51 170c8.285-6.278 20.607-14.405 30.938-8.25m26.546 163.793c9.228 6.766 16.34 15.072 18.516 26.457l3.409-.08c4.184-.09 8.367-.147 12.552-.195q2.714-.038 5.426-.102c2.605-.061 5.207-.09 7.812-.111l2.44-.078c4.312-.003 5.865.166 9.349 2.972 3.163 4.078 3.444 6.405 3.012 11.594-1.626 3.192-2.853 5.336-5.985 7.15-4.512 1.272-8.907 1.155-13.574 1.15l-3.096.014q-3.237.008-6.473.002c-3.294-.003-6.588.02-9.882.045q-3.15.004-6.299.002l-2.974.028c-5.308-.036-9.164-.337-13.717-3.391-2.414-3.534-3.209-6.858-3.937-11-1.05-5.728-3.2-9.28-7.5-13.25-5.421-3.702-10.097-4.461-16.563-3.75-6.293 1.993-10.097 5-13.625 10.563-1.653 4.133-2.552 8.275-3.434 12.632-1.093 3.258-2.255 4.69-4.941 6.805-5.23 1.742-10.931 1.225-16.375 1.25l-3.406.063c-10.403.049-10.403.049-15.219-3.313-2.443-2.932-2.967-4.688-3.375-8.5.4-3.73 1.103-5.554 3.375-8.5 3.047-2.031 3.601-2.247 7.012-2.195l2.295.02 2.38.05 2.417.027c1.965.024 3.93.06 5.896.098l.36-2.719c1.773-9.083 8.011-16.497 15.265-21.906 14.448-9.554 33.73-11.228 48.86-1.832m-91.95 68.312 2.283-.01q3.73-.013 7.46-.013l5.193-.01q5.44-.009 10.881-.007c4.645 0 9.29-.014 13.935-.031q5.363-.015 10.724-.013 2.57 0 5.137-.013c2.396-.01 4.792-.007 7.188 0 .705-.007 1.41-.012 2.136-.018 5.296.034 8.861.773 12.84 4.322C96.626 402.09 96.84 405.454 96 410c-1.794 2.87-2.983 4.491-6 6-2.628.114-5.23.168-7.859.177l-2.459.02q-4.038.028-8.077.041l-2.783.013q-7.294.03-14.587.044c-5.024.011-10.047.046-15.071.085-3.862.026-7.723.035-11.584.038q-2.778.008-5.556.035c-2.593.025-5.184.024-7.777.017l-2.316.039c-3.694-.036-5.75-.392-8.884-2.413-3.367-3.447-3.444-6.106-3.399-10.768.604-3.995 2.39-5.636 5.352-8.328 3.698-1.407 7.632-1.148 11.535-1.145m116.903-.167 3.87-.051c3.952.389 6.338 1.276 9.692 3.363 2.918 4.048 3.292 7.182 2.91 11.973-1.496 3.333-3.743 5.354-6.91 7.027-3.378.706-6.622.7-10.062.625l-2.682.059c-4.583-.035-6.62-.182-10.315-3.098-3.072-4.093-3.37-6.433-2.941-11.586 1.68-3.3 2.87-5.405 6.18-7.148 3.508-1.06 6.594-1.153 10.257-1.164"/><path d="m463.938 361.813 3.652-.043c4.57.308 7.31 1.25 10.723 4.293 2.313 4.027 2.527 7.391 1.687 11.937-1.794 2.87-2.983 4.491-6 6-3.264.291-6.537.278-9.812.313l-2.737.087c-4.332.042-6.766.022-10.525-2.295-3.206-3.504-3.322-6.164-3.278-10.777.604-3.995 2.39-5.636 5.352-8.328 3.55-1.317 7.187-1.167 10.938-1.187"/></svg>