<svg xmlns="http://www.w3.org/2000/svg" width="512" height="512" fill="#147cd1"><path d="M0 2h512v429h-96v-19h78V82H18v330h78v19H0zm18 19v43h476V21z"/><path d="M249.174 166.93c22.512-.637 45.669 1.07 67.826 5.07l2.924.527c22.682 4.198 51.89 10.18 67.326 29.16l1.953 2.325c4.393 7.305 5.24 15.01 5.185 23.38l.016 3.021c.014 3.316.007 6.63 0 9.946l.02 7.163q.024 8.694.014 17.389-.006 7.071.002 14.142l.003 2.038.004 4.1c.014 12.798.009 25.595-.003 38.393-.01 11.69.003 23.38.027 35.07q.037 18.036.027 36.074c-.003 6.742 0 13.484.017 20.227q.022 9.51-.008 19.022-.005 3.483.01 6.967c.013 3.18.002 6.358-.016 9.537l.03 2.76c-.12 10.45-3.61 18.92-10.847 26.407C361.542 499.051 328.276 504.446 300 508l-2.51.316c-51.26 6.085-123.23 6.398-166.142-26.34C124.435 476.19 119.908 469.9 118 461a71 71 0 0 1-.131-4.275l-.012-2.58.003-2.822-.01-3.008q-.01-5.005-.011-10.009l-.015-7.165q-.019-9.744-.024-19.488l-.012-12.176q-.019-16.863-.026-33.728v-4.366L117.76 357v-2.197a21352 21352 0 0 0-.046-35.209q-.035-18.085-.037-36.172.001-10.15-.025-20.3-.023-9.55-.01-19.102.002-3.501-.013-7.002a1275 1275 0 0 1 .004-9.58l-.025-2.78c.074-9.755 2.45-17.757 8.837-25.209C151.024 175.885 193.435 170.012 226 168l2.582-.167c6.861-.425 13.722-.68 20.592-.904M140 213c-1.707 2.512-2.864 4.424-3.562 7.375 1.19 5.557 5.009 8.552 9.48 11.64 20.1 12.12 44.066 16.878 67.082 19.985l2.243.316c45.581 6.136 114.588 7.076 153.07-22.004 2.657-2.187 4.845-4.39 6.687-7.312-.098-5.416-1.408-8.06-5-12-49.808-37.793-183.042-41.135-230 2m-3 36a2060 2060 0 0 0-.33 22.26q-.044 3.783-.123 7.568a850 850 0 0 0-.133 10.895c-.03 1.123-.062 2.246-.094 3.403-.002 5.245.08 8.874 3.526 13.002 9.074 9.02 22.207 13.186 34.154 16.872l3.57 1.117c7.598 2.193 15.268 3.67 23.055 5.008l2.758.481c17.298 2.825 34.613 3.777 52.117 3.706l2.88-.005c34.61-.111 87.108-1.16 113.62-27.307 2.819-3.152 3.37-5.115 3.34-9.32v-3.214l-.047-3.45-.013-3.548c-.017-3.74-.054-7.479-.092-11.218q-.024-3.803-.042-7.605-.05-9.322-.146-18.645c-3.571 1.162-6.794 2.342-10.062 4.187-32.555 16.448-72.521 19.049-108.375 19l-2.522-.001c-13.763-.027-27.37-.476-41.041-2.186l-3.15-.39c-24.082-3.103-49.813-7.79-70.85-20.61zm0 79a2060 2060 0 0 0-.33 22.26q-.044 3.783-.123 7.568a850 850 0 0 0-.133 10.895c-.03 1.123-.062 2.246-.094 3.403-.002 5.293.09 8.884 3.587 13.034 26.588 26.156 80.76 27.285 115.593 27.152l3.036-.005c34.182-.104 87.394-1.299 113.574-27.153 4.186-4.984 3.648-10.194 3.476-16.431l-.026-3.535c-.033-3.71-.109-7.417-.185-11.126q-.045-3.781-.082-7.564-.1-9.25-.293-18.498c-3.039 1.21-6.056 2.446-9.047 3.77C304.988 358.406 220.54 359.798 158 337c-4.299-1.697-8.522-3.543-12.715-5.484A159 159 0 0 0 137 328m0 79c-.178 7.401-.3 14.802-.385 22.205a742 742 0 0 1-.143 7.547 724 724 0 0 0-.156 10.873l-.11 3.388c-.002 5.682.366 9.206 4.128 13.615 24.489 24.45 76.836 26.622 109.071 26.701q3.047-.006 6.095-.017l3.176-.004c16.618-.042 32.89-.655 49.324-3.308l2.756-.438C330.963 484.22 358.84 479.212 373 463c2.217-3.326 2.245-4.336 2.227-8.206v-3.215l-.032-3.466-.008-3.552c-.011-3.75-.037-7.499-.062-11.249q-.016-3.81-.027-7.619-.034-9.346-.098-18.693c-3.425 1.351-6.768 2.813-10.109 4.36C305.35 438.49 219.088 438.269 158 416c-4.299-1.697-8.522-3.543-12.715-5.484A159 159 0 0 0 137 407"/><path d="M285 452h21v19h-21zm-79 0h21v19h-21zm79-79h21v19h-21zm-79 0h21v19h-21zm79-79h21v19h-21zm-79 0h21v19h-21zM81 33h21v19H81zm-40 0h21v19H41zm79 0h21v19q-4.97.04-9.937.063l-2.866.025-2.724.01-2.524.016C121 52 121 52 120 51a57 57 0 0 1-.098-4.035l.008-2.207.028-2.82zm126 419h20v19h-20zm0-79h20v19h-20zm0-79h20v19h-20z"/></svg>