<svg xmlns="http://www.w3.org/2000/svg" width="512" height="512" fill="#147cd1"><path d="m21 0 142.688-5.312 44.483-2.345c11.938-.364 23.84-.68 35.778-.644l2.326.003c46.101.11 81.06 6.778 114.486 40.245 2.814 2.862 5.57 5.775 8.321 8.698l2.711 2.849c15.905 16.878 32.725 34.996 32.373 59.443A107.5 107.5 0 0 1 402 120l2.916.4 3.824.535 3.792.526c23.256 3.616 44.856 18.256 59.011 36.773 15.903 21.777 22.584 48.216 18.805 74.938-1.845 11.031-5.25 20.9-10.348 30.828l-1.621 3.234c-4.35 8.054-10.044 14.27-16.379 20.766l-1.734 1.957c-3.727 4.101-8.074 7.141-12.641 10.23l-1.856 1.263a69 69 0 0 1-10.514 5.696l-2.424 1.061L431 309l-.01 2.611q-.121 31.488-.278 62.975-.076 15.227-.134 30.455-.05 13.275-.12 26.552-.04 7.026-.061 14.052-.02 6.621-.064 13.242-.014 2.422-.017 4.845c-.023 15.256-1.192 27.506-11.89 39.15-9.425 8.227-20.247 9.96-32.268 9.345-8.102-.851-15.802-5.157-21.158-11.227-8.587-10.948-9.433-20.572-9.34-33.973l-.002-5.176c0-4.666.017-9.333.038-14 .019-4.883.02-9.766.024-14.65.01-9.24.034-18.48.064-27.72.034-10.521.05-21.044.065-31.566.031-21.639.084-43.277.151-64.915l-2.842-.928c-21.637-7.345-38.616-26.23-48.97-45.947-11.464-24.225-13.644-51.693-4.72-77.152C304.294 172.102 310.97 161.333 320 151l1.988-2.297C337.836 131.736 360.267 122.273 383 120V99h-80V18H40v476h286v18H21zm300 32v48h48c-5.084-5.935-5.084-5.935-10.429-11.558l-2.476-2.486-2.615-2.608-2.724-2.728q-2.835-2.835-5.67-5.665-3.644-3.635-7.278-7.28-3.474-3.479-6.953-6.952l-2.645-2.651c-.8-.799-1.602-1.597-2.428-2.42l-2.146-2.143C322.25 31.887 322.25 31.887 321 32m15.68 129.23c-14.965 15.467-23.452 34.927-23.993 56.52.432 21.836 8.64 41.321 23.75 57.125C351.589 289.19 371.977 298.207 393 298c23.514-1.288 43.028-10.178 59.516-27.152 8.502-9.746 13.62-20.587 17.484-32.848l.809-2.531c5.063-19.836.282-41.378-9.753-58.743-2.621-4.285-5.662-8.037-9.056-11.726l-2.27-2.547c-14.277-15.223-34.354-23.38-55.03-24.45-21.975-.022-42.374 7.772-58.02 23.227M374 315c-.068 20.836-.123 41.673-.155 62.51-.016 9.674-.037 19.35-.071 29.024q-.046 12.653-.056 25.305a3322 3322 0 0 1-.035 13.393q-.03 6.31-.022 12.62-.001 2.308-.019 4.618c-.066 9.26.114 17.385 5.17 25.405 4.066 3.95 8.45 5.683 14.11 6.18 4.641-.122 8.384-1.534 11.844-4.64 4.849-5.391 6.486-9.936 6.475-17.242l.005-2.043c.003-2.25-.008-4.501-.019-6.752v-4.85c.002-4.384-.01-8.767-.024-13.151-.013-4.583-.014-9.167-.016-13.75-.006-8.676-.023-17.353-.043-26.03-.022-9.879-.033-19.758-.043-29.637-.021-20.32-.058-40.64-.101-60.96z"/><path d="M109 436h217v19H109zm0-40h217v19H109zm0-39h217v19H109zm0-40h217v19H109zm0-39h156v19H109zm0-40h156v19H109zm0-79h156v19H109zm0 40h156v18H109zm0-79h156v18H109zm284 37v19l-6.375 1.188c-11.582 2.5-20.845 7.252-27.812 17-4.805 7.63-6.697 14.884-7.813 23.812h-19c0-16.497 5.292-30.931 16.672-42.938C360.558 163.21 376.376 157 393 157M69 436h21v19H69zm0-40h21v19H69zm0-39h21v19H69zm0-40h21v19H69zm0-39h21v19H69zm0-40h21v19H69zm0-79h21v19H69zm79-79h21v19h-21zm-39 0h21v19h-21zm-40 0h21v19H69zm0 119h21v18H69zm0-79h21v18H69z"/></svg>