<svg xmlns="http://www.w3.org/2000/svg" width="512" height="512" fill="#147cd1"><path d="m250.803 18.99 2.961.005L256 19c5.811 32.62 9.515 65.31 11.625 98.375l.244 3.72c4.105 64.276-2.774 116.6-45.646 165.528-18.017 20.35-37.38 39.259-57.422 57.594q-2.52 2.306-5.037 4.617c-26.696 24.48-54.084 48.069-82.462 70.585l-2.176 1.738C70.236 425 70.236 425 68 425a126 126 0 0 1-5-6.188l-1.484-1.93q-1.525-1.983-3.043-3.971a285 285 0 0 0-4.036-5.102C28.808 375.649 13.38 336.396 7 296l-.36-2.22c-9.484-61.52 8.035-125.788 44.344-175.768C55.375 112.094 60.118 106.515 65 101l2.371-2.707C75.61 88.999 84.251 80.708 94 73l-1-2-79-1V50c11.188-.204 22.375-.369 33.564-.466 5.196-.047 10.391-.11 15.587-.213 5.018-.098 10.036-.152 15.055-.175q2.865-.024 5.73-.098c15.138-.37 15.138-.37 20.12 3.05 2.376 2.52 2.376 2.52 4.187 5.062L110 59c4.33-.221 7.17-2.163 10.75-4.5 38.96-24.673 84.205-35.591 130.053-35.51m-31.537 21.674-2.953.452-3.063.509-3.268.538C180.652 47.208 150.148 57.102 126 75c4.027 4.833 8.244 9.381 12.71 13.809l1.859 1.853q2.9 2.89 5.806 5.775l3.965 3.952A9013 9013 0 0 0 160 110l-2.881 3.375-1.621 1.899c-2.365 2.725-4.918 5.207-7.498 7.726-3.092-1.376-5.196-2.952-7.575-5.348l-2.062-2.062-2.191-2.223-2.27-2.278c-2.389-2.4-4.77-4.807-7.152-7.214l-4.86-4.887Q115.939 93.002 110 87c-6.47 3.772-11.61 8.86-17 14l-1.743 1.656C82.674 110.864 75.027 119.43 68 129l-2.258 3.031c-18.278 25.42-30.33 54.145-36.992 84.656l-.458 2.082c-2.83 13.872-3.674 27.798-3.605 41.918l.006 2.368c.167 42.785 13.15 98.419 44.395 130.06L71 395c27.854-22.118 54.811-45.197 81.008-69.255q2.231-2.048 4.466-4.094c46.979-43.089 87.44-84.58 90.85-151.539.614-15.186.014-30.27-1.012-45.425l-.212-3.227C244.27 94.07 240.964 66.997 236 40q-2.65-.01-5.301-.017l-2.982-.01a59 59 0 0 0-8.451.691"/><path d="m388.75 239.75 3.734.23c31.747 1.997 63.17 5.618 94.516 11.02.035 4.409.056 8.818.074 13.227l.03 3.732C487.29 327.252 461.163 385.886 420 428l-1.87 1.917q-2.962 3.02-5.942 6.02l-1.85 1.864c-3.955 3.94-8.06 7.61-12.338 11.199 2.835 2.835 5.59 2.307 9.387 2.319l2.306.03c2.522.031 5.043.048 7.565.065q2.619.028 5.238.059c4.6.051 9.2.09 13.8.128 4.691.04 9.383.091 14.075.141 9.21.097 18.42.18 27.629.258v20c-11.17.226-22.34.41-33.512.518-5.189.052-10.376.123-15.563.236-5.012.11-10.023.169-15.036.195a304 304 0 0 0-5.72.108c-15.73.43-15.73.43-20.63-3.35-2.467-2.448-4.57-4.85-6.539-7.707l-1.996 1.084-5.442 2.951A352 352 0 0 0 366 470.31c-29.523 16.982-61.238 26.757-95 30.691l-3.434.402c-62.738 5.956-126.434-14.399-175.007-54.105-3.607-3.002-7.112-6.114-10.559-9.297l2.62-3.02c3.26-3.805 6.37-7.714 9.461-11.655 22.058-27.924 45.124-54.885 69.128-81.144q2.212-2.422 4.421-4.847c65.6-71.87 119.659-104.02 221.12-97.584M183.416 351.52l-4.077 4.449A1437 1437 0 0 0 112 435c1.112 3.337 1.604 3.699 4.402 5.566l2.17 1.456 2.365 1.54 2.45 1.607C171.261 476.179 227.575 488.326 284 479l2.496-.406c25.154-4.26 60.9-13.99 79.504-32.594l-34-34c2.01-4.02 3.938-6.145 7.125-9.25l2.758-2.703L344 398c3.092 1.376 5.196 2.952 7.575 5.348l2.062 2.062 2.191 2.223 2.27 2.278c2.389 2.4 4.77 4.807 7.152 7.214l4.86 4.887Q376.061 427.998 382 434c2.662-1.297 4.884-2.576 7.137-4.504l1.735-1.48 1.815-1.579 1.888-1.634c8.715-7.61 16.216-15.756 23.425-24.803l1.957-2.324c23.523-28.218 38.942-64.36 44.856-100.488l.339-2.058c.775-5.296 1.082-10.605 1.382-15.945l.137-2.388L467 271c-28.263-5.128-56.587-8.389-85.25-10.25l-3.227-.216c-88.33-5.746-136.722 27.175-195.107 90.986M389 30c4.714 1.48 8.294 3.314 12.375 6.125l3.21 2.195L407 40c-1.511 3.534-3.567 5.83-6.262 8.55-.895.907-1.79 1.814-2.71 2.75l-2.982 2.992-3.134 3.17a3881 3881 0 0 1-8.524 8.583l-5.328 5.357q-8.33 8.381-16.678 16.747a6384 6384 0 0 0-19.236 19.363 4459 4459 0 0 1-14.876 14.958q-4.457 4.456-8.88 8.942-4.16 4.217-8.363 8.39a360 360 0 0 0-3.06 3.092 334 334 0 0 1-4.197 4.191l-2.366 2.378C298 151 298 151 294.83 150.786c-2.302-.64-4.49-1.287-6.697-2.196l-1.992-.81-2.016-.843-2.086-.853Q279.517 145.048 277 144c1.527-3.603 3.658-5.905 6.417-8.657l2.813-2.821 3.095-3.074 3.252-3.253a5053 5053 0 0 1 8.838-8.813q4.62-4.604 9.233-9.217 8.739-8.728 17.488-17.445 9.959-9.927 19.908-19.865A66701 66701 0 0 1 389 30m54 43c4.128 2.064 6.204 4.019 9.313 7.375l2.738 2.898C457 86 457 86 456.882 87.886c-1.186 2.842-2.868 4.478-5.044 6.657l-2.72 2.745-3.006 2.988-3.149 3.165c-2.85 2.864-5.71 5.718-8.572 8.571-2.991 2.984-5.975 5.975-8.96 8.965a10815 10815 0 0 1-15.057 15.04 8704 8704 0 0 0-17.41 17.416 9806 9806 0 0 1-14.936 14.943q-4.468 4.46-8.925 8.93-4.19 4.2-8.397 8.382a848 848 0 0 0-3.083 3.087 779 779 0 0 1-4.207 4.19l-2.379 2.375C349 197 349 197 346 197c-1.937-2.23-1.937-2.23-4-5.187l-2.062-2.918c-1.727-2.58-3.341-5.234-4.938-7.895zm22 27c3.353 1.118 3.583 1.484 5.262 4.379l1.2 2.04 1.226 2.144 1.26 2.154q1.536 2.635 3.052 5.283c-5.176 6.267-10.841 11.976-16.595 17.709l-3.195 3.195a9612 9612 0 0 1-8.627 8.614q-4.518 4.511-9.032 9.025-8.54 8.534-17.084 17.062a57644 57644 0 0 0-19.459 19.437Q383.008 211.026 363 231c-2.814-2.814-3.812-6.218-5.187-9.875l-.866-2.184c-2.409-6.364-2.409-6.364-.947-9.941 1.825-2.194 1.825-2.194 4.258-4.62l2.784-2.795 3.077-3.045q1.613-1.61 3.222-3.223c2.917-2.918 5.843-5.826 8.77-8.733 3.058-3.039 6.107-6.086 9.158-9.133q8.667-8.65 17.35-17.286c6.588-6.555 13.168-13.119 19.748-19.683A43739 43739 0 0 1 465 100m-44.908-49.899c3.218 1.516 5.617 4.027 8.158 6.461l1.68 1.577A722 722 0 0 1 434 62c-5.02 6.064-10.47 11.604-16.044 17.158l-3.018 3.018a8561 8561 0 0 1-8.143 8.13q-4.266 4.26-8.528 8.52-8.061 8.057-16.128 16.107a51346 51346 0 0 0-18.37 18.349A113042 113042 0 0 1 326 171c-3.757-1.793-6.955-4.103-10.25-6.625l-1.68-1.273A1462 1462 0 0 1 310 160c1.507-3.522 3.547-5.805 6.238-8.512l2.693-2.724 2.963-2.964 3.114-3.14a4030 4030 0 0 1 8.468-8.503q2.646-2.652 5.29-5.307 9.218-9.255 18.453-18.495A7339 7339 0 0 0 374.42 93.08q7.371-7.422 14.767-14.818a2671 2671 0 0 0 8.82-8.858q4.134-4.17 8.299-8.31a497 497 0 0 0 3.042-3.064 459 459 0 0 1 4.16-4.152l2.35-2.356C418 50 418 50 420.092 50.101M483 130c3.086 2.874 4.61 6.044 6.25 9.875l.852 1.855c1.695 3.92 2.12 6.204.898 10.27-1.294 1.865-1.294 1.865-2.969 3.638l-1.921 2.061-2.123 2.212-2.229 2.367c-7.735 8.179-15.601 16.234-23.475 24.279a783 783 0 0 0-11.046 11.538 743 743 0 0 1-13.445 13.925 256 256 0 0 0-5.046 5.317c-7.475 8.073-13.843 14.726-25.238 15.726-6.884.187-13.675-.228-20.508-1.063 1.469-3.39 3.353-5.6 5.961-8.201l2.507-2.516 2.755-2.733 2.898-2.898q3.93-3.929 7.87-7.847 4.117-4.1 8.225-8.208 7.782-7.771 15.576-15.533 8.87-8.84 17.73-17.688A52872 52872 0 0 1 483 130M359.28 14.982c3.408 1.275 6.776 2.588 10.095 4.08l1.941.854Q373.662 20.951 376 22c-1.468 3.388-3.35 5.6-5.954 8.201l-2.503 2.516-2.75 2.733-2.893 2.898q-3.923 3.929-7.859 7.847-4.11 4.1-8.214 8.208-6.893 6.889-13.793 13.769-7.989 7.965-15.964 15.944-7.666 7.666-15.34 15.326-3.269 3.264-6.536 6.531-3.842 3.84-7.69 7.673-2.094 2.087-4.183 4.18l-2.494 2.48-2.179 2.175C276 124 276 124 275 124c-3.01-24.327-3.01-24.327 3.103-33.654 4.312-5.439 9.328-10.123 14.405-14.834q2.71-2.66 5.405-5.336a784 784 0 0 1 12.824-12.325c4.421-4.174 8.757-8.431 13.087-12.7a2079 2079 0 0 1 13.871-13.514l2.67-2.598a773 773 0 0 1 7.518-7.161l2.23-2.173c5.069-4.7 5.069-4.7 9.166-4.723M14 9h83v20H14zm484 156c.87 3.246 1.718 6.497 2.563 9.75l.748 2.79.693 2.694c.215.817.43 1.634.65 2.476.39 2.58.207 3.836-.654 6.29-1.564 2.113-1.564 2.113-3.616 4.401l-2.335 2.608a751 751 0 0 1-9.5 10.139c-2.418 2.53-4.802 5.078-7.12 7.7-16.148 18.215-16.148 18.215-28.126 19.478-6.837.21-13.545-.291-20.303-1.326 1.651-4.245 4.812-7.093 7.979-10.237l1.853-1.864q3.032-3.042 6.074-6.07l4.215-4.221q4.413-4.417 8.837-8.826 5.678-5.665 11.339-11.347 4.347-4.357 8.704-8.703 2.093-2.091 4.181-4.187 2.914-2.92 5.84-5.825l1.753-1.766C495.771 165 495.771 165 498 165M328 5l2.083.486c1.864.464 3.704 1.018 5.542 1.577l3.664 1.097L342 9a198 198 0 0 1-12.173 13.302l-1.771 1.777q-2.863 2.867-5.732 5.73l-4.003 4.005q-4.174 4.177-8.353 8.349-5.368 5.36-10.728 10.73-4.121 4.127-8.248 8.249l-3.958 3.96q-2.75 2.754-5.508 5.501l-1.66 1.667C276.113 76 276.113 76 275 76c-1.743-12.057-3.486-25.007 3.87-35.44 4.715-5.655 10.008-10.642 15.48-15.543 2.055-1.876 4.03-3.826 6.01-5.782 2.386-2.35 4.82-4.647 7.257-6.946l2.694-2.59C316.354 4.307 320.118 2.849 328 5m67 488h83v19h-83zM182 217h22v20h-22zm-42 0h22v20h-22zm-42 0h22v20H98zM275 0l10.188-.062 3.184-.028 2.546-.008 2.587-.016C296.092.004 298.477.43 301 1c-1.584 3.836-4.026 6.284-6.937 9.203l-1.457 1.463a895 895 0 0 1-3.046 3.035 874 874 0 0 0-4.662 4.674q-1.48 1.478-2.96 2.953l-2.723 2.716C277 27 277 27 275 27zm231 206c.857 5.883 1.125 11.56 1.063 17.5L507 232h-27c1.985-3.97 3.834-6.091 6.938-9.203l1.456-1.463a895 895 0 0 1 3.046-3.035 874 874 0 0 0 4.662-4.674q1.48-1.478 2.96-2.953l2.723-2.716C504 206 504 206 506 206"/></svg>