<svg xmlns="http://www.w3.org/2000/svg" width="512" height="512" fill="#147cd1"><path d="m234.867 233.566 5.072-.015q5.28-.013 10.563.003c4.467.011 8.933-.009 13.4-.038 3.485-.018 6.97-.018 10.455-.012q2.468 0 4.934-.019c20.044-.131 38.812 4.135 53.72 18.398 12.708 12.665 19.237 28.027 19.418 45.995l-.01 3.614c.01 1.29.018 2.582.027 3.912.022 3.502.025 7.003.023 10.505q.002 4.398.017 8.798.027 10.374.015 20.747c-.007 7.125.016 14.25.053 21.374q.045 9.204.038 18.408c-.002 3.657.004 7.314.028 10.971.027 4.07.013 8.138-.005 12.207l.04 3.657c-.091 9.074-.091 9.074-3.068 12.153-4.278 2.937-7.375 2.908-12.439 2.874l-2.078-.003c-2.565-.006-5.13-.02-7.695-.033L310 427v43h-22v-86h22v21h20a13136 13136 0 0 0-.184-43.578 5523 5523 0 0 1-.087-20.238c-.015-6.516-.05-13.033-.097-19.549q-.023-3.72-.024-7.44c-.002-3.486-.03-6.973-.062-10.46l.015-3.07c-.173-12.046-4.17-22.712-12.338-31.599-12.25-11.649-27.896-12.382-43.973-12.332l-4.167-.005q-4.337-.005-8.673.01a1731 1731 0 0 1-11.012-.007q-4.294-.009-8.587 0c-2 .002-4.001-.004-6.001-.01-14.707.075-27.92 1.861-39.52 11.54-7.385 7.617-12.365 17.784-12.448 28.509l-.03 2.898-.017 3.158-.03 3.342a5797 5797 0 0 0-.081 10.94l-.063 7.584q-.074 8.962-.138 17.923-.076 10.204-.16 20.409-.17 20.987-.323 41.975h20v-21h22v86h-22v-43c-11.294.118-11.294.118-22.587.27q-2.135.014-4.268.023l-2.213.046c-4.506.003-7.368-.528-10.932-3.339-2.231-3.347-2.252-4.421-2.26-8.33l-.022-3.35.007-3.68-.015-3.873c-.014-3.51-.014-7.022-.012-10.533q0-4.404-.008-8.81-.016-10.407-.006-20.815c.006-7.135-.006-14.27-.027-21.405q-.026-9.207-.02-18.416c.001-3.66-.001-7.32-.015-10.98-.015-4.095-.006-8.19.006-12.284l-.023-3.624c.11-17.737 6.22-32.82 18.715-45.35 16.26-15.476 34.915-19.036 56.547-18.984M0 490h512v22H0zm373-234a4365 4365 0 0 1 22.467-.165q3.816-.022 7.632-.061c3.671-.037 7.343-.054 11.014-.067 1.125-.015 2.25-.03 3.408-.047 16.613-.003 32.489 6.588 44.518 18.06 13.304 13.471 18.265 29.978 18.252 48.431l.02 3.911c.017 3.514.022 7.028.024 10.542q.001 3.298.01 6.595.028 11.515.026 23.029c-.002 7.147.02 14.293.051 21.44q.038 9.223.036 18.446c0 3.667.005 7.334.026 11.001.023 4.084.014 8.167.002 12.251l.034 3.672c-.062 8.186-.062 8.186-2.425 12.19-3.891 3.293-7.277 2.902-12.165 2.87l-2.413-.005c-2.547-.005-5.095-.018-7.642-.03q-2.587-.009-5.176-.014c-4.233-.01-8.466-.03-12.699-.049v22h-22c-.115-5.16-.215-10.317-.275-15.479q-.038-2.63-.102-5.26c-.061-2.528-.09-5.053-.111-7.581l-.078-2.359c-.003-4.006.35-6.583 2.847-9.801 4.417-4.093 8.516-3.66 14.328-3.618l2.203.005c2.313.005 4.625.018 6.938.03q2.357.009 4.715.014 5.767.017 11.535.049-.055-21.568-.184-43.135c-.04-6.678-.072-13.355-.087-20.033a3902 3902 0 0 0-.097-19.354q-.023-3.681-.024-7.362c-.012-17.524-.064-32.528-12.608-46.116-13.74-12.613-30.835-11.642-48.312-11.75q-3.452-.042-6.905-.09c-5.594-.076-11.188-.117-16.783-.16zm-275.309-.195 3.594.008c3.76.011 7.518.036 11.278.062q3.84.016 7.681.027 9.378.035 18.756.098v22l-10.262.078q-4.98.06-9.959.13-3.431.042-6.863.063C94.46 278.385 79.523 278.516 66 291c-12.758 13.898-11.603 31.116-11.61 48.77a4496 4496 0 0 0-.129 27.042c-.017 6.67-.06 13.34-.1 20.01-.076 13.06-.127 26.119-.161 39.178.973-.01 1.947-.02 2.95-.032 3.625-.036 7.25-.059 10.874-.078q2.35-.015 4.7-.04a898 898 0 0 1 6.769-.045l2.11-.032c5.337 0 8.912.689 12.885 4.316 2.26 3.842 2.217 7.169 2.103 11.493l-.018 2.467a701 701 0 0 1-.123 7.764q-.03 2.64-.055 5.279c-.04 4.304-.119 8.604-.195 12.908H74v-22l-7.7.14q-3.702.046-7.406.08-2.568.03-5.136.082c-2.465.048-4.93.071-7.395.089l-2.308.062c-3.74.002-5.836-.312-9.015-2.352-3.101-3.194-3.167-4.97-3.18-9.317l-.018-3.351-.003-3.694-.015-3.879q-.019-5.279-.024-10.557-.005-3.303-.012-6.605-.02-10.343-.027-20.687-.007-11.916-.05-23.832-.034-9.222-.034-18.444 0-5.501-.025-11.002c-.02-4.102-.015-8.205-.008-12.307l-.028-3.64c.082-16.762 6.507-32.665 18.105-44.825 13.371-13.207 29.654-18.323 47.97-18.156m190.09-139.867C300.408 125.65 307.9 138.088 310 154c1.231 16.694-3.675 30.77-14.496 43.39-9.724 10.134-22.242 15.78-36.258 16.813-17.167.287-30.902-5.358-43.246-17.203-10.067-11.111-14.38-24.885-14.215-39.715 1.04-15.902 8.005-28.94 19.75-39.582 19.357-15.166 46.177-15.746 66.246-1.766M232 139c-6.579 8.748-7.955 17.168-7 28 2.043 8.576 6.668 15 14 19.813 8.161 4.981 17.659 5.697 26.887 3.5 8.852-3.254 14.962-8.857 19.113-17.313 3.177-8.071 3.38-17.26.375-25.437-4.06-8.66-10.338-14.187-19.203-17.676-12.462-3.484-25.458-.579-34.172 9.113m183.434-1.977c11.891 9.159 18.623 20.452 22.316 34.915 1.43 17.514-2.128 32.085-13.5 45.75-9.569 10.315-21.908 16.69-35.953 17.535-15.587.485-28.51-3.18-40.547-13.473-11.675-11.063-17.583-24.602-18.062-40.625.313-14.42 5.87-27.413 15.828-37.805 19.362-18.084 47.56-21.592 69.918-6.297m-55.813 23.852c-6.082 7.972-7.55 16.285-6.886 26.164 1.072 7.928 5.942 14.75 12.14 19.563 7.754 5.102 15.691 7.31 24.988 5.992 10.163-2.362 16.62-7.898 22.137-16.594 4.157-6.79 3.73-14.233 3-22-2.043-8.38-7.94-15.217-15.062-19.875-13.82-7.818-29.609-5.005-40.317 6.75m-200.187-23.852c11.891 9.159 18.623 20.452 22.316 34.915 1.43 17.514-2.128 32.085-13.5 45.75-9.569 10.315-21.908 16.69-35.953 17.535-15.587.485-28.51-3.18-40.547-13.473-11.675-11.063-17.583-24.602-18.062-40.625.313-14.42 5.87-27.413 15.828-37.805 19.362-18.084 47.56-21.592 69.918-6.297m-55.813 23.852c-6.082 7.972-7.55 16.285-6.886 26.164 1.072 7.928 5.942 14.75 12.14 19.563 7.754 5.102 15.691 7.31 24.988 5.992 10.163-2.362 16.62-7.898 22.137-16.594 4.157-6.79 3.73-14.233 3-22-2.043-8.38-7.94-15.217-15.062-19.875-13.82-7.818-29.609-5.005-40.317 6.75M359.047 6.762C372.229 15.738 380.422 27.53 384 43c.408 3.471.478 6.882.438 10.375l-.023 2.78C384.072 70.318 378.128 83.046 368 93c-12.75 11.4-27.21 15.086-43.9 14.2-14.572-1.386-26.318-9.619-35.89-20.173-7.656-9.561-11.62-21.158-11.522-33.34.005-.742.01-1.485.017-2.25.285-13.035 5.212-26.018 14.264-35.566 18.748-17.27 45.476-22.178 68.078-9.11M315 26l-2.117 1.25c-6.691 4.444-10.92 10.991-13.32 18.625-1.607 8.3-.251 16.472 3.863 23.805 5.438 8.015 11.908 13.021 21.46 14.882 9.886 1.216 17.892-.923 26.005-6.69 6.223-5.521 10.537-12.63 11.445-20.95.137-11.137-2.336-18.771-10.043-26.942-7.375-6.37-15.417-8.352-24.938-8.257-4.803.397-8.27 1.792-12.355 4.277M181.375-.437l2.78.022C198.318-.072 211.046 5.872 221 16c11.4 12.75 15.086 27.21 14.2 43.9-1.386 14.572-9.619 26.318-20.173 35.89-9.561 7.656-21.158 11.62-33.34 11.522-.742-.005-1.485-.01-2.25-.017-13.035-.285-26.018-5.212-35.566-14.264-12.297-13.35-16.497-26.857-16.207-44.543.62-14.824 7.663-26.295 18.211-36.363 10.164-8.703 22.205-12.718 35.5-12.562M156 34c-5.3 8.539-6.827 15.992-6 26 .884 3.33 2.214 6.064 4 9l1.25 2.117c4.444 6.691 10.991 10.92 18.625 13.32 8.3 1.607 16.472.251 23.805-3.863 8.015-5.438 13.021-11.908 14.882-21.46 1.216-9.886-.923-17.892-6.69-26.005-5.521-6.223-12.63-10.537-20.95-11.445C172.827 21.515 164.047 24.684 156 34"/><path d="M245 426h22v44h-22zm0-149h22v22h-22z"/></svg>