<svg xmlns="http://www.w3.org/2000/svg" width="512" height="512" fill="#147cd1"><path d="M157.428-.316c2.306.003 4.61-.02 6.916-.045 13.496-.058 26.53 1.85 39.531 5.549l2.216.627c39.579 11.717 73.986 38.953 94.221 74.998 12.929 23.823 20.08 49.502 20.004 76.615-.003 2.306.02 4.61.045 6.916.058 13.497-1.851 26.53-5.549 39.531l-.625 2.212C309.995 220.26 303.713 233.426 296 246c4.675 5.623 9.678 10.797 14.875 15.938l2.375 2.36q2.871 2.856 5.75 5.702l.162-2.224.236-2.952.225-2.911c1.08-8.334 4.945-15.511 11.377-20.913 7.121-4.67 14.385-7.6 23-7 3.756 1.207 5.372 2.247 7.875 5.25 1.437 3.512 1.529 5.983 1.125 9.75-1.651 3.539-2.716 4.81-6 7q-2.205.509-4.438.875c-3.965.812-6.062 1.791-8.562 5.125-1.135 2.27-1.13 3.514-1.138 6.034l-.017 2.558-.003 2.811-.015 2.957q-.016 3.187-.026 6.373-.019 5.043-.053 10.087c-.062 9.562-.116 19.123-.15 28.685a4350 4350 0 0 1-.1 17.533q-.021 3.342-.026 6.684c-.005 3.12-.028 6.238-.055 9.357l.009 2.787c-.067 5.111-.536 8.731-3.426 13.134-3.385 2.44-5.586 2.972-9.75 3.25-10.96-2.016-22.486-18.36-30.102-26.004l-4.53-4.535q-5.917-5.923-11.827-11.851-6.051-6.065-12.107-12.128Q258.837 307.87 247 296l-2.275 1.245-2.992 1.636-2.963 1.62c-23.613 12.777-49.323 19.891-76.198 19.815-2.306-.003-4.61.02-6.916.045-14.097.061-27.546-2.093-41.094-6.048l-2.653-.773c-39.643-11.992-73.707-40.235-93.44-76.598-12.146-23.296-18.86-48.086-18.785-74.37.003-2.306-.02-4.61-.045-6.916-.058-13.496 1.85-26.53 5.548-39.531l.628-2.216C17.532 74.33 44.768 39.923 80.812 19.688 104.636 6.759 130.315-.392 157.428-.316M60.324 63.742C58.484 65.781 56.736 67.872 55 70l-2.344 2.836C36.913 92.316 27.141 115.38 23 140l-.563 3.168c-4.386 38.417 7.344 75.095 31.218 105.155C58.645 254.543 63.818 259.955 70 265l2.836 2.344C92.316 283.087 115.38 292.859 140 297l3.168.563c38.417 4.386 75.095-7.344 105.155-31.218 6.22-4.99 11.632-10.163 16.677-16.345l2.344-2.836C283.087 227.684 292.859 204.62 297 180l.562-3.168c4.387-38.417-7.343-75.095-31.217-105.155C261.355 65.457 256.182 60.045 250 55l-2.836-2.344C227.684 36.913 204.62 27.141 180 23l-3.168-.562c-42.522-4.855-86.68 10.295-116.508 41.304M280 266c-1.566 1.587-1.566 1.587-3.188 3.625-3.318 3.918-6.839 7.131-10.812 10.375 1.578 3.818 3.988 6.235 6.893 9.136l1.503 1.509c1.635 1.639 3.278 3.27 4.92 4.902l3.415 3.413q3.573 3.57 7.154 7.131 4.6 4.577 9.188 9.168 3.521 3.52 7.049 7.035 1.695 1.69 3.388 3.383a2449 2449 0 0 0 4.727 4.705l2.72 2.709c1.699 2.023 1.699 2.023 3.043 1.909 2.699-10.037 4.305-21.208 0-31-9.247-14.248-24.328-27.976-38-38z"/><path d="M193.664 64.04C205.241 73.936 211.994 85.914 214 101c.264 4.717.33 9.416.316 14.14-.003 2.159.02 4.316.045 6.475.084 18.253-4.492 31.543-16.361 45.385 4.617 3.877 9.59 7.15 14.605 10.48l2.79 1.86 5.817 3.87q4.465 2.969 8.927 5.944l5.654 3.764 2.705 1.802 2.499 1.66 2.202 1.464c1.796 1.198 1.796 1.198 3.801 2.156 4.14-12.763 7.37-25.594 8.053-39.023.299-3.97.82-5.823 3.388-8.93 4.037-3.23 6.37-3.48 11.559-3.047 3.323 1.693 5.383 3.019 7.375 6.188 4.748 21.366-5.382 48.544-16.418 66.51C256.024 229.44 250.34 236.375 244 243l-1.887 2.078c-20.174 21.485-50.618 31.572-79.351 33.211-25.184.557-54.857-6.768-73.762-24.289-3.091-3.016-3.9-4.203-4.437-8.5.606-4.855 1.902-7.297 5.75-10.312 3.219-1.423 5.185-1.477 8.687-1.188 2.648 1.25 2.648 1.25 5.375 3 23.66 14.436 49.918 22.063 77.75 15.438C200.525 247.6 215.457 238.14 229 225l2.348-2.207c1.878-1.632 1.878-1.632 1.652-3.793-1.646-1.377-1.646-1.377-3.833-2.746l-2.542-1.671-2.793-1.806-2.866-1.877q-4.572-2.989-9.154-5.963a9366 9366 0 0 1-8.993-5.873 3156 3156 0 0 0-5.827-3.8c-4.095-2.67-8.167-5.353-12.14-8.203l-1.812-1.296a457 457 0 0 1-4.504-3.315c-3.567-2.04-6.087-1.838-10.009-.993-2.901.623-5.561.68-8.527.668l-2.75.008c-3.25-.133-3.25-.133-5.399-.608-8.415-1.62-13.754 2.083-20.726 6.412a983 983 0 0 1-3.672 2.19 1149 1149 0 0 0-7.623 4.577 509 509 0 0 1-11.217 6.538l-1.813 1.031-5.362 3.04c-6.407 3.63-12.802 7.265-19.067 11.136l-2.586 1.575q-2.307 1.41-4.576 2.88c-5.25 3.19-10.095 4.364-16.209 3.096-10.15-7.365-13.576-24.113-15.687-35.809-1.037-7.264-1.52-14.48-1.626-21.816l-.053-2.26c.006-4.79.828-8.054 3.366-12.115 2.932-2.443 4.688-2.967 8.5-3.375 3.73.4 5.554 1.103 8.5 3.375 2.773 4.16 3.103 7.858 3.21 12.773l.087 2.754q.075 2.79.133 5.578c.275 8.2 1.805 15.903 3.57 23.895 17.392-9.902 34.736-19.877 52-30-2.048-3.117-4.084-6.103-6.437-9-7.967-11.025-8.787-24.608-8.858-37.673q-.017-2.175-.062-4.35c-.377-18.414 3.308-34.023 16.158-47.875 19.804-18.925 50.068-20.745 71.863-4.063M137 85c-8.079 10.124-9.178 19.8-9.187 32.375l-.038 2.672c-.027 12.278 2.438 22.966 11.225 31.953 8.776 6.56 17.15 7.957 28 7 8.576-2.043 15-6.668 19.813-14 7.347-12.695 7.206-32.541 4.003-46.648-3.28-9.45-9.184-16.216-18.066-20.665C159.82 72.473 146.786 75.1 137 85m363.96 188.27c6.457 5.479 10.57 12.53 11.337 21.018.136 4.113.178 8.218.186 12.333l.046 4.743c.039 4.277.058 8.553.072 12.83q.012 4.015.034 8.03.063 12.578.082 25.157.021 14.487.153 28.974c.065 7.482.095 14.964.099 22.446.003 4.462.02 8.923.074 13.384.05 4.199.056 8.395.03 12.593q-.004 2.302.04 4.603c.141 7.715-.151 13.422-5.477 19.468-3.308 3.184-6.858 5.736-10.636 8.339-5.657 5.382-5.747 10.856-5.965 18.407a271 271 0 0 0 .024 8.5l.028 2.047c.036 1.873.103 3.746.17 5.62-.288 3.623-1.063 5.371-3.257 8.238-4.226 2.817-8.036 2.8-13 2-2.824-2.19-4.415-3.83-6-7a220 220 0 0 1-.238-8.516l-.025-2.571q-.02-2.698-.032-5.397a835 835 0 0 0-.105-8.223q-.015-2.623-.026-5.246l-.053-2.472.009-2.346-.018-2.04c1.126-5.052 4.263-8.163 8.321-11.087 5.98-4.484 11.084-9.063 13.076-16.49 1.291-9.288 1.031-18.636.78-27.988-.094-4.092-.097-8.185-.11-12.278a1410 1410 0 0 0-.262-20.566c-.19-9.668-.276-19.335-.341-29.004-.093-12.957-.214-25.914-.457-38.869a880 880 0 0 1-.065-4.194 764 764 0 0 0-.106-5.721l-.057-3.233c-.295-2.8-.74-4.429-2.291-6.759-3.668-2.445-6.735-2.722-11-2-2.431 1.87-3.64 3.281-5 6-.182 2.44-.328 4.869-.437 7.313-.276 5.978-.555 10.435-4.625 15-4.028 2.313-7.392 2.527-11.938 1.687-2.87-1.794-4.491-2.983-6-6-.297-3.66-.278-7.33-.312-11l-.088-3.043c-.082-9.76 2.442-17.916 9.205-25.133 13.428-11.158 30.128-11.592 44.156-1.554M293 352c2.824 2.19 4.415 3.83 6 7-.15 1.932-.31 3.863-.51 5.79-1.553 15.567-2.863 32.412 7.275 45.322 6.74 8 14.592 14.96 22.464 21.816 3.726 3.285 7.338 6.69 10.96 10.088 4.07 3.808 8.147 7.601 12.31 11.308l1.891 1.689a486 486 0 0 0 3.501 3.085c4.349 3.87 5.98 6.042 6.384 11.857q.03 2.395.026 4.791l.013 2.57q.008 2.687.002 5.374c-.003 2.734.02 5.468.045 8.203q.004 2.613.002 5.228l.028 2.469c-.037 4.622-.381 7.668-3.391 11.41-4.226 2.817-8.036 2.8-13 2-2.824-2.19-4.415-3.83-6-7 .212-1.953.472-3.9.754-5.845 1.084-11.323 1.326-21.914-5.836-31.342-7.278-8.724-15.738-16.378-24.147-23.986-3.705-3.38-7.33-6.845-10.96-10.306-4.078-3.882-8.161-7.755-12.31-11.563l-1.891-1.742a541 541 0 0 0-3.501-3.192c-3.507-3.23-5.835-5.563-6.37-10.37l-.014-2.619-.029-2.983.003-3.204-.013-3.31q-.008-3.464-.002-6.927c.003-3.532-.02-7.062-.045-10.593q-.004-3.367-.002-6.733l-.028-3.198c.058-9.244.058-9.244 3.391-13.087 4.226-2.817 8.036-2.8 13-2M85 448h150v22H85zm0-86h150v22H85zm-70 86c6.28 3.18 11.198 8.968 16 14 4.563-1.914 7.335-5.273 10.684-8.809 3.624-3.428 6.733-5.62 11.816-5.628 4.292.135 6.502 1.252 9.5 4.437 1.77 3.54 1.637 7.144 1 11-3.18 6.28-8.968 11.198-14 16 1.914 4.563 5.273 7.335 8.809 10.684 3.428 3.624 5.62 6.733 5.629 11.816-.136 4.292-1.253 6.502-4.438 9.5-3.54 1.77-7.144 1.637-11 1-6.28-3.18-11.198-8.968-16-14-4.563 1.914-7.335 5.273-10.684 8.809-3.624 3.428-6.733 5.62-11.816 5.628-4.292-.135-6.502-1.252-9.5-4.437-1.77-3.54-1.637-7.144-1-11 3.18-6.28 8.968-11.198 14-16-1.914-4.563-5.273-7.335-8.809-10.684-3.428-3.624-5.62-6.733-5.628-11.816.135-4.292 1.252-6.502 4.437-9.5 3.54-1.77 7.144-1.637 11-1M384 42h128v22H384zM85 490h118v22H85zm299-320h107v22H384zm0-85h86v22h-86zM57 373c3.539 1.651 4.81 2.716 7 6 .843 3.506.726 6.475 0 10-1.568 2.244-1.568 2.244-3.71 4.496l-2.476 2.62Q56.41 397.56 55 399l-1.525 1.573a945 945 0 0 1-10.043 10.18 1601 1601 0 0 0-5.278 5.317q-1.695 1.7-3.392 3.399l-1.576 1.597c-3.776 3.753-6.26 5.72-11.561 6.309-6.655-.688-10.958-5.404-15.437-10l-1.483-1.484c-3.386-3.429-4.868-5.337-5.08-10.141.054-3.344.4-5.52 2.375-8.25 3.194-2.662 4.885-3.5 8.941-3.754 3.6.444 6.042 2.302 9.059 4.254 3.15.328 3.15.328 5.388-2.08q1.409-1.43 2.796-2.88c.496-.507.993-1.012 1.505-1.534 1.59-1.62 3.17-3.25 4.749-4.881q2.362-2.437 4.737-4.86a401 401 0 0 0 2.942-3.032C46.926 373.82 50.058 372.391 57 373m28 32h75v22H85zM384 0h64v22h-64zm17.5 246.688c2.695 2.492 3.752 3.737 4.5 7.312-.074 4.134-.548 6.358-2.937 9.75-4.092 3.006-8.193 4.028-13.063 5.25l-3 1c-2.302 6.394-2.274 12.761-2.363 19.512-.788 4.316-2.286 5.756-5.637 8.488-3.11 1.555-5.563 1.286-9 1-3.288-1.675-5.398-2.87-7.152-6.16-1.062-3.558-1.149-6.913-1.098-10.59l.023-2.156c.217-10.658 2.572-17.684 9.54-25.781 8.442-7.265 19.284-12.882 30.187-7.625M442 256c2.68 1.815 4.546 3.092 6 6 .665 4.75.479 8.109-1.812 12.375-3.192 3.34-7.266 4.001-11.665 4.887-2.76.807-3.832 1.439-5.523 3.738-1.826 4.719-1.28 10.289-1.426 15.273-.65 4.225-1.915 6.42-4.574 9.727-3.077 1.913-4.858 2.003-8.5 1.938-4.162-1.115-5.78-2.658-8.5-5.938-3.466-6.932-1.787-19.442-.164-26.777 3.394-8.85 8.987-14.852 17.351-19.223 6.06-2.493 12.354-3.242 18.813-2m-58-128h54v22h-54zm-43 42h22v22h-22zm0-42h22v22h-22zm0-43h22v22h-22zm0-43h22v22h-22zm0-42h22v22h-22z"/></svg>